<?xml version="1.0" encoding="UTF-8"?>
<svg id="Layer_1" xmlns="http://www.w3.org/2000/svg" version="1.1" viewBox="0 0 200 200">
  <!-- Generator: Adobe Illustrator 29.5.1, SVG Export Plug-In . SVG Version: 2.1.0 Build 141)  -->
  <defs>
    <style>
      .st0 {
        fill: #fff;
      }
    </style>
  </defs>
  <rect class="st0" x="67.9" y="72.5" width="25.2" height="14.9"/>
  <rect class="st0" x="72.4" y="84.7" width="79.9" height="50.6"/>
  <g>
    <g>
      <path d="M140.1,98c-1.3,0-2.6-.2-3.9-.5-6.6-1.6-10.7-7.5-9.7-14.2.5-3.3,2.3-5.8,4.1-7.6-1.1-2.1-1.8-4.6-1.3-7.5.9-5.5,5.8-9.4,11.8-9.4s9.6,3,11.1,7.7c.4,1.3,0,2.7-1.1,3.5l-4.3,3.3c-.6.5-1.3.7-2,.7s-.6,0-.8-.1c3.4,3.3,7,6.6,10.4,9.8,2.3,2.1,4.7,4.4,7.1,6.6.4.4.9.9,1.4,1.5.8,1,.9,2.3.4,3.4s-1.7,1.8-2.9,1.8h-7.4c-.8,0-1.6-.3-2.2-.9l-1.2-1.1c-2.6,2-5.9,3.1-9.4,3.1h0ZM138.5,84.5c0,.2-.2.4-.2.6,0,.5,0,.8.3,1.2.2.2.5.5,1.2.5h0c.3,0,.6,0,.9-.2l-2.3-2.2h0ZM140.9,70.4c0,.2.3.6.8,1.2,0-.2,0-.3,0-.5,0-.4-.5-.7-.7-.7h0s0,0,0,0Z"/>
      <path class="st0" d="M141.1,62c3.4,0,6.8,1.8,8,5.5l-4.3,3.3c-.2-2.1-2-3.7-3.9-3.7s-1.7.3-2.4,1c-2.4,2.4.4,5.4,2.1,7.1,6,5.9,12.4,11.6,18.6,17.4.4.3.8.7,1.1,1.1h-7.4l-3.4-3.2c-2.3,2.9-5.8,4.3-9.4,4.3s-2.1-.1-3.2-.4c-4.9-1.2-8-5.5-7.3-10.6.5-3.2,2.6-5.5,5.1-7.4-1.6-2.3-2.8-4.8-2.3-7.7.8-4.4,4.7-6.7,8.6-6.7M139.8,90.1c2.3,0,4.6-1.4,5.7-3.4l-7.1-6.7c-2.8,1.8-4.6,5.5-2.2,8.4,1,1.2,2.3,1.7,3.6,1.7M141.1,55.6c-3.3,0-6.6,1-9.3,2.9-3,2.2-5.1,5.4-5.7,9.2-.5,2.8,0,5.3.7,7.5-1.6,1.9-3,4.5-3.5,7.8-.6,4.1.3,8.1,2.6,11.4,2.2,3.2,5.6,5.5,9.6,6.4,1.5.4,3.1.5,4.7.5,3.3,0,6.4-.8,9.1-2.3,1.1.8,2.4,1.2,3.7,1.2h7.4c2.5,0,4.7-1.4,5.8-3.6s.8-4.9-.8-6.8c-.6-.7-1.2-1.3-1.7-1.8-2.4-2.2-4.8-4.4-7.1-6.6-2.2-2.1-4.5-4.2-6.8-6.3l3.2-2.5c2.1-1.7,3-4.5,2.2-7.1-2-6-7.5-9.9-14.1-9.9h0Z"/>
    </g>
    <g>
      <path d="M148.8,141.2c-3.2,0-6.4-.9-9.1-2.7-2.9-1.9-5.1-4.7-6.2-8-1.9-5.6-1.1-11.6,2.2-16.2,2.9-4.1,7.5-6.5,12.6-6.5s2.8.2,4.3.5c7.6,1.9,12,9.2,11,18.1,0,.6-.3,1.2-.7,1.7,0,0,0,.2.1.2.4.8.5,1.7.2,2.5-2,6.3-7.6,10.3-14.4,10.3h0ZM147.7,129.4c.4.1.8.2,1.2.2s.8,0,1.2-.1c0,0,0,0,0,0h-2.4Z"/>
      <path class="st0" d="M148.3,111.1c1.1,0,2.3.2,3.5.5,6.7,1.7,9.3,8.2,8.6,14.6h-18.5c.2,4,3.3,6.6,7,6.6s1.2,0,1.9-.2c2.2-.5,3.6-2.1,4.4-4.1l5.1,1.5c-1.7,5.4-6.5,8.1-11.3,8.1s-10.3-2.9-12.2-8.5c-3.1-9,2.6-18.4,11.7-18.4M142.1,121.8h12.3c0-3.8-3-5.6-6-5.6s-6.1,1.9-6.3,5.6M148.3,104.7v6.4-6.4c-6.1,0-11.6,2.9-15.2,7.8-3.9,5.4-4.8,12.5-2.6,19.1,1.4,4,3.9,7.3,7.5,9.6,3.2,2.1,6.9,3.2,10.8,3.2s7.4-1.1,10.4-3.1c3.4-2.2,5.8-5.5,7.1-9.5.4-1.1.4-2.3.1-3.5.2-.5.3-1,.4-1.5.5-4.6-.3-9.1-2.2-12.8-2.3-4.4-6.3-7.5-11.2-8.8-1.7-.4-3.4-.6-5-.6h0Z"/>
    </g>
    <g>
      <path d="M104.8,97.7c-7,0-13.1-4.3-15.3-10.7-1.9-5.6-1.1-11.6,2.2-16.1,2.9-4.1,7.5-6.5,12.6-6.5s2.6.2,3.9.5c4.1.9,7.4,3.4,9.4,7.1,1.7,3.2,2.4,7.1,1.9,11.1,0,.6-.3,1.2-.7,1.7,0,0,0,.1.1.2.4.8.5,1.7.2,2.5-1.9,6.3-7.6,10.4-14.3,10.4h0ZM103.6,85.9c.5.1.9.2,1.2.2s.8,0,1.2-.2h-2.5Z"/>
      <path class="st0" d="M104.3,67.7c1,0,2.1.1,3.2.4,6.8,1.5,9.6,8.1,8.8,14.6h-18.4v.2c0,4.1,3.6,6.4,7,6.4s5.1-1.4,6.1-4.4l5.1,1.5c-1.7,5.5-6.4,8.1-11.3,8.1s-10.4-2.9-12.2-8.5c-3.1-9,2.6-18.3,11.7-18.3M98,78.3h12.3c0-3.8-3-5.6-6-5.6s-6.1,1.9-6.4,5.6M104.3,61.3v6.4-6.4h0c-6.1,0-11.7,2.9-15.2,7.8-3.8,5.3-4.8,12.4-2.6,19,1.4,4,3.9,7.4,7.5,9.7,3.2,2.1,7,3.2,10.8,3.2,8.2,0,15-5,17.4-12.6.3-1.1.4-2.3.1-3.4.2-.5.3-.9.3-1.5.6-4.7-.2-9.3-2.3-13-2.4-4.5-6.5-7.5-11.5-8.7-1.5-.3-3.1-.5-4.6-.5h0Z"/>
    </g>
    <g>
      <path d="M101.6,141.1c-4.8,0-8.9-2.4-10.7-6.3-1.7-3.7-1.2-8.3,1.4-11.3.3-.4.6-.7,1-1h-.3c-1.6-.5-2.6-2-2.5-3.6.6-5.8,5.9-10.5,12.2-11,.6,0,1.1,0,1.7,0,8.1,0,13.5,4.5,13.9,11.7.2,2.6,0,5.3,0,7.9,0,2.3-.1,4.6,0,6.7,0,.5.1,1.1.2,1.8,0,.3,0,.6.1.8.1.9-.2,1.8-.8,2.5s-1.5,1.1-2.4,1.1h-5.5c-.8,0-1.5-.3-2-.7-1.8.9-3.9,1.5-6.2,1.5h0ZM102.3,129.9c0,0,.2,0,.4,0h.4c.9,0,1.5-.3,2-.7-.8.1-1.6.2-2.3.4-.2,0-.4.1-.5.2h0Z"/>
      <path class="st0" d="M104.3,111.1c5.5,0,10.3,2.4,10.7,8.7.3,4.7-.2,9.8,0,14.6,0,.9.2,1.9.3,2.8h-5.5c-.4-.9-.3-2.1-.4-3.1-1.7,2.6-4.7,3.9-7.7,3.9s-6.4-1.5-7.8-4.5c-1.2-2.5-.9-5.7.9-7.8,3.1-3.6,8.7-2.9,12.9-4,1.6-.4,1.7-1.7,1.3-3.1-.6-1.8-2.6-2.5-4.5-2.5s-1.1,0-1.6.2c-2,.5-3.5,2.3-3.6,4.4l-5.5-1.3c.5-4.6,4.8-7.8,9.2-8.1.5,0,1,0,1.4,0M103.1,133.2c3.7,0,5.8-2.5,6-6.2,0-.3,0-1.5-.2-1.5-2.2.5-4.7.5-6.9,1.1-4.2,1.1-3.7,6.3.5,6.6h.6M104.3,104.7h0c-.6,0-1.3,0-1.9,0-3.6.3-7,1.7-9.8,4-3.1,2.6-5,6.1-5.4,9.9-.2,1.7.3,3.3,1.3,4.6-2.3,3.9-2.5,8.8-.5,13,2.4,5,7.6,8.1,13.6,8.1s4.1-.4,6-1.1c.7.2,1.4.4,2.1.4h5.5c1.8,0,3.6-.8,4.8-2.2,1.2-1.4,1.8-3.2,1.6-5,0-.3,0-.6-.1-.9,0-.5-.2-1.1-.2-1.5-.1-2,0-4.2,0-6.5,0-2.7.2-5.4,0-8.2-.6-8.9-7.3-14.7-17.1-14.7h0Z"/>
    </g>
    <g>
      <path d="M48.1,97.7c-3.6,0-6.9-1.4-9.2-3.8-2-2.1-2.9-4.9-2.7-8,.2-2.8,1.3-5.1,3.3-6.8h-.2c-1.6-.4-2.7-2-2.5-3.6.9-6.6,6.5-11,14-11s2.3.1,3.4.3c5,.9,8.2,3.6,9.6,8,1.1,3.4.9,7.2.7,10.9-.1,2.2-.2,4.3,0,6.1l.3,3.6c0,.9-.2,1.8-.8,2.5-.6.7-1.5,1.1-2.4,1.1h-5.6c-.7,0-1.4-.2-2-.7-1.8.9-3.8,1.4-6,1.4h0ZM48.8,86.5c.1,0,.3,0,.6,0,.9,0,1.7-.4,2.1-.7-.6,0-1.2.2-1.8.3-.5,0-.8.2-.9.3h0Z"/>
      <path class="st0" d="M50.8,67.7c.9,0,1.9,0,2.8.3,11.2,2.1,6.8,14.1,7.7,22.2l.3,3.6h-5.6c-.3-1,0-2.1-.4-3-1.7,2.6-4.7,3.8-7.6,3.8-4.6,0-9-2.9-8.6-8.3.6-7.4,9.4-6.9,14.7-8.1,1.4-.5,1.4-1.9,1-3.1-.6-1.7-2.5-2.4-4.4-2.4s-2,.2-2.8.6c-1.6.8-2.1,2.2-2.6,3.9l-5.4-1.2c.7-5.6,5.7-8.2,10.8-8.2M49.4,89.8c1.8,0,3.6-.7,4.6-1.8.7-.8,1.4-2.6,1.4-3.6v-2.2c-2.1.3-4.3.5-6.3.9-2.3.5-4.3,1.8-3.4,4.4.5,1.6,2.1,2.3,3.7,2.3M50.8,61.3v6.4-6.4c-4,0-7.7,1.1-10.7,3.1-3.6,2.5-5.9,6.3-6.5,10.7-.2,1.7.3,3.4,1.2,4.7-1,1.7-1.7,3.7-1.8,5.9-.3,3.9,1,7.7,3.5,10.4,2.8,3,7,4.8,11.5,4.8s4.1-.4,5.9-1.1c.6.2,1.3.3,2,.3h5.6c1.8,0,3.5-.8,4.8-2.1,1.2-1.3,1.8-3.1,1.7-4.9l-.3-3.6h0c-.2-1.6,0-3.6,0-5.7.2-3.8.4-8.1-.9-12.1-1.2-3.8-4.3-8.7-12.1-10.1-1.3-.2-2.7-.4-4-.4h0Z"/>
    </g>
    <g>
      <path d="M78.1,97.7c-5.7,0-10.9-2.8-13.8-7.6-2.1-3.5-3-7.9-2.3-12.1.8-4.4,3-8.2,6.5-10.6,2.7-1.9,6.1-3,9.5-3,7.1,0,13,4.4,14.6,10.8.4,1.6-.5,3.2-2,3.8l-5.3,1.9c-.3.1-.6.2-.8.2.3,0,.7,0,1,.2l5.3,1.8c1.6.6,2.5,2.3,2,4-2,6.4-7.7,10.6-14.6,10.6h0ZM78.1,76.5c-.7,0-1.4.2-1.9.5-2,1.2-2.3,4.4-1.4,6.6.9,2.1,2.8,2.3,3.4,2.3s2.6-.2,3.2-2.4c.3-.8.8-1.5,1.6-1.9.4-.2.8-.3,1.2-.3-1.2,0-2.4-.8-2.9-2,0-.2-.1-.3-.2-.4-.3-.6-.5-1.1-.7-1.4-.5-.6-1.3-.9-2.3-.9h0Z"/>
      <path class="st0" d="M78.1,67.7c5.1,0,10.1,2.9,11.4,8.4l-5.3,1.9c-.4-.9-.7-1.9-1.4-2.7-1.2-1.4-2.9-2.1-4.7-2.1s-2.5.3-3.6.9c-3.5,2.1-4.2,7-2.8,10.6,1.2,2.8,3.8,4.2,6.4,4.2s5.3-1.5,6.3-4.6l5.3,1.8c-1.7,5.5-6.6,8.3-11.6,8.3s-8.6-2-11.1-6c-3.6-5.8-2.4-14.4,3.3-18.4,2.3-1.6,5-2.4,7.7-2.4M78.1,61.3h0c-4.1,0-8.1,1.3-11.4,3.6-4.1,2.9-6.9,7.4-7.8,12.7-.9,5,.1,10.1,2.7,14.3,1.8,2.9,4.3,5.3,7.4,6.9,2.8,1.5,6,2.2,9.2,2.2s7.5-1.1,10.6-3.2c3.4-2.3,5.9-5.6,7.1-9.7.8-2.7-.2-5.5-2.3-7,1.9-1.5,2.8-4.1,2.2-6.5-1-4.2-3.4-7.6-6.9-10-3.1-2.1-6.8-3.2-10.8-3.2h0ZM77.8,79.7s0,0,.2,0c0,.1,0,.2.1.3,0,.2.1.3.2.5.1.3.3.6.5.9-.2.3-.3.7-.5,1.1,0,0,0,0,0,0h-.2c-.3,0-.4-.2-.4-.3-.4-1-.2-2.3.1-2.6h0Z"/>
    </g>
    <g>
      <path d="M129.9,140.7c-4.9,0-8.6-2.3-10.1-6.3,0,0-.8-2-.8-3.3v-10.7h-1.5c-1.8,0-3.2-1.4-3.2-3.2v-5.4c0-1.8,1.4-3.2,3.2-3.2h1.8c.1-.1.3-.3.3-.5v-4c0-1.8,1.4-3.2,3.2-3.2h5.5c1.8,0,3.2,1.4,3.2,3.2v4.5h2c1.8,0,3.2,1.4,3.2,3.2v5.2c0,.9-.3,1.7-.9,2.3l-.2.2c-.6.6-1.4.9-2.3.9h-1.9v8.4c.4,0,.9,0,1.3-.1h.3c.1,0,.3,0,.4,0,.8,0,1.5.3,2.1.8.7.6,1.1,1.5,1.1,2.4v5c0,1.4-1,2.7-2.4,3.1-1.5.4-3,.6-4.4.6h0Z"/>
      <path class="st0" d="M128.3,104.2v7.7h5.3v5.2l-.2.2h-5.1v12.7c0,.2.4.9.5,1.1.6.8,1.6,1.1,2.6,1.1s1.5-.1,2.1-.2v5c-1.1.3-2.4.5-3.6.5-3,0-5.9-1.1-7.1-4.2-.2-.5-.6-1.7-.6-2.1v-13.9h-4.7v-5.4h1.9c1.9,0,3.4-1.9,3.4-3.7v-4h5.5M128.3,97.8h-5.5c-3.6,0-6.4,2.9-6.4,6.4v1.4c-3,.6-5.3,3.2-5.3,6.3v5.4c0,3,2,5.4,4.7,6.2v7.7c0,1.8.8,4,1,4.4,2,5.2,6.9,8.3,13.1,8.3s3.5-.3,5.3-.7c2.8-.8,4.7-3.3,4.7-6.2v-5c0-1.8-.8-3.6-2.2-4.8-.9-.8-2-1.3-3.1-1.5v-2.1c1.2-.3,2.3-.9,3.2-1.7l.2-.2c1.2-1.2,1.9-2.9,1.9-4.5v-5.2c0-3.2-2.3-5.8-5.3-6.3v-1.4c0-3.6-2.9-6.4-6.4-6.4h0Z"/>
    </g>
    <g>
      <path d="M86,140.7c-4.2,0-7.7-1.8-9.5-5-.6-1-1.4-3.2-1.4-4.8v-10.4h-1.3c-.9,0-1.7-.3-2.3-.9l-.2-.2c-.6-.6-.9-1.4-.9-2.3v-5.2c0-1.8,1.4-3.2,3.2-3.2h1.8c0,0,.2-.2.3-.3v-4.2c0-1.8,1.4-3.2,3.2-3.2h5.5c1.8,0,3.2,1.4,3.2,3.2v4.5h2c1.8,0,3.2,1.4,3.2,3.2v5.4c0,1.8-1.4,3.2-3.2,3.2h-2v8.4c.5,0,1,0,1.5-.1h.2c.1,0,.3,0,.4,0,.8,0,1.5.3,2.1.8.7.6,1.1,1.5,1.1,2.4v5c0,1.4-1,2.7-2.3,3.1-1.4.4-3,.6-4.4.6h0Z"/>
      <path class="st0" d="M84.2,104.2v7.7h5.3v5.4h-5.3v12.5c0,.2.3,1.1.5,1.3.6.8,1.6,1.1,2.7,1.1s1.5-.1,2.1-.2v5c-1.1.3-2.3.5-3.5.5-2.7,0-5.3-.9-6.7-3.4-.4-.7-1-2.4-1-3.2v-13.7h-4.5l-.2-.2v-5.2h1.9c1.7,0,3.4-1.7,3.4-3.4v-4.3h5.5M84.2,97.8h-5.5c-3.6,0-6.4,2.9-6.4,6.4v1.4c-3,.6-5.3,3.2-5.3,6.3v5.2c0,1.7.7,3.3,1.9,4.5l.2.2c.8.8,1.7,1.3,2.7,1.6v7.5c0,2.3,1.1,5.1,1.8,6.4,2.4,4.2,6.9,6.6,12.3,6.6s3.6-.3,5.3-.7c2.8-.8,4.7-3.3,4.7-6.2v-5c0-1.8-.8-3.6-2.2-4.8-.9-.8-1.9-1.3-3.1-1.5v-2c3-.6,5.3-3.2,5.3-6.3v-5.4c0-3.2-2.3-5.8-5.3-6.3v-1.4c0-3.6-2.9-6.4-6.4-6.4h0Z"/>
    </g>
  </g>
  <g>
    <path d="M152.9,93.7l-3.4-3.2c-3,3.7-8,5-12.6,3.9-4.9-1.2-8-5.5-7.3-10.6.5-3.2,2.6-5.5,5.1-7.4-1.6-2.3-2.8-4.8-2.3-7.7,1.4-8.3,14.1-9.2,16.7-1.3l-4.3,3.3c-.2-3-4-5-6.3-2.7-2.4,2.4.4,5.4,2.1,7.1,6,5.9,12.4,11.6,18.6,17.4,6.2,5.8.8.7,1.1,1.1h-7.5ZM138.4,80c-2.8,1.8-4.6,5.5-2.2,8.4s7.6,1.5,9.3-1.7l-7.1-6.7h0Z"/>
    <path d="M160.4,126.1h-18.5c.2,4.7,4.4,7.4,8.9,6.4s3.6-2.1,4.4-4.1l5.1,1.5c-3.6,11.2-19.8,10.4-23.5-.4-3.7-10.8,4.1-20.7,15.2-17.9,6.7,1.7,9.3,8.2,8.6,14.6h0ZM154.4,121.8c-.2-7.6-11.9-7.4-12.3,0h12.3Z"/>
    <path d="M116.3,82.7h-18.4v.2c.2,7.2,10.9,9,13.1,2l5.1,1.5c-3.5,11.2-19.8,10.4-23.5-.4s4-20.4,14.9-17.9c11,2.4,9.6,8.1,8.8,14.6h0ZM110.3,78.3c-.2-7.5-11.8-7.3-12.3,0h12.3Z"/>
    <path d="M115.3,137.2h-5.5c-.4-.9-.3-2.1-.4-3.1-3.4,5.3-12.8,5.2-15.6-.6-1.2-2.5-.9-5.7.9-7.8,3.1-3.6,8.7-2.9,12.9-4,1.6-.4,1.7-1.7,1.3-3.1-.8-2.3-4-2.8-6.1-2.3s-3.5,2.3-3.6,4.4l-5.5-1.3c.5-4.6,4.8-7.8,9.2-8.1,6.1-.5,11.7,1.9,12.2,8.6.3,4.7-.2,9.8,0,14.6,0,.9.2,1.9.3,2.8h0ZM108.9,125.5c-2.2.5-4.7.5-6.9,1.1-4.2,1.1-3.7,6.3.5,6.6,4.1.3,6.4-2.3,6.6-6.2s0-1.5-.2-1.5h0Z"/>
    <path d="M61.6,93.7h-5.6c-.3-1,0-2.1-.4-3-4.4,6.6-16.9,4.3-16.2-4.5.6-7.4,9.4-6.9,14.7-8.1,1.4-.5,1.4-1.9,1-3.1-1-2.6-5-3-7.2-1.8s-2.1,2.2-2.6,3.9l-5.4-1.2c.9-6.7,7.6-9.1,13.6-8,11.2,2.1,6.8,14.1,7.7,22.2l.3,3.6ZM55.5,82.2c-2.1.3-4.3.5-6.3.9-2.3.5-4.3,1.8-3.4,4.4,1,3.3,6.4,2.6,8.3.5.7-.8,1.4-2.6,1.4-3.6v-2.2Z"/>
    <path d="M89.5,76.1l-5.3,1.9c-.4-.9-.7-1.9-1.4-2.7-2-2.4-5.7-2.6-8.3-1.1s-4.2,7-2.8,10.6c2.4,5.8,10.8,5.7,12.7-.4l5.3,1.8c-3.1,10.2-17.2,11-22.6,2.2-3.6-5.8-2.4-14.4,3.3-18.4,6.6-4.7,17-2.4,19.1,6h0Z"/>
    <path d="M128.3,104.2v7.7h5.3v5.2l-.2.2h-5.1v12.7c0,.2.4.9.5,1.1,1,1.4,3.3,1.1,4.8.9v5c-4,1.1-9,.6-10.7-3.7-.2-.5-.6-1.7-.6-2.1v-13.9h-4.7v-5.4h1.9c1.9,0,3.4-1.9,3.4-3.7v-4h5.5,0Z"/>
    <path d="M84.2,104.2v7.7h5.3v5.4h-5.3v12.5c0,.2.3,1.1.5,1.3,1,1.4,3.3,1.1,4.8.9v5c-3.6,1-8.2.7-10.3-2.9-.4-.7-1-2.4-1-3.2v-13.7h-4.5l-.2-.2v-5.2h1.9c1.7,0,3.4-1.7,3.4-3.4v-4.3h5.5Z"/>
  </g>
</svg>