<?xml version="1.0" encoding="UTF-8"?>
<svg id="Layer_1" xmlns="http://www.w3.org/2000/svg" version="1.1" viewBox="0 0 200 200">
  <!-- Generator: Adobe Illustrator 29.5.1, SVG Export Plug-In . SVG Version: 2.1.0 Build 141)  -->
  <defs>
    <style>
      .st0 {
        fill: #fff;
      }
    </style>
  </defs>
  <rect class="st0" x="72.3" y="96.3" width="28.4" height="14.3"/>
  <g>
    <g>
      <path d="M45,112c-4.7-16.3,11.7-34.5,28.8-40.6-15.5,3.1-39.7,25-32.1,46.1,5.2,14.6,30.9,18.8,53.2,1.4l-1.7-2.3c3.8-3.2,6.4-6.2,7.5-8.3h-1c-24.1,24.6-50.4,18.6-54.7,3.6Z"/>
      <path class="st0" d="M73.8,71.4c-17,6.1-33.5,24.3-28.8,40.6,2.2,7.7,10.3,13,20.8,13s22.2-4.7,33.9-16.7h1c-1,2-3.6,5-7.5,8.3l1.7,2.3c-10.1,7.9-21,11.4-30.3,11.4s-20-4.9-22.8-12.8c-7.6-21.2,16.6-43,32.1-46.1M100.7,108.4h0M73.8,65.4c-.4,0-.8,0-1.2.1-5.7,1.2-12.2,4.3-18.2,8.9-6.3,4.8-11.5,10.7-15.1,16.9-5.4,9.5-6.5,19.3-3.3,28.3,1.9,5.3,5.7,9.6,11.1,12.6,4.9,2.7,11,4.2,17.5,4.2,11.5,0,23.6-4.5,34-12.7,1.8-1.4,2.6-3.7,2.2-5.9,2.3-2.3,4.1-4.6,5.1-6.5.5-.9.8-1.9.8-2.9,0-3.3-2.7-6-6-6,0,0,0,0,0,0h0s0,0,0,0,0,0,0,0h-1c-1.6,0-3.2.7-4.3,1.8-5,5.1-10.3,9-15.8,11.6-4.6,2.2-9.4,3.3-13.7,3.3s-7.5-.9-10.3-2.7c-2.4-1.5-4-3.6-4.7-6-2.2-7.6,2.3-15.1,5.2-18.8,4.9-6.4,12.3-11.8,19.8-14.5,3-1.1,4.6-4.2,3.8-7.3-.7-2.6-3.1-4.4-5.8-4.4h0ZM73.8,77.4h0,0Z"/>
    </g>
    <g>
      <path d="M84.1,103.9c-3.3,1.9-6.7,3-9.9,3.4l-5.5,7.6h0s-2.1,3-2.1,3l1.4-10.7c-2.8-.6-5.2-1.8-6.8-3.8,0-.1-.2-.2-.2-.3l-.9.5s0,0,0,0l-13.2,8.1c1.9,6.1,7.6,10,15,10.9l4.2-3.5.4,3.7c7.3-.3,15.9-3.2,24.3-9.5l-5.7-7.9s0,0,0,0l-1.1-1.5Z"/>
      <path class="st0" d="M61,103.1c0,.1.2.2.2.3,1.6,2,4,3.3,6.8,3.8l-1.4,10.7,2.1-3h0s5.5-7.6,5.5-7.6c3.2-.4,6.6-1.6,9.9-3.4l1.1,1.5s0,0,0,0l5.7,7.9c-8.4,6.2-17,9.2-24.3,9.5l-.4-3.7-4.2,3.5c-7.5-.9-13.1-4.9-15-10.9l13.2-8.1s0,0,0,0l.9-.5M61,97c-1.1,0-2.2.3-3.1.9l-.9.5-13.2,8.1c-2.4,1.5-3.4,4.3-2.6,7,2.6,8.2,10.1,13.8,20,15,.2,0,.5,0,.7,0,.7,0,1.4-.1,2.1-.4.8.4,1.6.6,2.5.6s.2,0,.2,0c4.4-.2,9-1.1,13.6-2.9,4.8-1.8,9.5-4.4,14-7.8,2.6-2,3.2-5.7,1.3-8.3l-5.7-7.9-1.1-1.5c-1.2-1.6-3-2.5-4.9-2.5-1,0-2,.2-2.9.8-2.6,1.4-5.3,2.4-7.8,2.7-.8.1-1.5.4-2.2.7-.6-.4-1.3-.7-2-.8-1-.2-2.4-.7-3.3-1.7,0,0,0,0,0,0-1.2-1.6-3-2.5-4.9-2.5h0Z"/>
    </g>
    <g>
      <path d="M159.5,88.4c-.8-3-3.1-4.2-6.5-4.1-.8,0-1.8.2-2.8.3l2.9-7.6h-5.7l-9.5,24.7v.2c0,0,0,0,0,0h0s0,0,0,0h3.9s1.6-1.2,1.6-1.2c0,0,.9,1.1,2.8,1.4,4.9.7,9-2.3,11.2-5.7,1.6-2.4,2.5-5.7,1.9-8ZM154.6,90.4c0,1.1-.6,3.5-2,5.5-1.1,1.6-2.7,2.9-4.4,2.9-1.5,0-2.9-.8-2-3.5.9-2.8,2.7-7.1,2.7-7.1,4.3-1.7,5.7.5,5.7,2.2Z"/>
      <path class="st0" d="M153.2,77l-2.9,7.6c1-.2,2-.3,2.8-.3.1,0,.3,0,.4,0,3.1,0,5.3,1.2,6.1,4.1.6,2.3-.3,5.6-1.9,8-2,3.1-5.5,5.8-9.8,5.8s-.9,0-1.4-.1c-1.9-.3-2.8-1.4-2.8-1.4l-1.6,1.2h-3.9s0,0,0,0h0s0,0,0,0v-.2c0,0,9.5-24.7,9.5-24.7h5.7M148.1,98.8s0,0,0,0c1.7,0,3.2-1.3,4.4-2.9,1.4-2,2-4.4,2-5.5,0-1.3-.7-2.8-2.9-2.8-.7,0-1.7.2-2.8.6,0,0-1.8,4.3-2.7,7.1-.8,2.7.5,3.5,1.9,3.5M153.2,71h-5.7c-2.5,0-4.7,1.5-5.6,3.9l-9.5,24.6h0c-.7,1.8-.6,3.8.3,5.3.5.9,1.3,1.7,2.2,2.2,1,.6,2,.8,3,.8s.2,0,.3,0h3.7c.6,0,1.2,0,1.7-.3.6.2,1.2.3,1.9.4.8.1,1.5.2,2.3.2,3.1,0,6.2-.9,9-2.7,2.3-1.5,4.4-3.5,5.9-5.9,2.1-3.2,3.9-8.3,2.6-12.9-1-3.6-3.3-6.3-6.6-7.6h0c.7-1.9.5-4-.7-5.7-1.1-1.6-3-2.6-5-2.6h0Z"/>
    </g>
    <g>
      <path d="M79.7,84.3c-3.8.4-6.7,1.4-9.6,4.2-2.3,2.1-3.8,5.4-3.9,8,0,3.4,2.4,6.4,7.5,5.6,1.4-.2,3.1-1.3,3.1-1.3l.8,1.2h4s6.2-16.3,6.2-16.3c-1.2-.6-4.2-1.7-8-1.3ZM78.4,95.3c-1.3,2.7-3,3.6-4.4,3.5-1.5-.1-2.4-1.2-2.4-2.9,0-2.1,1.4-4.4,2.3-5.5.9-1,3.3-3.4,7.6-2.8,0,0-1.8,4.8-3.1,7.6Z"/>
      <path class="st0" d="M81.2,84.2c3.1,0,5.4.9,6.4,1.4l-6.2,16.3h-4s-.8-1.2-.8-1.2c0,0-1.7,1.1-3.1,1.3-.5,0-1.1.1-1.5.1-4,0-6-2.7-5.9-5.7,0-2.6,1.6-5.9,3.9-8,3-2.7,5.9-3.8,9.6-4.2.5,0,1.1,0,1.6,0M74.1,98.8c1.4,0,3-1,4.2-3.5,1.3-2.8,3.1-7.6,3.1-7.6-.5,0-.9,0-1.4,0-3.5,0-5.5,2-6.3,2.9-.9,1.1-2.3,3.4-2.3,5.5,0,1.7.9,2.8,2.4,2.9,0,0,.1,0,.2,0M81.2,78.2c-.7,0-1.4,0-2.2.1-5.3.5-9.4,2.3-13.1,5.7-3.4,3.1-5.7,7.9-5.8,12.3,0,3.2,1.1,6.2,3.2,8.4,2.2,2.2,5.3,3.5,8.7,3.5s1.6,0,2.5-.2c.4,0,.9-.2,1.3-.3.5.1,1.1.2,1.6.2h4s0,0,0,0c2.5,0,4.7-1.5,5.6-3.9l6.2-16.3c1.1-2.9-.2-6.1-2.9-7.5-1.2-.6-4.6-2-9.1-2h0Z"/>
    </g>
    <g>
      <path d="M134.7,84.8l-4.4,11.4c-1.2,2.9-3.6,3.3-5.8,2.5l5.4-13.9h-5.6l-4.4,11.4c-1.3,2.9-4.3,3.3-5.9,2.5l5.3-13.9h-5.6l-5.7,14.8c.9,2,4.9,2.8,7,2.8s5-.9,6.4-1.7c1.2,1,3.1,1.7,5.2,1.7,6.2,0,8.1-3.5,9.2-6.1l4.5-11.5h-5.6Z"/>
      <path class="st0" d="M140.3,84.8h0M140.3,84.8l-4.5,11.5c-1.1,2.6-2.9,6.1-9.2,6.1s-4-.7-5.2-1.7c-1.4.8-4.2,1.7-6.4,1.7s-6.1-.8-7-2.8l5.7-14.8h5.6l-5.3,13.9c.5.2,1,.4,1.6.4,1.5,0,3.3-.8,4.2-2.9l4.4-11.4h5.6l-5.4,13.9c.6.2,1.2.3,1.9.3,1.6,0,3.1-.8,4-2.9l4.4-11.4h5.6M140.3,78.7h-5.6c-.9,0-1.7.2-2.4.5-.8-.3-1.6-.5-2.4-.5h-5.6c-.9,0-1.7.2-2.4.5-.8-.3-1.6-.5-2.4-.5h-5.6c-2.5,0-4.7,1.5-5.6,3.9l-5.7,14.8c-.6,1.5-.5,3.2.2,4.7.8,1.7,2.6,4,6.6,5.4,1.8.6,3.9.9,5.8.9s4.1-.4,6.1-1.1c1.7.7,3.6,1.1,5.5,1.1,10.5,0,13.7-7.3,14.7-9.7,0,0,0-.1,0-.2l4.4-11.4c.3-.7.5-1.5.5-2.3,0-3.3-2.7-6-6-6h0ZM140.3,90.8h0,0Z"/>
    </g>
    <g>
      <path d="M101,84.4c-1.7,0-3.3.1-4.2.2-.9.1-2.5.3-4.7,1l-6.3,16.3h5.7l5.3-13.7c.7-.2,1.9-.3,2.8-.3,1.9,0,2.7.7,2.5,1.6,0,.2,0,.4-.2.7l-4.5,11.7h5.7l4.4-11.5c.2-.5.3-.9.4-1.3.3-2.5-1.5-4.7-7-4.7Z"/>
      <path class="st0" d="M100.9,84.4s0,0,0,0c5.5,0,7.3,2.2,7,4.7,0,.4-.2.9-.4,1.3l-4.4,11.5h-5.7l4.5-11.7c.1-.3.2-.5.2-.7.1-.9-.7-1.6-2.5-1.6s-2.1.2-2.8.3l-5.3,13.7h-5.7l6.3-16.3c2.2-.6,3.8-.8,4.7-1,1-.1,2.5-.2,4.2-.2M100.9,78.4c-1.7,0-3.5,0-4.9.3h0c-1.8.2-3.7.6-5.6,1.1-1.8.5-3.3,1.9-4,3.6l-6.3,16.3c-.7,1.9-.5,3.9.7,5.6,1.1,1.6,3,2.6,5,2.6h5.7c1.1,0,2.1-.3,3-.8.9.5,1.9.8,3,.8h5.7c2.5,0,4.7-1.5,5.6-3.9l4.4-11.5s0,0,0,0c.2-.6.6-1.6.7-2.7.4-2.8-.4-5.5-2.2-7.5-2.3-2.6-5.9-3.9-10.7-3.9h0Z"/>
    </g>
    <g>
      <path d="M64.8,76.9c-5.7,3.7-10.7,8.4-14.1,13.7l3.7,1.7-5.8,2c-2.5,5.2-3.4,10.8-2,16.3l13.8-8.5c0-.2-.2-.3-.3-.5,0,0,0-.1,0-.2,0-.1-.1-.2-.1-.4,0,0,0-.1,0-.2,0-.1,0-.2-.1-.3,0,0,0-.2,0-.2,0-.1,0-.2,0-.3,0,0,0-.2,0-.3,0-.1,0-.2,0-.3,0,0,0-.2,0-.3,0-.1,0-.2,0-.3,0,0,0-.2,0-.3,0-.1,0-.2,0-.3,0,0,0-.2,0-.3,0-.1,0-.2,0-.3,0-.1,0-.2,0-.3,0-.1,0-.2,0-.3,0-.1,0-.2,0-.3,0,0,0-.2,0-.3,0-.1,0-.2,0-.3,0,0,0-.2,0-.3,0-.1,0-.2,0-.3,0,0,0-.2,0-.3,0-.1,0-.2,0-.3,0,0,0-.2,0-.3,0-.1,0-.2.1-.3,0,0,0-.2,0-.3,0-.1,0-.2.1-.3,0,0,0-.2.1-.3,0-.1,0-.2.1-.3,1.5-3.5,4.6-7.1,8.9-9.7,3.4-2,7.2-3.4,10.8-3.9h0s0,0,0,0l6.3-8.3-1.5,7.8v.3c0,0,0,0,0,0h0c.4,0,.8,0,1.2,0,0,0,0,0,0,0,2.7.2,5.2,1.1,7.1,2.6l11.8-7.3c-9.3-5.6-19.9-7-33.9-1.2-2.2.9-4.3,2.2-6.3,3.4Z"/>
      <path class="st0" d="M87.9,69.6c6.4,0,11.9,1.8,17.1,4.9l-11.8,7.3c-1.9-1.5-4.4-2.4-7.1-2.6,0,0,0,0,0,0-.4,0-.8,0-1.2,0h0s0,0,0,0v-.3c0,0,1.5-7.8,1.5-7.8l-6.3,8.3s0,0,0,0h0c-3.6.5-7.4,1.8-10.8,3.9-4.3,2.6-7.4,6.2-8.9,9.7,0,.1,0,.2-.1.3,0,0,0,.2-.1.3,0,.1,0,.2-.1.3,0,0,0,.2,0,.3,0,.1,0,.2-.1.3,0,0,0,.2,0,.3,0,.1,0,.2,0,.3,0,0,0,.2,0,.3,0,.1,0,.2,0,.3,0,0,0,.2,0,.3,0,.1,0,.2,0,.3,0,.1,0,.2,0,.3,0,.1,0,.2,0,.3,0,.1,0,.2,0,.3,0,.1,0,.2,0,.3,0,.1,0,.2,0,.3,0,0,0,.2,0,.3,0,.1,0,.2,0,.3,0,0,0,.2,0,.3,0,.1,0,.2,0,.3,0,0,0,.2,0,.3,0,.1,0,.2,0,.3,0,0,0,.2,0,.3,0,.1,0,.2,0,.3,0,0,0,.2,0,.2,0,.1,0,.2.1.3,0,0,0,.1,0,.2,0,.1,0,.2.1.4,0,0,0,.1,0,.2,0,.2.2.3.3.5l-13.8,8.5c-1.4-5.5-.5-11.1,2-16.3l5.8-2-3.7-1.7c3.4-5.3,8.4-10,14.1-13.7,2-1.3,4.1-2.5,6.3-3.4,6.2-2.6,11.8-3.8,16.8-3.8M87.9,63.6c-6.1,0-12.4,1.4-19.2,4.2-2.8,1.2-5.2,2.6-7.2,3.9-6.6,4.2-12.1,9.6-15.9,15.5-.5.7-.8,1.5-.9,2.4-.7.5-1.2,1.2-1.6,2-3.2,6.8-4,13.8-2.4,20.4.5,1.9,1.8,3.4,3.6,4.1.7.3,1.5.4,2.3.4,1.1,0,2.2-.3,3.2-.9l13.8-8.5c2.7-1.7,3.7-5.2,2.1-8,0,0,0,0,0,0,0,0,0,0,0-.1h0c0,0,0,0,0,0,0,0,0,0,0,0h0c0,0,0,0,0,0,0,0,0,0,0,0h0c0,0,0,0,0,0,0,0,0,0,0,0h0c0,0,0-.1,0-.1h0c0,0,0-.2,0-.2h0s0,0,0,0h0c0,0,0-.2,0-.2h0s0,0,0,0h0c0,0,0-.1,0-.1,0,0,0,0,0,0,0,0,0,0,0,0h0c0,0,0-.1,0-.1,0,0,0,0,0,0,0,0,0,0,0,0h0s0,0,0,0c0,0,0,0,0-.1,0,0,0,0,0-.1h0s0,0,0,0c0,0,0,0,0-.1,0,0,0-.1,0-.2h0c0,0,0-.1,0-.2,0,0,0-.1,0-.2,0,0,0-.1,0-.2,0,0,0-.1,0-.2,0,0,0-.1,0-.2,0,0,0-.1,0-.2,0,0,0-.1,0-.2,0,0,0-.1,0-.2,1.1-2.5,3.4-5,6.5-6.9,2.6-1.6,5.7-2.6,8.6-3.1.6,0,1.2-.3,1.8-.5.6.2,1.3.4,2,.4.2,0,.5,0,.7,0,0,0,0,0,0,0,1.6.1,3,.6,4,1.4,1.1.8,2.4,1.2,3.7,1.2s2.2-.3,3.2-.9l11.8-7.3c1.8-1.1,2.9-3.1,2.9-5.1,0-2.1-1.1-4-2.9-5.1-6.5-3.9-13.1-5.8-20.2-5.8h0Z"/>
    </g>
  </g>
  <g>
    <path d="M45,112c-4.7-16.3,11.7-34.5,28.8-40.6-15.5,3.1-39.7,25-32.1,46.1,5.2,14.6,30.9,18.8,53.2,1.4l-1.7-2.3c3.8-3.2,6.4-6.2,7.5-8.3h-1c-24.1,24.6-50.4,18.6-54.7,3.6Z"/>
    <path d="M84.1,103.9c-3.3,1.9-6.7,3-9.9,3.4l-5.5,7.6h0s-2.1,3-2.1,3l1.4-10.7c-2.8-.6-5.2-1.8-6.8-3.8,0-.1-.2-.2-.2-.3l-.9.5s0,0,0,0l-13.2,8.1c1.9,6.1,7.6,10,15,10.9l4.2-3.5.4,3.7c7.3-.3,15.9-3.2,24.3-9.5l-5.7-7.9s0,0,0,0l-1.1-1.5Z"/>
    <path d="M159.5,88.4c-.8-3-3.1-4.2-6.5-4.1-.8,0-1.8.2-2.8.3l2.9-7.6h-5.7l-9.5,24.7v.2c0,0,0,0,0,0h0s0,0,0,0h3.9s1.6-1.2,1.6-1.2c0,0,.9,1.1,2.8,1.4,4.9.7,9-2.3,11.2-5.7,1.6-2.4,2.5-5.7,1.9-8ZM154.6,90.4c0,1.1-.6,3.5-2,5.5-1.1,1.6-2.7,2.9-4.4,2.9-1.5,0-2.9-.8-2-3.5.9-2.8,2.7-7.1,2.7-7.1,4.3-1.7,5.7.5,5.7,2.2Z"/>
    <path d="M79.7,84.3c-3.8.4-6.7,1.4-9.6,4.2-2.3,2.1-3.8,5.4-3.9,8,0,3.4,2.4,6.4,7.5,5.6,1.4-.2,3.1-1.3,3.1-1.3l.8,1.2h4s6.2-16.3,6.2-16.3c-1.2-.6-4.2-1.7-8-1.3ZM78.4,95.3c-1.3,2.7-3,3.6-4.4,3.5-1.5-.1-2.4-1.2-2.4-2.9,0-2.1,1.4-4.4,2.3-5.5.9-1,3.3-3.4,7.6-2.8,0,0-1.8,4.8-3.1,7.6Z"/>
    <path d="M134.7,84.8l-4.4,11.4c-1.2,2.9-3.6,3.3-5.8,2.5l5.4-13.9h-5.6l-4.4,11.4c-1.3,2.9-4.3,3.3-5.9,2.5l5.3-13.9h-5.6l-5.7,14.8c.9,2,4.9,2.8,7,2.8s5-.9,6.4-1.7c1.2,1,3.1,1.7,5.2,1.7,6.2,0,8.1-3.5,9.2-6.1l4.5-11.5h-5.6Z"/>
    <path d="M101,84.4c-1.7,0-3.3.1-4.2.2-.9.1-2.5.3-4.7,1l-6.3,16.3h5.7l5.3-13.7c.7-.2,1.9-.3,2.8-.3,1.9,0,2.7.7,2.5,1.6,0,.2,0,.4-.2.7l-4.5,11.7h5.7l4.4-11.5c.2-.5.3-.9.4-1.3.3-2.5-1.5-4.7-7-4.7Z"/>
    <path d="M64.8,76.9c-5.7,3.7-10.7,8.4-14.1,13.7l3.7,1.7-5.8,2c-2.5,5.2-3.4,10.8-2,16.3l13.8-8.5c0-.2-.2-.3-.3-.5,0,0,0-.1,0-.2,0-.1-.1-.2-.1-.4,0,0,0-.1,0-.2,0-.1,0-.2-.1-.3,0,0,0-.2,0-.2,0-.1,0-.2,0-.3,0,0,0-.2,0-.3,0-.1,0-.2,0-.3,0,0,0-.2,0-.3,0-.1,0-.2,0-.3,0,0,0-.2,0-.3,0-.1,0-.2,0-.3,0,0,0-.2,0-.3,0-.1,0-.2,0-.3,0-.1,0-.2,0-.3,0-.1,0-.2,0-.3,0-.1,0-.2,0-.3,0,0,0-.2,0-.3,0-.1,0-.2,0-.3,0,0,0-.2,0-.3,0-.1,0-.2,0-.3,0,0,0-.2,0-.3,0-.1,0-.2,0-.3,0,0,0-.2,0-.3,0-.1,0-.2.1-.3,0,0,0-.2,0-.3,0-.1,0-.2.1-.3,0,0,0-.2.1-.3,0-.1,0-.2.1-.3,1.5-3.5,4.6-7.1,8.9-9.7,3.4-2,7.2-3.4,10.8-3.9h0s0,0,0,0l6.3-8.3-1.5,7.8v.3c0,0,0,0,0,0h0c.4,0,.8,0,1.2,0,0,0,0,0,0,0,2.7.2,5.2,1.1,7.1,2.6l11.8-7.3c-9.3-5.6-19.9-7-33.9-1.2-2.2.9-4.3,2.2-6.3,3.4Z"/>
  </g>
</svg>