<?xml version="1.0" encoding="UTF-8"?>
<svg id="Layer_1" xmlns="http://www.w3.org/2000/svg" version="1.1" viewBox="0 0 200 200">
  <!-- Generator: Adobe Illustrator 29.5.1, SVG Export Plug-In . SVG Version: 2.1.0 Build 141)  -->
  <defs>
    <style>
      .st0 {
        fill: #fff;
      }
    </style>
  </defs>
  <rect class="st0" x="53.4" y="99.3" width="13" height="19.9"/>
  <rect class="st0" x="110.1" y="75.9" width="13" height="19.9"/>
  <rect class="st0" x="50" y="91.3" width="89.5" height="20.5"/>
  <g>
    <g>
      <path d="M98.5,108.9c-1.3,1.8-6.2,4.4-10.8,4.4-8.1,0-12.7-5.7-12.7-13.4s6.6-14.6,12.9-14.6,11.2,3.6,11.2,9.2-2.1,7.7-11.1,7.7-6-.5-6-.5c0,4.8,3.9,5.7,6.1,5.7s2.9-.4,3.9-.8c1-.4,1.9-.9,3.2-.9,2.4,0,3.2,3.3,3.2,3.3M82.3,96.8s1.6.6,5.9.6,4.5-1.2,4.5-3-1.5-3.2-4.5-3.2-5.9,3-5.9,5.5"/>
      <path class="st0" d="M87.7,119.5c-11.1,0-18.9-8.1-18.9-19.6s3.2-12.9,5.9-15.5c3.5-3.4,8.2-5.3,13.2-5.3s8.9,1.4,12,3.9c3.5,2.8,5.4,6.9,5.4,11.5s-1.4,6.7-2.9,8.6c.4.6.8,1.2,1.2,1.9.6,1.1,2.3,4.5,0,7.7-2.7,3.8-9.8,7-15.8,7ZM86.8,95.9c.4,0,.8,0,1.3,0s.3,0,.4,0c-.2-1.3-.8-2.4-1.5-3.2-.3.5-.5,1.1-.5,1.7s.1,1,.3,1.4Z"/>
    </g>
    <g>
      <path d="M119.2,106.9c0,.3.2.8.2,1.8,0,2.8-2.5,4.6-5.9,4.6-6.9,0-10.5-4.9-10.5-12.5v-18.4c0-2.3.7-4,1.9-5,1.2-1,3.1-1.5,5.4-1.5,0,.3,0,.6-.1,1.1,0,.4,0,1,0,1.7,0,.7,0,1.7,0,2.8v3.7h7.9c0,1.8-.5,3.2-1.5,4.2-1,1.1-2.4,1.6-4.2,1.6h-2.2v8.3c0,1.6.1,3.2.4,4.3.3,1.1,1.9,3.7,4.9,3.7s2.9-.3,3.5-.4"/>
      <path class="st0" d="M113.5,119.5c-5.2,0-9.6-2-12.6-5.7-2.6-3.3-4-7.7-4-13v-18.4c0-5.3,2.3-8.3,4.2-9.8,2.4-1.9,5.5-2.9,9.4-2.9s3.5.8,4.7,2.1,1.7,3.2,1.5,4.9c0,0,0,.3,0,.7,0,0,0,0,0,0,0,.2,0,.6,0,1.3,0,0,0,0,0,.1h1.7c3.4,0,6.2,2.8,6.2,6.2s-1.7,6.9-3.1,8.4c-1,1.1-2.5,2.3-4.8,3v2.7c0,.7,0,1.3,0,1.7.5,0,.9-.1,1.1-.2,3.2-.8,6.6,1,7.5,4.2.2.7.5,1.8.5,3.6,0,6.1-5.2,10.8-12.1,10.8ZM116.7,102.1h0,0Z"/>
    </g>
    <g>
      <path d="M130.2,81.5c-.8,1.4-2,2.1-3.5,2.1s-1.2-.1-1.8-.4c-.6-.4-1.1-.8-1.4-1.4-.3-.6-.5-1.2-.5-1.9s.2-1.4.5-2c.4-.7.9-1.2,1.5-1.6.6-.4,1.3-.6,2-.6s1.2.2,1.7.5c.6.3,1.1.8,1.4,1.4.3.6.5,1.2.5,1.9s-.2,1.4-.5,2M134.6,107.5c-.6.2-1,.3-1.8.3-1.5,0-2.5-1.1-2.5-2.9v-13.3c0-1.2,0-2.1,0-2.8,0-.7,0-1.3,0-1.7,0-.5,0-.8.1-1.1-2.4,0-4.3.5-5.5,1.5-1.2,1-1.9,2.7-1.9,5v13.5c0,4.8,3,7.5,7,7.4,2.5,0,4.6-1.3,4.6-3.9s-.2-1.9-.2-1.9"/>
      <path class="st0" d="M129.9,119.5c-3.4,0-6.5-1.2-8.9-3.5-2.6-2.5-4-6.1-4-10.1s0,0,0,0v-13.5c0-2.9.7-5.1,1.7-6.8-.2-.3-.3-.5-.5-.8-.8-1.5-1.2-3.1-1.2-4.9s.5-3.6,1.3-5.1c.9-1.6,2.2-2.9,3.7-3.9,1.6-1,3.3-1.4,5.2-1.4s3.2.4,4.7,1.2c1.7.9,3.1,2.2,4,3.9.8,1.5,1.2,3.1,1.2,4.9s-.2,2.6-.7,3.8c.5,1.1.7,2.3.5,3.4,0,0,0,.3,0,.7,0,0,0,0,0,0,0,.2,0,.6,0,1.3,0,.7,0,1.5,0,2.7v10c.5.1.9.4,1.3.6,1.5.9,2.5,2.4,2.8,4.1,0,.2.3,1.6.3,3.2,0,5.7-4.3,9.8-10.6,10.1-.2,0-.4,0-.6,0ZM124.8,78.5c-.2.3-.3.7-.3,1s0,.7.3,1c0,0,0,0,0,0,.5-.2,1.1-.3,1.7-.5l.2-.5-1.9-1.1ZM127,79.7v.2s.1,0,.3,0l-.3-.2ZM127.1,79.6l.4.2c.6,0,1.2-.2,1.8-.2,0-.3-.1-.6-.3-.9-.2-.4-.5-.7-.9-.9l-1.1,1.8ZM126.7,77.4c-.8,0-1.6.5-1.8.9l1.9,1.1.9-1.8c-.3-.2-.7-.2-1-.2Z"/>
    </g>
    <g>
      <path d="M137.8,98.6c0-2.6.4-4.7,1.1-6.4.8-1.7,1.7-3,3-3.9,1.2-.9,2.6-1.6,4.1-1.9,1.5-.3,3-.5,4.5-.5h2.9c.3.6.4,1.7.4,2.3,0,2.5-2,3.3-4.3,3.5-4.1.3-4.4,3.3-4.4,5.6v9.7c0,1.2,0,2.1,0,2.8,0,.7,0,1.3,0,1.7,0,.5,0,1.1.1,1.4-2.4,0-4.2,0-5.7-1.2-1.4-1.1-1.7-3.3-1.7-5.6v-7.6Z"/>
      <path class="st0" d="M153.3,85.9c.3.6.4,1.7.4,2.3,0,2.5-2,3.3-4.3,3.5-4.1.3-4.4,3.3-4.4,5.6v9.7c0,1.2,0,2.1,0,2.8,0,.7,0,1.3,0,1.7,0,.5,0,1.1.1,1.4-2.4,0-4.2,0-5.7-1.2-1.4-1.1-1.7-3.3-1.7-5.6v-7.6c0-2.6.4-4.7,1.1-6.4.8-1.7,1.7-3,3-3.9,1.2-.9,2.6-1.6,4.1-1.9,1.5-.3,3-.5,4.5-.5h2.9M153.3,79.7h-2.9c-1.9,0-3.9.2-5.8.6-2.4.5-4.6,1.6-6.5,3.1-2,1.5-3.6,3.6-4.8,6.2-1.1,2.5-1.7,5.4-1.7,9v7.6c0,1.9.2,3.5.5,4.8.6,2.4,1.9,4.3,3.6,5.7,3.3,2.5,6.9,2.5,9.5,2.5s3.6-.8,4.7-2.2c1.1-1.4,1.7-3.1,1.4-4.9,0-.1,0-.4,0-.5,0-.2,0-.3,0-.5,0,0,0,0,0,0,0-.2,0-.6,0-1.3,0,0,0,0,0,0,0-.6,0-1.5,0-2.7v-9.3c1.9-.3,3.5-.9,4.8-1.9,2.5-1.8,3.9-4.5,3.9-7.7s0-2.9-1-4.9c-1-2.2-3.2-3.6-5.6-3.6h0Z"/>
    </g>
    <g>
      <path d="M71.2,99.5c0-8.5-3.7-14.2-12.2-14.2s-12.7,5.8-12.7,12.9,4,12.7,11.3,12.7,6-1.6,6.5-2.1v3.3c0,3.8-1.5,6.3-5.3,6.3s-3.2-.5-4.4-1.1c-1.1-.5-1.9-1.2-3.1-1.2-2.8,0-3.6,3.5-3.6,3.5,2.1,2.7,7,4.7,11.1,4.7,8,0,12.4-4.7,12.4-14,0,0,0-9.3,0-10.9M53.4,98.3c0-4.6,2.4-7,5.5-7s5.2,1.8,5.2,6.6-2.4,6.6-5.2,6.6-5.5-2-5.5-6.3"/>
      <path class="st0" d="M58.8,130.5c-6.2,0-12.7-2.9-16-7.2,0,0,0,0,0,0-2.4-3.2-.7-6.7-.2-7.8.7-1.4,1.7-2.6,2.8-3.6-.3-.4-.7-.7-1-1.1-2.8-3.4-4.3-7.9-4.3-12.7s1.7-9.9,4.8-13.3c3.5-3.8,8.3-5.8,14-5.8,11.4,0,18.4,7.8,18.4,20.4v10.9c0,6.2-1.6,11.1-4.8,14.6-2.3,2.5-6.5,5.5-13.8,5.5ZM59.7,99h0Z"/>
    </g>
  </g>
  <g>
    <path d="M98.4,109.2c-1.3,1.8-6.2,4.4-10.8,4.4-8.1,0-12.7-5.7-12.7-13.4s6.6-14.6,12.9-14.6,11.2,3.6,11.2,9.2-2.1,7.7-11.1,7.7-6-.5-6-.5c0,4.8,3.9,5.7,6.1,5.7s2.9-.4,3.9-.8c1-.4,1.9-.9,3.2-.9,2.4,0,3.2,3.3,3.2,3.3M82.2,97.1s1.6.6,5.9.6,4.5-1.2,4.5-3-1.5-3.2-4.5-3.2-5.9,3-5.9,5.5"/>
    <path d="M119.1,107.2c0,.3.2.8.2,1.8,0,2.8-2.5,4.6-5.9,4.6-6.9,0-10.5-4.9-10.5-12.5v-18.4c0-2.3.7-4,1.9-5,1.2-1,3.1-1.5,5.4-1.5,0,.3,0,.6-.1,1.1,0,.4,0,1,0,1.7,0,.7,0,1.7,0,2.8v3.7h7.9c0,1.8-.5,3.2-1.5,4.2-1,1.1-2.4,1.6-4.2,1.6h-2.2v8.3c0,1.6.1,3.2.4,4.3.3,1.1,1.9,3.7,4.9,3.7s2.9-.3,3.5-.4"/>
    <path d="M130.1,81.8c-.8,1.4-2,2.1-3.5,2.1s-1.2-.1-1.8-.4c-.6-.4-1.1-.8-1.4-1.4-.3-.6-.5-1.2-.5-1.9s.2-1.4.5-2c.4-.7.9-1.2,1.5-1.6.6-.4,1.3-.6,2-.6s1.2.2,1.7.5c.6.3,1.1.8,1.4,1.4.3.6.5,1.2.5,1.9s-.2,1.4-.5,2M134.5,107.7c-.6.2-1,.3-1.8.3-1.5,0-2.5-1.1-2.5-2.9v-13.3c0-1.2,0-2.1,0-2.8,0-.7,0-1.3,0-1.7,0-.5,0-.8.1-1.1-2.4,0-4.3.5-5.5,1.5-1.2,1-1.9,2.7-1.9,5v13.5c0,4.8,3,7.5,7,7.4,2.5,0,4.6-1.3,4.6-3.9s-.2-1.9-.2-1.9"/>
    <path d="M137.7,98.8c0-2.6.4-4.7,1.1-6.4.8-1.7,1.7-3,3-3.9,1.2-.9,2.6-1.6,4.1-1.9,1.5-.3,3-.5,4.5-.5h2.9c.3.6.4,1.7.4,2.3,0,2.5-2,3.3-4.3,3.5-4.1.3-4.4,3.3-4.4,5.6v9.7c0,1.2,0,2.1,0,2.8,0,.7,0,1.3,0,1.7,0,.5,0,1.1.1,1.4-2.4,0-4.2,0-5.7-1.2-1.4-1.1-1.7-3.3-1.7-5.6v-7.6Z"/>
    <path d="M71.1,99.7c0-8.5-3.7-14.2-12.2-14.2s-12.7,5.8-12.7,12.9,4,12.7,11.3,12.7,6-1.6,6.5-2.1v3.3c0,3.8-1.5,6.3-5.3,6.3s-3.2-.5-4.4-1.1c-1.1-.5-1.9-1.2-3.1-1.2-2.8,0-3.6,3.5-3.6,3.5,2.1,2.7,7,4.7,11.1,4.7,8,0,12.4-4.7,12.4-14,0,0,0-9.3,0-10.9M53.3,98.5c0-4.6,2.4-7,5.5-7s5.2,1.8,5.2,6.6-2.4,6.6-5.2,6.6-5.5-2-5.5-6.3"/>
  </g>
</svg>