<?xml version="1.0" encoding="UTF-8"?>
<svg id="Layer_1" xmlns="http://www.w3.org/2000/svg" version="1.1" viewBox="0 0 200 200">
  <!-- Generator: Adobe Illustrator 29.5.1, SVG Export Plug-In . SVG Version: 2.1.0 Build 141)  -->
  <defs>
    <style>
      .st0 {
        fill: #fffdfd;
      }

      .st1 {
        fill: #fff;
      }
    </style>
  </defs>
  <g>
    <path d="M69.1,135.2h-.3c-2.1-.2-3.8-1.9-3.9-3.9v-62.5c0-.4.1-.8.2-1.1.5-1.2,1.5-2.2,2.7-2.6.3-.1.7-.2,1-.2h62.4c2,.1,3.7,1.8,3.9,3.9v62.2c0,2.3-2,4.2-4.2,4.2h-61.8ZM120.8,101.4h2.5c-.1-.4-.3-.8-.4-1.2-.3-.8-.6-1.5-.8-2.3l-1.2,3.6Z"/>
    <path class="st1" d="M131,67.9c.6,0,1,.6,1.1,1.1v61.8c0,.6-.6,1.2-1.2,1.2h-61.8c-.6,0-1.1-.5-1.1-1.1v-62.2c.2-.4.5-.7.8-.8h62.2M116.7,107.4c.5,0,1,0,1.2,0,0,0,.2,0,.2-.1.2-.2.6-2,.8-2.4,0-.1,0-.2.2-.3h5.4s0,0,0,0c0,0,.1,0,.2,0,.3.2.7,2.1,1,2.5.1.2.2.3.5.3.2,0,.6,0,1,0s.8,0,1.1,0c0,0,.3,0,.3,0,0-.1-.1-.6-.1-.7-1.5-4.6-3.3-9.2-4.8-13.8,0-.1-.1-.2-.3-.2-.2,0-.7,0-1.1,0s-1.1,0-1.4,0c0,0-.2,0-.2,0l-5.1,14.6c0,0,.2.1.3.1.2,0,.6,0,1,0M73.6,107.4c.6,0,1.2,0,1.3,0,0,0,.1,0,.1-.1v-6.1c0-.2.1-.4.3-.4s0,0,0,0c.3,0,.7,0,1,0,1.1,0,2.2,0,3.2,0s.8,0,1.2,0c0,0,.1,0,.2,0,.2.2,0,5.7.1,6.4,0,.2.2.2.4.2h.8c.6,0,1.2,0,1.3,0,0,0,.1,0,.1-.1v-14.4c0-.1,0-.2-.2-.2h-.3c-.4,0-.9,0-1.4,0s-.7,0-.8,0c0,0,0,.2,0,.3-.1,1.6.1,3.5,0,5.1,0,.2-.1.2-.3.2s0,0,0,0h-5.6c-.1-.1-.2-.2-.2-.4v-5.2c0,0-.1-.1-.2-.1-.2,0-.6,0-1,0s-.9,0-1.1,0c-.1,0-.2,0-.3.1v14.6c.1,0,.2,0,.3,0h.9M100.3,107.4c.4,0,.8,0,1,0,.1,0,.3,0,.4-.2v-10.2l.4.8,3.4,9.1s0,0,.1.1c0,0,.6,0,1,0h.5c.3,0,.4-.1.5-.4l3.6-9.8v10.1s.1.2.1.2c0,0,.3,0,.6,0,.5,0,1,0,1.4,0s.2,0,.3,0c.1,0,.2-.1.2-.2v-14.2c0-.2,0-.3-.2-.3h-.6c-.6,0-1.2,0-1.8,0s-.5,0-.7,0c-.2,0-.3,0-.4.2l-3.6,9.7h-.1c0,.1-3.6-9.7-3.6-9.7l-.2-.2h-.2c-.7,0-1.5,0-2.3,0s-.5,0-.8,0c-.3,0-.3,0-.4.4v14.1c0,.2.1.3.4.3s.6,0,1,0M89.1,107.5c1.8,0,3.6-.1,5.3-.1s1.2,0,1.7,0h0c.1,0,.3,0,.4-.2s0-1.8,0-2c0-.1,0-.2-.1-.3h-6.7c-.1,0-.3,0-.3-.2.1-1.2-.1-2.6,0-3.7,0-.2,0-.2.3-.2s0,0,0,0h5.5c.2,0,.2-.2.2-.4,0-.4,0-1.4,0-1.7,0-.1,0-.3-.2-.3h-5.8c0,0,0-.2,0-.2v-2.9s.2-.1.2-.1h6.7c.1,0,.2-.1.2-.3,0-.4,0-1.4,0-1.8,0,0,0-.2,0-.3s-.2,0-.3,0h-9.5c0,.1,0,14.7,0,14.7,0,0,.2,0,.3,0,.7,0,1.4,0,2.1,0M131,61.7h-62.2c-.7,0-1.4.1-2,.4-2.1.7-3.7,2.3-4.6,4.4-.3.7-.4,1.5-.4,2.3v62.2c0,.1,0,.3,0,.4.1,1.9,1,3.6,2.4,4.9,1.2,1.1,2.8,1.8,4.4,1.9.2,0,.4,0,.6,0h61.9c4,0,7.2-3.3,7.3-7.3h0v-61.9c0-.2,0-.4,0-.6-.1-1.6-.8-3.2-1.9-4.4-1.3-1.4-3-2.2-4.9-2.4h-.4Z"/>
  </g>
  <path d="M68.8,68h62.2c.6,0,1,.5,1.1,1.1v61.8c0,.6-.6,1.2-1.2,1.2h-61.8c-.6,0-1.1-.5-1.1-1.1v-62.2c.2-.4.5-.7.8-.8h0ZM81.1,92.7c0,0,0,.2,0,.3-.1,1.6.1,3.5,0,5.1,0,.2-.1.3-.3.2h-5.6c-.1-.1-.2-.2-.2-.4v-5.2c0,0-.1-.1-.2-.1-.5,0-1.7,0-2.1,0s-.2,0-.3.1v14.6c.1,0,.2,0,.3,0,.3,0,2,0,2.2,0s.1,0,.1-.1v-6.1c0-.2.1-.4.3-.4,1.8.1,3.7-.2,5.4,0,0,0,.1,0,.2,0,.2.2,0,5.7.1,6.4,0,.2.2.2.4.2.3,0,1.9,0,2.1,0s.1,0,.1-.1v-14.4c0-.1,0-.2-.2-.2-.4,0-2.3-.1-2.5,0h0ZM96.5,92.7c0,0-.2,0-.3,0h-9.5c0,.1,0,14.7,0,14.7,0,0,.2,0,.3,0,2.9.2,6.2-.2,9.1,0,.1,0,.3,0,.4-.2s0-1.8,0-2,0-.2-.1-.3h-6.7c-.1,0-.3,0-.3-.2.1-1.2-.1-2.6,0-3.7s.1-.2.3-.2h5.5c.2,0,.2-.2.2-.4,0-.4,0-1.4,0-1.7s0-.3-.2-.3h-5.8c0,0,0-.2,0-.2v-2.9s.2-.1.2-.1h6.7c.1,0,.2-.1.2-.3,0-.4,0-1.4,0-1.8s0-.2,0-.3h0ZM101.7,107.2v-10.2l.4.8,3.4,9.1s0,0,.1.1c.1,0,1.3,0,1.5,0s.4-.1.5-.4l3.6-9.8v10.1s.1.2.1.2c.2.2,1.9,0,2.3,0,.1,0,.2-.1.2-.2v-14.2c0-.2,0-.3-.2-.3-1,0-2.2,0-3.1,0s-.3,0-.4.2l-3.6,9.7h-.1c0,.1-3.6-9.7-3.6-9.7l-.2-.2c-1.1,0-2.3-.1-3.3,0s-.3,0-.4.4v14.1c0,.2.1.3.4.3.4,0,1.6,0,2,0s.3,0,.4-.2h0ZM128.5,107.3c0-.1-.1-.6-.1-.7-1.5-4.6-3.3-9.2-4.8-13.8,0-.1-.1-.2-.3-.2-.5,0-1.9,0-2.5,0s-.2,0-.2,0l-5.1,14.6c0,0,.2.1.3.1.4,0,1.9,0,2.2,0s.2,0,.2-.1c.2-.2.6-2,.8-2.4s0-.2.2-.3h5.4c0,0,.1,0,.2,0,.3.2.7,2.1,1,2.5s.2.3.5.3c.5,0,1.5,0,2,0s.3,0,.3,0h0Z"/>
  <path class="st0" d="M101.7,107.2c0,.1-.2.2-.4.2-.4,0-1.6,0-2,0s-.3,0-.4-.3v-14.1c0-.3,0-.3.4-.4,1,0,2.2,0,3.3,0l.2.2,3.6,9.8h.1c0-.1,3.6-9.9,3.6-9.9.1-.1.2-.1.4-.2,1,0,2.1,0,3.1,0,.2,0,.3.1.2.3v14.2c0,.1-.1.2-.2.2-.4,0-2.1.1-2.3,0s-.1-.2-.1-.2v-10.1l-3.6,9.8c-.1.3-.2.4-.5.4s-1.4,0-1.5,0,0,0-.1-.1l-3.4-9.1-.4-.8v10.2h0Z"/>
  <path class="st0" d="M81.1,92.7c.2-.2,2.1,0,2.5,0,.1,0,.2.1.2.2v14.4c0,0-.1.1-.2.1-.2,0-1.8,0-2.1,0s-.3,0-.4-.2c-.2-.7.1-6.2-.1-6.4s-.1,0-.2,0c-1.7-.2-3.7.1-5.4,0-.2,0-.3.2-.3.4v6.1c0,0,0,0-.1.1-.2,0-1.9,0-2.2,0s-.2,0-.3,0v-14.6c0-.1.1-.1.2-.1.5,0,1.7,0,2.1,0s.2,0,.2.1v5.2c0,.1,0,.2.2.3h5.6c.2,0,.3,0,.3-.2.1-1.7-.1-3.5,0-5.1s0-.2,0-.3h0Z"/>
  <path class="st0" d="M96.5,92.7c0,0,0,.2,0,.3,0,.4,0,1.4,0,1.8s0,.2-.2.3h-6.9v3s0,.2,0,.2h5.8c.1.1.2.2.2.4,0,.3,0,1.4,0,1.7s0,.4-.2.4h-5.5c-.2,0-.3,0-.3.2-.1,1.1.1,2.5,0,3.7,0,.2.1.2.3.2h6.7c.1,0,.1.2.1.3,0,.2,0,1.9,0,2s-.3.2-.4.2c-3-.2-6.2.2-9.1,0s-.2,0-.3,0v-14.6c0,0,0-.1,0-.1h9.4c0,0,.2,0,.3,0h0Z"/>
  <path class="st0" d="M128.5,107.3s-.2,0-.3,0c-.5,0-1.5,0-2,0s-.4,0-.5-.3c-.2-.4-.6-2.4-1-2.5s-.1,0-.2,0h-5.4c-.1,0-.2.2-.2.3-.2.4-.6,2.2-.8,2.4s-.2.1-.2.1c-.3,0-1.8,0-2.2,0s-.2,0-.3-.1l5.1-14.6c0,0,.1,0,.2,0,.6,0,2,0,2.5,0s.2,0,.3.2c1.5,4.6,3.3,9.2,4.8,13.8,0,.2.2.6.1.7h0ZM120.1,102.1h3.7c0,0,.1-.2,0-.3l-1.9-5.5h-.1c-.6,2-1.3,3.9-1.9,5.8h.1c0,.1,0,.1,0,.1Z"/>
  <path d="M120.1,102.1s-.1,0-.1-.1c.6-1.9,1.3-3.7,1.9-5.6h.1c0-.1,1.9,5.4,1.9,5.4,0,0,0,.3,0,.3h-3.7Z"/>
</svg>