<?xml version="1.0" encoding="UTF-8"?>
<svg id="Layer_1" xmlns="http://www.w3.org/2000/svg" version="1.1" viewBox="0 0 200 200">
  <!-- Generator: Adobe Illustrator 29.5.1, SVG Export Plug-In . SVG Version: 2.1.0 Build 141)  -->
  <defs>
    <style>
      .st0 {
        fill: #fff;
      }
    </style>
  </defs>
  <path class="st0" d="M71.6,136.8c-1.6,0-2.9-1.2-3-2.8l-5.4-67.6c0-.8.2-1.7.8-2.3.6-.6,1.4-1,2.2-1h67.6c.8,0,1.7.4,2.2,1,.6.6.9,1.5.8,2.3l-5.4,67.6c-.1,1.6-1.5,2.8-3,2.8h-56.8Z"/>
  <g>
    <path d="M133.8,62.7h-67.6c-1,0-1.9.4-2.6,1.1-.7.7-1,1.7-.9,2.6l5.4,67.6c.1,1.8,1.7,3.2,3.5,3.2h56.9c1.8,0,3.3-1.4,3.5-3.2l5.4-67.6c0-1-.3-1.9-.9-2.6-.7-.7-1.6-1.1-2.6-1.1M133.8,63.6c1.5,0,2.7,1.3,2.6,2.8l-5.4,67.6c-.1,1.3-1.2,2.4-2.6,2.4h-56.9c-1.4,0-2.5-1-2.6-2.4l-5.4-67.6c-.1-1.5,1.1-2.8,2.6-2.8h67.6Z"/>
    <path class="st0" d="M128.4,143.4h-56.9c-5,0-9.1-3.9-9.5-8.8l-5.4-67.6c-.2-2.6.7-5.3,2.5-7.2s4.4-3.1,7-3.1h67.6c2.7,0,5.2,1.1,7,3.1,1.8,1.9,2.7,4.6,2.5,7.2l-5.4,67.6c-.4,4.9-4.6,8.8-9.5,8.8h0ZM74.8,130.3h50.4l4.8-60.6h-60.1l4.8,60.6Z"/>
  </g>
  <path d="M133.8,62.7h-67.6c-1,0-1.9.4-2.6,1.1-.7.7-1,1.7-.9,2.6l5.4,67.6c.1,1.8,1.7,3.2,3.5,3.2h56.9c1.8,0,3.3-1.4,3.5-3.2l5.4-67.6c0-1-.3-1.9-.9-2.6-.7-.7-1.6-1.1-2.6-1.1M133.8,63.6c1.5,0,2.7,1.3,2.6,2.8l-5.4,67.6c-.1,1.3-1.2,2.4-2.6,2.4h-56.9c-1.4,0-2.5-1-2.6-2.4l-5.4-67.6c-.1-1.5,1.1-2.8,2.6-2.8h67.6Z"/>
  <path d="M91.3,96.5c0,.9.6,3.4,3.7,5.7,1.3,1,1.9,1.4,2.1,1.5h0c0,0-.5,0-.6,0-.2,0-1.1,0-1.7,0-.6.1-.5.3-.6.7,0,.3,0,.9,0,1.4s0,.8.2,1c.2.2.3.3,1.2.2.8,0,3,0,3.2-.1.3,0,.3,0,0,.5-.3.7-1.4,4-3.1,7.1-.2.4.4.2,1,.5,1,.5,1,.6,1.3.1.3-.6,1.8-4,2-5.1,0-.1,0-.3.1,0,0,.2,0,4.5,0,5.9,0,0,0,.1,0,.2s.2.1.3.1h0c.5-.2,1.1-.3,1.7-.2,0,0,0,0,.1,0h0c0-.2,0-.2,0-.3h0c0-.1,0-.2,0-.4v-2.4c0-.2,0-.3,0-.5,0-.2,0-.4,0-.5,0-.2,0-.4,0-.6,0-.2,0-.4,0-.6,0-.2,0-.4,0-.6,0-.2,0-.4,0-.6,0-.2,0-.4,0-.6,0-.2,0-.3-.1-.4,0-.2,0-.3-.1-.5,0-.2,0-.3-.1-.5,0-.1,0-.3-.1-.4,0,0,0-.2,0-.2,0,0,.1,0,.2,0h0c.6,0,1.5,0,1.8,0,.2,0,1.3.1,1.6.1s.7.1.7-.8v-.6h0v-.3h0v-.2h0v-.2h0v-.2h0v-.2c0-.2,0-.6-.5-.8-.5-.1-1.4-.2-2.2,0-.1,0-.1,0-.1,0h0c.2-.1,1.3-.8,2.6-1.9,1.4-1.3,2.1-2,2.6-2.9,0,0,1.6-3.1,1.5-5.6,0-.5,0-.5.4-.5.1,0,.5,0,.7-.2.7-.2,1.3-2.4,1.3-2.4,0,0,1-3.5,1.3-4.9.2-1.3.2-2-.6-2.4h-.1c0-.1,0-.2,0-.2,0,0,0-.1,0-.2.4-1.3,1.1-3,.9-3.6,0-.2-.2-.3-.2-.3,0,0-.4-.4-.5-.6h0c-.2-2.6-1.1-5.7-3.7-8.3,0,0-.2-.2-.3-.3-.2-.2-.5-.4-.8-.7-.7-.5-1.3-.9-2.4-1.5,0,0-1-.4-2.2-.7-.1,0-.2,0-.4-.1-.2,0-.5-.1-.8-.1-.8-.1-1.6-.2-2.5-.1h-.6c-.2,0-.4,0-.7,0-.4,0-.9.1-1.2.2-.3,0-.7.2-1.3.3-.2,0-.4.1-.6.2,0,0-.1,0-.2,0-.2,0-.5.2-.7.2-.2,0-.9.4-1.1.5,0,0-.2,0-.3.1-.5.2-.6.5-.6.6,0,.1,0,.2,0,.3-.7,1.6-2.5,1.8-3.2,1.8-.2,0-.3,0-.3.2.1.5,1,1.3,1.5,1.5,0,0-.4.2-.5.2-.2,0-1,0-1.1,0h0c-1,0-1.2.7-1.3,1,0,.1,0,.2,0,.3.2.3.4.6.6,1h0c0,.1,0,.2.1.4,0,.2.2.4,0,.7-.3.6-1.1.8-1.3,1.5-.2.9.1,1.5.5,2.9.2,1,.5,2,.6,2.5,0,0,0,0,0,0,0,0-.2,0-.2,0-.5.2-.6.5-.7,1.3-.1,1.6,1.1,4.1,1.4,6.2.1.7.4,1.9,1,2.3.1.1.4.2.5.2.4,0,.6-.2.6.2,0,0,0,.3,0,.5,0,1.5.9,3,.9,3M92.1,71.1c.1-.1.3-.3.5-.5.2-.2,1.4-1,2.5-1.4.2,0,.2,0,.4-.1.2,0,.3-.4,0-.4s-.5,0-.7,0-.3-.1-.1-.2c.1-.1.4-.3.8-.5,1-.4,2.7-.6,3.5-.6,1,0,1.2,0,1.8,0,.6,0,1.1.2,1.4.2,1.2.2,2.5.8,3.8,1.4.6.4,1.3.8,1.8,1.3,1.7,1.4,3.7,3.9,3.5,9.4,0,.6-.1,1-.2,1.2,0,.2-.2.4-.4,0-.4-1.2-.8-3.2-1.9-4.8-.1-.2-.4-.2-.3,0,0,.1,0,1.1,0,1.3-.2,1.3.2.8.8,2.2.2.4.4,1.3.5,1.9,0,.1,0,.3,0,.5s-.1.2-.1.2c-.4,0-1.1-.2-1.5-.2s-3.5,0-4.6,0-1.8.5-2.4,1c-.1,0-.3.2-.3.2,0,0-.1,0-.1,0,0,0-.1,0-.3,0-.3,0-.6,0-.9,0-.3,0-.4.2-.7,0-.4-.2-1.1-1.2-3.3-1.3-1.3,0-3,0-3.9,0-.3,0-.5,0-.6,0h0c0-1.9,1.2-1.5,1.3-2,.3-1.2.4-4,2.5-5.7,1-.8,1.5-.9,2.4-.9s1.9.3,2.4.5c.4.2.6.3.7.2.2-.1.6-.5.7-.6.2-.1.1-.3,0-.5-.2-.1-1.6-1.9-3.8-2.3-.5,0-.9-.2-1.4-.2s-.5,0-1.1,0c-.8.1-2,.6-2.7.9,0,0,.1-.3.2-.3M109.6,82.9c-.1.1-.2,0-.4,0-.1,0-.2.1-.4.1-.2,0-.3-.3-.2-.4.2-.3.4,0,.6,0,.1,0,.2,0,.3,0,.1,0,.1.1,0,.2M106.5,83.8s-.4-.3-.5-.5c0-.1,0-.2.1-.2.6,0,1.2,0,1.4.2.2.2.2.5.1.7-.1.3-.3.2-.5.2-.1,0-.7-.4-.7-.4M106.8,84.9c-.1,0-.5,0-.7-.2-.2-.1-.4-.2-.7-.5-.2-.2-.6-.3-1-.2-.3,0-.6,0-.8.1-.2,0-.2-.1-.2-.2,0,0,.4-.3,1-.5.1,0,.3,0,.4,0,.3,0,.6.2.8.4.2.2.7.6,1,.8.1,0,.4.2.1.3M97.5,89.4c0,.1,0,.3,0,.4s-.4.2-.7-.2c-.3-.5-.2-1,0-1.3.3-.4.7-.1.7,0-.2.5-.1.9,0,1M93.1,84.2c0,0,.1,0,.4-.2.2-.1.4-.2.6-.4.4-.2,1.1-.5,1.4-.5s.6.1.8.3.3.5,0,.4c-.3,0-.6-.1-1.1,0-.6.1-1,.4-1.3.5-.3.1-.6.2-.7.2s-.4-.1,0-.4M92.8,83.7c-.3.2-.5.4-.8.5-.3.2-.6,0-.5-.3,0-.2.3-.6.7-.7,0,0,.3,0,.4,0,.2,0,.4,0,.5,0,.3,0,.3.2.1.3-.1,0-.3.2-.5.3M88.1,77.9c.2-.7.7-1.2,1-1.6.3-.4.1-.8,0-1.3-.1-.4-.3-.8-.4-.9,0,0,0-.1,0-.2,0,0,0,0,0,0h.5c1.5-.2,2.9-.8,3.3-1,.2-.1.4-.2.6-.3.3,0,.5-.2.8-.2.2,0,.4,0,.6,0,.3,0,.8.2.7.2-.3.2-1.4.4-2.5,1.7-.6.8-.8,1.2-1,1.6-.2.3-.4.4-.7.7-.1.1-.5.4-.6.8-.2.4-.7,1.9-.8,4.3,0,.3,0,.6-.3.7h0c-.2,0-.4.2-.4,0-.1-.5-.5-1.7-.6-2.4,0-.2-.1-.4-.1-.7-.1-.6-.2-1.2-.1-1.5M89.4,89.2c-.4-.3-.4-.7-.5-1.1-.2-.8-.5-1.8-.7-2.6-.1-.5-.2-1.6.5-1.6s.6.1.7.4c.2.7-.2.6-.1,1.4,0,.6.2,1.2.4,2.2,0,.5.2,1.6-.2,1.3M91.1,83.1c-.1,0-.2,0-.4-.1-.2,0-.3,0-.3,0,0-.1,0-.2,0-.2.1,0,.2,0,.3,0,.2,0,.4-.3.6,0,.1.2,0,.4-.2.4M91.4,87.9c0-.3,0-.6.7-.3.1,0,.4.2.7.3.2,0,.3,0,.4-.2,0-.1.2-.4,0-.5-.3-.1-1-.3-1.3-1.2,0-.2,0-.4.2-.4.1,0,.2,0,.4.1.1.1.4.4.6.4s.3,0,.3-.1c.2-.2.7-1,1.8-.8.5,0,.9.2,1,.2s.4,0,.7,0c.3,0,.8-.2.6.1-.2.2-.4.3-.2.6,0,0,0,0,0,0,.2.2.2.5,0,.7h0c-.2.3-.7.7-1.8.8-.5,0-.5,0-.5.3v.2c0,.1.1.2.4.2.2,0,.7,0,.7,0,.1,0,.2,0,.2.1h0c-.2.4-.3.7-.3.8,0,.1-.1.3-.2.3h0c-.2,0-.8.2-1.3.6-.5.4-1.5.7-1.9.2-.4-.5-.8-1.6-1-2.4M95.9,99.5c-.9,0-3.1-1.3-4.1-5.2-.3-1,.4-1.8.8-1.9.2,0,.3-.1.4-.1s.5,0,.5.4.3,3.4,1.1,4.4c.2.3.4.3.5,0,0-.2.2-.5.3-.6,0,0,.3-.5.4-.2.2.7.6,2.2.8,2.5.3.6-.2.6-.5.6M96.5,93.2c-1.1,0-1.7-.4-1.7-.6,0-.1,0-.2.2-.3.3,0,.7-.3.9-.5.2-.1.7-.5,1-.6.1,0,.8-.4,1.3-.1.6.4,1.2.7,2.3.7.7,0,.7-.6,1.3-.8.5-.2.6-.3.8-.4.2,0,.4-.1.6.1.3.3.4.5.7.8.4.5,1,.7,1.1.8.2,0,.3.2.3.2,0,0,0,.2-.5.3-1.5.4-3.2.2-4-.2-.4-.2-.8-.2-1.3,0-.5.2-1.8.4-2.8.4M102.2,94.1c-.3.1-1,.3-1.4.3s-1.5.1-1.7,0c-.2,0-.6-.1-.8-.4,0,0-.1-.2.1-.2.4,0,1.1-.2,3.4,0,.2,0,.4,0,.4,0s.3.1,0,.2M112.1,85.2c-.3,1.6-.6,2.4-.9,3.5-.2,1.1-.7,2.6-1.1,2.6-.4.1-.6-.4-.9,0-.2.2-.3.5-.4.7-.1.1-.2.4-.2.5,0,.3,0,1.2-.3,2.5-.4,1.9-1.1,3.2-1.9,4.1-1.4,1.7-2.8,1.9-2.9,2s-.5,0-.6,0-.2-.2-.4-.3c-.2-.2-.2,0-.3.2,0,0,.1.8-.1,1.2-.4.8-.8.8-1.1,1.8,0,.3,0,.8-.4.6-.9-.5-2.3-2-2.5-3.4,0-.4,0-.9.3-1.7.1-.5.3-1,.3-1.3,0-.5-.2-1,0-1.1.4,0,.6.9.7.8.3-.2,0-1.3,0-1.3,0,0-.1-.3-.7-.4-.3,0-.4-.3,0-.5.3-.1.5-.3.9-.2,2.3.3,3-.1,3.9-.4.2,0,.3,0,.4,0s.5.3.6.5c0,.2,0,1,.1,1.5s.5,0,.6-.2c.1-.2.2-.8.2-.9s.1-.7.4-.9c.4-.3.6-.8.6-1,0-.2.2-.7.2-1.6,0-.8-.2-.9-.4-1.1s-.4-.1-.9-.6c-.4-.4-.8-1.1-1.1-1.5-.3-.4-.8-.8-1.5-1-.6-.1-.3.4-.3.6,0,.1.2.6,0,.8s-1.4,1-2.5.7c-1.3-.3-1.7-1.1-1.8-1.8,0-.5.2-1,.5-1.5.2-.3.2-.9.3-1.4,0-.4.2-1,.3-1.3,0-.2.2-.3.6-.3.3,0,.6.2.6.5.2,1.1.6,1.3.7,1.4s.4,0,.4-.1c.1,0,.3-.3.3-.4-.1-.2-.2-.3-.2-.4,0-.2.2-.2.3-.1.4.3.8.3,1.5.5,1.2.2,1.4-.2,2.2-.1.1,0,.3.1.4.2,0,.1.2.4.3.4s.3,0,.5,0c.2,0,.5,0,.4.3-.1.9-1.2,1.1-1.6,1.2-.2,0-.3,0-.3,0-.1,0-.1.4,0,.5,0,.1.5.1,1,0,.5-.1,1.1-.4,1.5-1,.4-.7.7-2.2.7-2.5,0-.3.2-.7.3-.8.2-.1.9-.3,1-.3.1,0,.2,0,.3.4,0,.3,0,1.9,0,2.2,0,.3.1.3.2.2.2,0,.6-.4.7-.7,0-.3-.1-.6,0-1,.2-.5.3-.7.4-.7.7,0,.8.4.7,1.3M121.9,119.3c.2,0,.3.3.3.5l-.7,3.3c0,.2-.2.3-.3.3h-1c-.2,0-.3-.2-.3-.4h0c0-1.1-.6-1.9-2.1-1.9-2.5,0-4.3,2.1-4.6,4.8-.2,2.8,1.7,4.4,4.4,4.4s2.5-.3,3.1-.5c.2,0,.5.1.4.4l-.3,1.7c0,.1-.1.3-.3.3-.5.2-2.1.6-4.5.6-5.7,0-8-3.3-7.6-6.6.3-3,2.3-7.3,10-7.3s2.7.2,3.6.5M89.9,119.3c0-.2.2-.3.4-.3h5.6c.2,0,.4.2.3.4l-.2.8c0,.1-.2.2-.3.3h0c-.4,0-1.2.2-1.8.7l-4.6,3.9h0l3.6,4.8c.7.9,1,1.1,1.7,1.1s.4.2.3.4l-.2.9c0,.2-.2.3-.3.3h-2.8c-3.1,0-3.9-1.4-6.5-6h0l-.7,3.4c-.1.5.3.8.7,1h0c.2,0,.2.2.2.4l-.2,1c0,.2-.2.3-.3.3h-6.4c-.2,0-.4-.2-.3-.4l.2-.8c0-.2.2-.3.3-.3h0c.6,0,1.2-.4,1.6-2.3l1.5-6.7c.2-.9-.3-1.2-.6-1.4,0,0,0,0,0,0-.2,0-.3-.2-.2-.4l.2-.9c0-.2.2-.3.4-.3h6.1c.2,0,.4.2.3.4l-.2.9c0,.1-.1.2-.2.3h0c-.3.1-.7.3-.9.9l-.8,3.7h0l4.8-3.9c.3-.2.2-.5-.1-.7h0c-.2,0-.3-.2-.3-.4l.2-.8M107,123c-.2,0-.4-.2-.3-.4h0c0-.9-.2-1.4-1.2-1.4h-3l-.8,3.6h4.2c.2,0,.4.2.3.4l-.4,1.8c0,.2-.2.3-.3.3h-4.4s-.5,2.2-.5,2.3c-.2.7.3,1.1.6,1.2,0,0,0,0,0,0,.1,0,.2.2.2.4l-.2,1c0,.2-.2.3-.3.3h-5.1c-.2,0-.4-.2-.3-.4l2.2-10.1c.2-.9-.3-1.3-.7-1.4h0c-.2,0-.3-.2-.2-.4l.2-.9c0-.2.2-.3.4-.3h11.4c.2,0,.4.2.3.4l-.7,3.3c0,.2-.2.3-.3.3h-1.1"/>
  <g>
    <path d="M81.8,65.5h-15c-.7,0-1.3.6-1.3,1.4l3.8,48.3h12.4v-49.6Z"/>
    <path d="M133.2,65.8h-15v49.6h12.4l3.8-48.3c0-.7-.5-1.4-1.3-1.4Z"/>
  </g>
</svg>