<?xml version="1.0" encoding="UTF-8"?>
<svg id="Layer_1" xmlns="http://www.w3.org/2000/svg" version="1.1" viewBox="0 0 200 200">
  <!-- Generator: Adobe Illustrator 29.5.1, SVG Export Plug-In . SVG Version: 2.1.0 Build 141)  -->
  <defs>
    <style>
      .st0 {
        fill: #fff;
      }
    </style>
  </defs>
  <rect class="st0" x="71.1" y="85.8" width="71.5" height="24.4"/>
  <g>
    <g>
      <polygon points="58.8 88 63.7 101.5 63.7 88 67.4 88 67.4 110.6 63.3 110.9 59 98.6 59 111.5 55.2 112 55.2 88 58.8 88"/>
      <path class="st0" d="M67.4,88v22.6l-4.1.4-4.4-12.4v12.9l-3.8.5v-24h3.5l4.9,13.5v-13.5h3.8M67.4,84.9h-3.8c-1,0-1.9.5-2.5,1.2-.6-.8-1.5-1.2-2.5-1.2h-3.5c-1.7,0-3.1,1.4-3.1,3.1v24c0,.9.4,1.7,1.1,2.3.6.5,1.3.8,2,.8s.3,0,.4,0l3.8-.5c.8-.1,1.6-.6,2.1-1.2.5.4,1.2.7,1.9.7s.2,0,.3,0l4.1-.4c1.6-.1,2.8-1.5,2.8-3.1v-22.6c0-1.7-1.4-3.1-3.1-3.1h0Z"/>
    </g>
    <g>
      <polygon points="135.5 88 137.9 94.3 140.7 88 144.8 88 139.9 99.4 144.8 112 144.6 112 140.5 111.4 137.7 104.4 134.9 110.8 131 110.4 135.7 99.3 131.4 88 135.5 88"/>
      <path class="st0" d="M144.8,88h0M144.8,88l-4.9,11.4,4.9,12.6h-.2s-4.2-.5-4.2-.5l-2.7-7-2.8,6.4-4-.4,4.8-11.1-4.3-11.3h4.1l2.4,6.3,2.8-6.3h4.1M144.8,84.9h-4.1c-1.1,0-2,.5-2.6,1.4-.6-.9-1.5-1.4-2.6-1.4h-4.1c-1,0-2,.5-2.5,1.3-.6.8-.7,1.9-.3,2.9l3.9,10.1-4.3,9.9c-.4.9-.3,1.9.2,2.8.5.8,1.4,1.4,2.4,1.5l4,.4c.1,0,.2,0,.3,0,1.1,0,2-.5,2.6-1.4h0c.4,1.2,1.3,1.9,2.5,2.1l4.2.6c.1,0,.3,0,.4,0,.2,0,.4,0,.6,0h.2c.9-.2,1.6-.8,2.1-1.6.4-.8.5-1.7.2-2.6l-4.4-11.4,4.4-10.2c.2-.4.3-.8.3-1.3,0-1.7-1.4-3.1-3.1-3.1h0ZM144.8,91.1h0Z"/>
    </g>
    <g>
      <path d="M81.6,88v3.8h-6.7v5c.3.2.8.1,1.1,0s.3,0,.4,0c1.2,0,2.4,0,3.5,0v3.7h-5.1v5.6l6.7-.4v3.8l-10.5.8v-22.2h10.5,0Z"/>
      <path class="st0" d="M81.6,88v3.8h-6.7v5c.2,0,.4.1.6.1s.3,0,.5,0c.1,0,.3,0,.4,0h.8c.7,0,1.4,0,2.1,0s.4,0,.7,0v3.7h-5.1v5.6l6.7-.4v3.8l-10.5.8v-22.2h10.5M81.6,84.9h-10.5c-1.7,0-3.1,1.4-3.1,3.1v22.2c0,.9.4,1.7,1,2.3.6.5,1.3.8,2.1.8s.1,0,.2,0l10.5-.8c1.6-.1,2.9-1.5,2.9-3.1v-3.8c0-.9-.4-1.7-1-2.3-.4-.4-1-.7-1.5-.8.5-.6.9-1.3.9-2.2v-3.7c0-.7-.3-1.5-.7-2,1.4-.3,2.4-1.5,2.4-3v-3.8c0-1.7-1.4-3.1-3.1-3.1h0Z"/>
    </g>
    <g>
      <polygon points="108.6 88 108.6 91.7 101.9 91.7 101.9 96.6 107 96.6 107 100.3 101.9 100.3 101.9 108.9 98.1 108.9 98.1 88 108.6 88"/>
      <path class="st0" d="M108.6,88v3.8h-6.8v4.8h5.1v3.7h-5.1v8.6h-3.8v-20.9h10.5M108.6,84.9h-10.5c-1.7,0-3.1,1.4-3.1,3.1v20.9c0,1.7,1.4,3.1,3.1,3.1h3.8c1.7,0,3.1-1.4,3.1-3.1v-5.5h2.1c1.7,0,3.1-1.4,3.1-3.1v-3.7c0-.7-.2-1.3-.6-1.9,1.3-.4,2.2-1.6,2.2-3v-3.8c0-1.7-1.4-3.1-3.1-3.1h0Z"/>
    </g>
    <g>
      <polygon points="95.7 88 95.7 91.7 91.8 91.7 91.8 109 88 109.1 88 91.7 84 91.7 84 88 95.7 88"/>
      <path class="st0" d="M95.7,88v3.8h-4v17.2h-3.8c0,.1,0-17.2,0-17.2h-4v-3.8h11.7M95.7,84.9h-11.7c-1.7,0-3.1,1.4-3.1,3.1v3.8c0,1.7,1.4,3.1,3.1,3.1h.9v14.3c0,.8.3,1.6.9,2.2.6.6,1.4.9,2.2.9s0,0,.1,0h3.8c1.7-.2,3-1.5,3-3.2v-14.2h.9c1.7,0,3.1-1.4,3.1-3.1v-3.8c0-1.7-1.4-3.1-3.1-3.1h0Z"/>
    </g>
    <g>
      <polygon points="114.8 88 114.8 105.5 121.3 105.9 121.3 109.6 111 109.1 111 88 114.8 88"/>
      <path class="st0" d="M114.8,88v17.5l6.5.4v3.7l-10.3-.5v-21.1h3.8M114.8,84.9h-3.8c-1.7,0-3.1,1.4-3.1,3.1v21.1c0,1.6,1.3,3,2.9,3.1l10.3.5h.2c.8,0,1.6-.3,2.1-.9.6-.6,1-1.4,1-2.2v-3.7c0-1.6-1.3-3-2.9-3.1l-3.6-.2v-14.6c0-1.7-1.4-3.1-3.1-3.1h0Z"/>
    </g>
    <g>
      <polygon points="128.2 88 128.2 110.1 124.4 109.8 124.4 88 128.2 88"/>
      <path class="st0" d="M128.2,88v22.1l-3.8-.3v-21.8h3.8M128.2,84.9h-3.8c-1.7,0-3.1,1.4-3.1,3.1v21.8c0,1.6,1.2,2.9,2.8,3.1l3.8.3c0,0,.2,0,.3,0,.8,0,1.5-.3,2.1-.8.6-.6,1-1.4,1-2.3v-22.1c0-1.7-1.4-3.1-3.1-3.1h0Z"/>
    </g>
  </g>
  <g>
    <polygon points="58.8 88 63.7 101.5 63.7 88 67.4 88 67.4 110.6 63.3 110.9 59 98.6 59 111.5 55.2 112 55.2 88 58.8 88"/>
    <polygon points="135.5 88 137.9 94.3 140.7 88 144.8 88 139.9 99.4 144.8 112 144.6 112 140.5 111.4 137.7 104.4 134.9 110.8 131 110.4 135.7 99.3 131.4 88 135.5 88"/>
    <path d="M81.6,88v3.8h-6.7v5c.3.2.8.1,1.1,0s.3,0,.4,0c1.2,0,2.4,0,3.5,0v3.7h-5.1v5.6l6.7-.4v3.8l-10.5.8v-22.2h10.5,0Z"/>
    <polygon points="108.6 88 108.6 91.7 101.9 91.7 101.9 96.6 107 96.6 107 100.3 101.9 100.3 101.9 108.9 98.1 108.9 98.1 88 108.6 88"/>
    <polygon points="95.7 88 95.7 91.7 91.8 91.7 91.8 109 88 109.1 88 91.7 84 91.7 84 88 95.7 88"/>
    <polygon points="114.8 88 114.8 105.5 121.3 105.9 121.3 109.6 111 109.1 111 88 114.8 88"/>
    <polygon points="128.2 88 128.2 110.1 124.4 109.8 124.4 88 128.2 88"/>
  </g>
</svg>