<?xml version="1.0" encoding="UTF-8"?>
<svg id="Layer_1" xmlns="http://www.w3.org/2000/svg" version="1.1" viewBox="0 0 200 200">
  <!-- Generator: Adobe Illustrator 29.5.1, SVG Export Plug-In . SVG Version: 2.1.0 Build 141)  -->
  <defs>
    <style>
      .st0 {
        fill: #fff;
      }
    </style>
  </defs>
  <rect class="st0" x="57.4" y="93.1" width="86.5" height="12.7"/>
  <g>
    <g>
      <path d="M126.4,88.1c-1.3,0-2.4,1.1-2.4,2.4v19c0,1.3,1.1,2.4,2.4,2.4s2.4-1.1,2.4-2.4v-19c0-1.3-1.1-2.4-2.4-2.4h0Z"/>
      <path class="st0" d="M126.4,88.1c1.3,0,2.4,1.1,2.4,2.4v19c0,1.3-1.1,2.4-2.4,2.4s-2.4-1.1-2.4-2.4v-19c0-1.3,1.1-2.4,2.4-2.4M126.4,83.9c-3.6,0-6.5,2.9-6.5,6.5v19c0,3.6,2.9,6.5,6.5,6.5s6.5-2.9,6.5-6.5v-19c0-3.6-2.9-6.5-6.5-6.5h0Z"/>
    </g>
    <g>
      <path d="M119.9,88.8c-.9-.9-2.4-1-3.3,0l-8.1,7.9-8.1-7.9c-.9-.9-2.4-.9-3.3,0-.9.9-.9,2.4,0,3.3l8.1,7.8-8.1,7.8c-.9.9-.9,2.4,0,3.3.5.5,1.1.7,1.7.7s1.2-.2,1.6-.7l8.1-7.9,8.1,7.9c.5.4,1.1.7,1.6.7s1.2-.2,1.7-.7c.9-.9.9-2.4,0-3.3l-8.1-7.8,8.1-7.8c.9-.9.9-2.4,0-3.3h0Z"/>
      <path class="st0" d="M118.2,88.1c.6,0,1.2.2,1.7.7.9.9.9,2.4,0,3.3l-8.1,7.8,8.1,7.8c.9.9.9,2.4,0,3.3-.5.5-1.1.7-1.7.7s-1.2-.2-1.6-.7l-8.1-7.9-8.1,7.9c-.5.4-1.1.7-1.6.7s-1.2-.2-1.7-.7c-.9-.9-.9-2.4,0-3.3l8.1-7.8-8.1-7.8c-.9-.9-.9-2.4,0-3.3.5-.5,1.1-.7,1.7-.7s1.2.2,1.6.7l8.1,7.9,8.1-7.9c.5-.4,1.1-.7,1.6-.7M118.2,83.9c-1.7,0-3.3.7-4.6,1.9l-5.2,5.1-5.2-5.1c-1.2-1.2-2.8-1.9-4.6-1.9s-3.5.7-4.7,2c-1.2,1.3-1.9,2.9-1.9,4.7,0,1.7.7,3.4,2,4.6l5,4.8-5,4.8c-1.3,1.2-2,2.9-2,4.6s.6,3.4,1.9,4.7c1.2,1.3,2.9,2,4.7,2s3.3-.7,4.6-1.9l5.2-5.1,5.2,5.1c1.2,1.2,2.8,1.9,4.6,1.9s3.5-.7,4.7-2c1.2-1.3,1.9-2.9,1.9-4.7,0-1.7-.7-3.4-2-4.6l-5-4.8,5-4.8c1.3-1.2,2-2.9,2-4.6s-.6-3.4-1.9-4.7c-1.2-1.3-2.9-2-4.7-2h0Z"/>
    </g>
    <g>
      <path d="M55.9,88.1c-6.6,0-11.9,5.3-11.9,11.9s5.3,11.9,11.9,11.9,11.9-5.3,11.9-11.9-5.3-11.9-11.9-11.9ZM55.9,107.2c-3.9,0-7.2-3.2-7.2-7.2s3.2-7.2,7.2-7.2,7.2,3.2,7.2,7.2-3.2,7.2-7.2,7.2Z"/>
      <path class="st0" d="M55.9,88.1c6.6,0,11.9,5.3,11.9,11.9s-5.3,11.9-11.9,11.9-11.9-5.3-11.9-11.9,5.3-11.9,11.9-11.9M55.9,107.2c3.9,0,7.2-3.2,7.2-7.2s-3.2-7.2-7.2-7.2-7.2,3.2-7.2,7.2,3.2,7.2,7.2,7.2M55.9,83.9c-8.9,0-16.1,7.2-16.1,16.1s7.2,16.1,16.1,16.1,16.1-7.2,16.1-16.1-7.2-16.1-16.1-16.1h0Z"/>
    </g>
    <g>
      <path d="M144.1,88.1c-6.6,0-11.9,5.3-11.9,11.9s5.3,11.9,11.9,11.9,11.9-5.3,11.9-11.9-5.3-11.9-11.9-11.9ZM144.1,107.2c-3.9,0-7.2-3.2-7.2-7.2s3.2-7.2,7.2-7.2,7.2,3.2,7.2,7.2-3.2,7.2-7.2,7.2Z"/>
      <path class="st0" d="M144.1,88.1c6.6,0,11.9,5.3,11.9,11.9s-5.3,11.9-11.9,11.9-11.9-5.3-11.9-11.9,5.3-11.9,11.9-11.9M144.1,107.2c3.9,0,7.2-3.2,7.2-7.2s-3.2-7.2-7.2-7.2-7.2,3.2-7.2,7.2,3.2,7.2,7.2,7.2M144.1,83.9c-8.9,0-16.1,7.2-16.1,16.1s7.2,16.1,16.1,16.1,16.1-7.2,16.1-16.1-7.2-16.1-16.1-16.1h0Z"/>
    </g>
    <g>
      <path d="M93,88.8c-.9-.9-2.4-1-3.3,0l-8.1,7.9-8.1-7.9c-.9-.9-2.4-.9-3.3,0-.9.9-.9,2.4,0,3.3l8.1,7.8-8.1,7.8c-.9.9-.9,2.4,0,3.3.5.5,1.1.7,1.7.7s1.2-.2,1.6-.7l8.1-7.9,8.1,7.9c.5.4,1.1.7,1.6.7s1.2-.2,1.7-.7c.9-.9.9-2.4,0-3.3l-8.1-7.8,8.1-7.8c.9-.9.9-2.4,0-3.3Z"/>
      <path class="st0" d="M91.3,88.1c.6,0,1.2.2,1.7.7.9.9.9,2.4,0,3.3l-8.1,7.8,8.1,7.8c.9.9.9,2.4,0,3.3-.5.5-1.1.7-1.7.7s-1.2-.2-1.6-.7l-8.1-7.9-8.1,7.9c-.5.4-1.1.7-1.6.7s-1.2-.2-1.7-.7c-.9-.9-.9-2.4,0-3.3l8.1-7.8-8.1-7.8c-.9-.9-.9-2.4,0-3.3.5-.5,1.1-.7,1.7-.7s1.2.2,1.6.7l8.1,7.9,8.1-7.9c.5-.4,1.1-.7,1.6-.7M91.3,83.9c-1.7,0-3.3.7-4.6,1.9l-5.2,5.1-5.2-5.1c-1.2-1.2-2.8-1.9-4.6-1.9s-3.5.7-4.7,2-1.9,2.9-1.9,4.7c0,1.7.7,3.4,2,4.6l5,4.8-5,4.8c-1.3,1.2-2,2.9-2,4.6s.6,3.4,1.9,4.7c1.2,1.3,2.9,2,4.7,2s3.3-.7,4.6-1.9l5.2-5.1,5.2,5.1c1.2,1.2,2.8,1.9,4.6,1.9s3.5-.7,4.7-2,1.9-2.9,1.9-4.7c0-1.7-.7-3.4-2-4.6l-5-4.8,5-4.8c1.3-1.2,2-2.9,2-4.6s-.6-3.4-1.9-4.7c-1.2-1.3-2.9-2-4.7-2h0Z"/>
    </g>
  </g>
  <g>
    <path d="M126.4,88.1c-1.3,0-2.4,1.1-2.4,2.4v19c0,1.3,1.1,2.4,2.4,2.4s2.4-1.1,2.4-2.4v-19c0-1.3-1.1-2.4-2.4-2.4h0Z"/>
    <path d="M119.9,88.8c-.9-.9-2.4-1-3.3,0l-8.1,7.9-8.1-7.9c-.9-.9-2.4-.9-3.3,0-.9.9-.9,2.4,0,3.3l8.1,7.8-8.1,7.8c-.9.9-.9,2.4,0,3.3.5.5,1.1.7,1.7.7s1.2-.2,1.6-.7l8.1-7.9,8.1,7.9c.5.4,1.1.7,1.6.7s1.2-.2,1.7-.7c.9-.9.9-2.4,0-3.3l-8.1-7.8,8.1-7.8c.9-.9.9-2.4,0-3.3h0Z"/>
    <path d="M55.9,88.1c-6.6,0-11.9,5.3-11.9,11.9s5.3,11.9,11.9,11.9,11.9-5.3,11.9-11.9-5.3-11.9-11.9-11.9ZM55.9,107.2c-3.9,0-7.2-3.2-7.2-7.2s3.2-7.2,7.2-7.2,7.2,3.2,7.2,7.2-3.2,7.2-7.2,7.2Z"/>
    <path d="M144.1,88.1c-6.6,0-11.9,5.3-11.9,11.9s5.3,11.9,11.9,11.9,11.9-5.3,11.9-11.9-5.3-11.9-11.9-11.9ZM144.1,107.2c-3.9,0-7.2-3.2-7.2-7.2s3.2-7.2,7.2-7.2,7.2,3.2,7.2,7.2-3.2,7.2-7.2,7.2Z"/>
    <path d="M93,88.8c-.9-.9-2.4-1-3.3,0l-8.1,7.9-8.1-7.9c-.9-.9-2.4-.9-3.3,0-.9.9-.9,2.4,0,3.3l8.1,7.8-8.1,7.8c-.9.9-.9,2.4,0,3.3.5.5,1.1.7,1.7.7s1.2-.2,1.6-.7l8.1-7.9,8.1,7.9c.5.4,1.1.7,1.6.7s1.2-.2,1.7-.7c.9-.9.9-2.4,0-3.3l-8.1-7.8,8.1-7.8c.9-.9.9-2.4,0-3.3Z"/>
  </g>
</svg>