<?xml version="1.0" encoding="UTF-8"?>
<svg id="Layer_1" xmlns="http://www.w3.org/2000/svg" version="1.1" viewBox="0 0 200 200">
  <!-- Generator: Adobe Illustrator 29.5.1, SVG Export Plug-In . SVG Version: 2.1.0 Build 141)  -->
  <defs>
    <style>
      .st0 {
        fill: #01a9e0;
      }

      .st1 {
        fill: #fff;
      }
    </style>
  </defs>
  <g>
    <g>
      <path class="st0" d="M90.6,121.2c-.8-.3-1.1-1-.8-1.8.8-1.9,2.3-4,3-5.9s0-.1,0-.2h-20.8c0,0-.4-.2-.5-.3-.8-.6-.5-2,.5-2.2h22s1.4-3,1.4-3c-1.4.4-2.9,0-3.2-1.6-.5.4-.9.8-1.4,1.1-3.2,1.9-6.5-.5-5-4.1s1.7-3.6,2.5-5,2.4-2.9,4.2-3.4,3.2-.4,3.7,1.2c.3-.3.3-.7.8-.9,1-.5,2.1.4,1.7,1.5-1.1,2.6-2.8,5.1-3.8,7.7-.3.8-.4,1.6.8,1.1.7-.3,1.5-1.2,1.9-1.8,1.6-2.6,2.7-5.8,4.3-8.4.7-1.1,2.3-.5,2.3.8.8-.6,1.7-1.2,2.8-1.3,3-.3,4.2,2.3,3.1,4.9-.6,1.5-1.6,3.4-2.4,4.8-1.1,1.9-3.1,3.4-5.3,3.7s-3-.2-3.4-1.6l-2.2,4.5h9.4l10.1-20.3h-10.3c-.2,0-.6-.3-.7-.4-.6-.8-.2-1.7.7-2h11.4c1.3-2.7,3.4-6.8,6.4-7.8s5.6.6,4.5,3.8c-.3.8-1,1.5-1.8.9s.5-2.7-1-2.7c-1.8,0-3.7,2.8-4.5,4.2-.3.5-.6,1-.8,1.6h20.8l2-4.1c.8-1.2,2.6-.4,2.2,1l-1.5,3h4.6c.1,0,.5.3.6.4.7.7.3,2-.7,2.1-1.8.2-3.8-.1-5.6,0h-.2c0,0-6,12.2-6,12.2-.5,1.2-1.8,3.9.8,2.5,3-1.6,6.1-6.2,7.8-9,.4-.6,1.3-2.5,1.7-2.8s1.2-.3,1.6.2c.4.5.3,1.2.4,1.8.4,2.8,2.1,5.1,2.4,7.9h0v2c-.1.1,0,.3,0,.5-.5,2.6-3,4.4-5.6,3.5s-2.8-4.1-1.3-6c.5-.7,1.8-1.5,2.4-.5.5.9-.4,1.6-.8,2.3-.4.8-.4,2,.7,2.1,2.3.3,2.5-2.5,2.1-4.2s-1.6-3.5-1.8-5.4c-.4.9-.9,1.8-1.5,2.6-1.8,2.7-5.6,7.3-8.9,7.8-1.4.2-2.6-.2-3.2-1.6,0-.2-.3-.8-.3-.9v-1.1c-.1,0-.1,0-.2,0-.5.4-1,.8-1.5,1.2-2.6,1.8-6.5,3.4-9.2,1-2,1-5.4,2.2-6.9-.1-.9-1.4-.3-2.7.3-4,1.2-2.5,2.5-4.9,3.7-7.4.8-1.3,2.7-.4,2.2,1-1.1,2.4-2.5,4.7-3.6,7.1s-1.2,2.5.8,2.1,2.3-.8,2.4-.9c0-.5,0-1,0-1.5.2-3,2.5-6.7,5.2-7.9,3.6-1.7,6.7.6,4.6,4.4-2.1,3.8-3.9,4.4-6.2,5.9,0,0,.4.1.5.1,2.9.2,6.1-2.3,8-4.3,2.9-3.1,4.8-7,6.6-10.8h-20.8l-10.1,20.3h16.5c.2,0,.6.3.7.5.5.8.1,1.7-.8,1.9h-17.7l-3.6,7.2c-.2.4-.5.5-.8.6h-.6c-.7-.2-1.1-.8-.9-1.5l3.1-6.1v-.2c0,0-9.4,0-9.4,0l-3.6,7.2c-.2.4-.5.5-.8.7h-.6ZM93.7,97.1c-2.6.3-3.7,3.2-4.7,5.2s-2,3.5.3,3.3c1.1-.1,2.6-1.3,3.2-2.2.7-1.5,1.6-3,2.2-4.4.4-1,.4-2-1-1.8h0ZM107.6,97.3c-.3-.3-.9-.2-1.3-.2-1,.2-2.2,1.1-2.8,1.9-.7,1.5-1.9,3.3-2.4,4.8-.6,1.8.7,2,2,1.4,2.5-1,3.2-4.4,4.5-6.6.2-.4.3-1.1,0-1.5h0ZM123.7,103.2c.7-.5,1.5-.9,2.1-1.5s3.1-2.7,3.2-3.9-1.1-.8-1.7-.4c-1.9,1.1-3.4,3.6-3.6,5.8h0Z"/>
      <path class="st1" d="M125.5,80c2.1,0,3.7,1.5,2.9,4.1-.2.6-.6,1.2-1.2,1.2s-.4,0-.6-.2c-1-.6.5-2.7-1-2.7h0c-1.8,0-3.6,2.9-4.4,4.2-.3.5-.6,1-.8,1.6h20.8l2-4.1c.3-.4.7-.6,1-.6.7,0,1.4.7,1.2,1.6l-1.5,3h4.6c.1,0,.5.3.6.4.7.7.3,2-.7,2.1-.4,0-.8,0-1.3,0-1.1,0-2.2,0-3.3,0s-.7,0-1,0h-.2c0,0-6,12.2-6,12.2-.4,1-1.3,2.9-.3,2.9s.6-.1,1.1-.4c3-1.6,6.1-6.2,7.8-9,.4-.6,1.3-2.5,1.7-2.8.2-.1.5-.2.7-.2s.7.1.9.4c.4.5.3,1.2.4,1.8.4,2.8,2.1,5.1,2.4,7.9h0v2c-.1.1,0,.3,0,.5-.4,2.1-2.2,3.7-4.3,3.7s-.9,0-1.4-.2c-2.6-.9-2.8-4.1-1.3-6,.3-.5,1-1,1.6-1s.6.1.8.5c.5.9-.4,1.6-.8,2.3-.4.8-.4,2,.7,2.1.1,0,.2,0,.3,0,2,0,2.2-2.6,1.8-4.2-.4-1.9-1.6-3.5-1.8-5.4-.4.9-.9,1.8-1.5,2.6-1.8,2.7-5.6,7.3-8.9,7.8-.2,0-.4,0-.6,0-1.1,0-2.1-.5-2.5-1.6,0-.2-.3-.8-.3-.9v-1.1h0c0,0,0,0-.1,0-.5.4-1,.8-1.5,1.2-1.6,1.2-3.8,2.2-5.9,2.2s-2.3-.4-3.3-1.2c-1.1.6-2.7,1.2-4.2,1.2s-2-.3-2.7-1.3c-.9-1.4-.3-2.7.3-4,1.2-2.5,2.5-4.9,3.7-7.4.3-.4.7-.6,1.1-.6.7,0,1.4.7,1.1,1.6-1.1,2.4-2.5,4.7-3.6,7.1-.4.9-1,2.2.2,2.2s.4,0,.6,0c.3,0,2.3-.8,2.4-.9,0-.5,0-1,0-1.5.2-3,2.5-6.7,5.2-7.9.8-.4,1.6-.6,2.3-.6,2.4,0,3.9,2,2.3,4.9-1.4,2.4-3.9,4.4-6.2,5.9,0,0,.4.1.5.1h.4c2.8,0,5.8-2.4,7.6-4.3,2.9-3.1,4.8-7,6.6-10.8h-20.8l-10.1,20.3h16.5c.2,0,.6.3.7.5.5.8.1,1.7-.8,1.9h-17.7l-3.6,7.2c-.2.4-.5.5-.8.6h-.6c-.7-.2-1.1-.8-.9-1.5l3.1-6.1v-.2c0,0-9.4,0-9.4,0l-3.6,7.2c-.2.4-.5.5-.8.7h-.6c-.8-.3-1.1-1-.8-1.8.8-1.9,2.3-4,3-5.9,0,0,0-.1,0-.2h-20.8c0,0-.4-.2-.5-.3-.8-.6-.5-2,.5-2.2h22s1.4-3,1.4-3c-.3,0-.6.1-.9.1-1.1,0-2-.5-2.2-1.7-.5.4-.9.8-1.4,1.1-.8.5-1.6.7-2.3.7-2.2,0-3.8-2-2.7-4.8.6-1.5,1.7-3.6,2.5-5,.9-1.6,2.4-2.9,4.2-3.4.5-.1,1-.2,1.5-.2,1,0,1.9.4,2.3,1.4.3-.3.3-.7.8-.9.2-.1.4-.2.6-.2.8,0,1.4.8,1.1,1.7-1.1,2.6-2.8,5.1-3.8,7.7s-.4,1.3.2,1.3.3,0,.5-.1c.7-.3,1.5-1.2,1.9-1.8,1.6-2.6,2.7-5.8,4.3-8.4.3-.4.6-.6,1-.6.6,0,1.3.5,1.2,1.3.8-.6,1.7-1.2,2.8-1.3h.4c2.7,0,3.7,2.4,2.7,4.9-.6,1.5-1.6,3.4-2.4,4.8-1.1,1.9-3.1,3.4-5.3,3.7-.2,0-.4,0-.5,0-1.2,0-2.5-.4-2.9-1.6l-2.2,4.5h9.4l10.1-20.3h-10.3c-.2,0-.6-.3-.7-.4-.6-.8-.2-1.7.7-2h11.4c1.3-2.7,3.4-6.8,6.4-7.8.6-.2,1.1-.3,1.7-.3M123.7,103.2c.7-.5,1.5-.9,2.1-1.5.9-.8,3.1-2.7,3.2-3.9,0-.6-.2-.8-.6-.8s-.8.2-1.2.4c-1.9,1.1-3.4,3.6-3.6,5.8M89,105.6h.3c1.1-.1,2.6-1.3,3.2-2.2.7-1.5,1.6-3,2.2-4.4.4-1,.4-1.9-.7-1.9s-.2,0-.3,0c-2.6.3-3.7,3.2-4.7,5.2-.4.9-1.9,3.3,0,3.3M102,105.6c.4,0,.8-.1,1.2-.3,2.5-1,3.2-4.4,4.5-6.6.2-.4.3-1.1,0-1.5-.2-.2-.4-.2-.7-.2s-.4,0-.6,0c-1,.2-2.2,1.1-2.8,1.9-.7,1.5-1.9,3.3-2.4,4.8-.4,1.2,0,1.7.8,1.7M125.5,73.5c-1.3,0-2.6.2-3.8.7-3.7,1.3-6.2,4.2-8.1,7.4h-7.5c-.6,0-1.1.1-1.7.3-2.5.7-4.5,2.5-5.4,5-.2.6-.3,1.1-.4,1.7-.3,0-.6,0-.9,0s-.5,0-.8,0c-.9-.3-1.8-.4-2.8-.4s-2.1.2-3.2.4c-3.4.9-6.3,3.3-8.2,6.5-.9,1.5-2.1,3.9-2.8,5.8-.5,1.2-.7,2.4-.8,3.5h-7c-.4,0-.9,0-1.3.1-2.9.6-5.3,2.9-6,5.8-.7,2.9.4,6,2.7,7.9,1,.8,2.5,1.7,4.5,1.7h11.1c0,1.1.2,2.2.6,3.2.8,1.9,2.4,3.4,4.5,4.2.7.3,1.5.4,2.3.4h.6c1,0,1.9-.2,2.8-.6h0c.5-.3,1.9-.9,3-2.3.9,1.1,2.2,2.1,3.7,2.6.7.2,1.4.4,2.1.4h.6c1,0,2.1-.3,3-.7h0c.6-.3,2.5-1.3,3.6-3.6l1.8-3.5h13.7c.5,0,.9,0,1.4-.2,2.5-.6,4.6-2.3,5.6-4.8.1-.3.2-.6.3-.9,1,.4,2.2.6,3.4.6s1.1,0,1.6-.1c.9-.1,1.8-.4,2.8-.8.9.8,2,1.4,3.2,1.8,1.1.4,2.3.6,3.5.6,5.2,0,9.7-3.8,10.7-9.1,0-.1,0-.3,0-.4,0-.4.1-.8.1-1.3v-1.9c0-.5,0-1.1-.2-1.6-.3-2-1-3.6-1.6-5-.3-.8-.7-1.6-.8-2.2h0c0-.4,0-1.2-.3-2.1.1-.2.2-.4.3-.6,1-2.8.4-6-1.7-8.1-.2-.2-1-1-2.2-1.6-.3-.8-.7-1.6-1.2-2.3-1.5-1.9-3.8-3.1-6.2-3.1s-5,1.3-6.4,3.4c-.2.3-.3.5-.5.8l-.2.4h-2c-.2-1.6-.8-3-1.7-4.3-1.8-2.4-4.6-3.8-7.9-3.8h0Z"/>
    </g>
    <g>
      <path class="st0" d="M68.6,79c4.1-.3,7,2.5,6.9,6.5,0,2.2-1.2,5.4-2.7,7.1s-2.7.4-2.5-1.2.8-1.2,1.1-1.6c1.7-2.7,2.4-8.3-2.2-8-3.3.2-5.8,3.7-6.3,6.8-1,5.8,2.7,8.8,4.1,13.8,1.6,6.1-.8,13.7-6.9,16.3-3.8,1.6-8.5.8-10.6-3.1-2.6-4.9,1.3-10.9,4.4-14.6.8-.9,2-2.7,3.3-1.7,1.6,1.2-.6,2.8-1.4,3.8-2.2,2.6-5.5,7.3-4,10.9,1,2.4,3.8,3.1,6.2,2.4,4.6-1.2,7-7,6.5-11.3-.5-4.6-4-8.1-4.6-12.7s2.3-12.9,8.7-13.4h0Z"/>
      <path class="st1" d="M69.2,79c3.7,0,6.4,2.7,6.3,6.6,0,2.2-1.2,5.4-2.7,7.1-.4.4-.8.5-1.1.5-.8,0-1.5-.7-1.4-1.7,0-.4.8-1.2,1.1-1.6,1.6-2.7,2.4-8-1.9-8h-.4c-3.3.2-5.8,3.7-6.3,6.8-1,5.8,2.7,8.8,4.1,13.8,1.6,6.1-.8,13.7-6.9,16.3-1.2.5-2.5.8-3.8.8-2.8,0-5.4-1.2-6.8-3.8-2.6-4.9,1.3-10.9,4.4-14.6.6-.7,1.5-2,2.5-2s.5,0,.8.3c1.6,1.2-.6,2.8-1.4,3.8-2.2,2.6-5.5,7.3-4,10.9.8,1.8,2.6,2.7,4.5,2.7s1.2,0,1.8-.2c4.6-1.2,7-7,6.5-11.3-.5-4.6-4-8.1-4.6-12.7-.8-5.7,2.3-12.9,8.7-13.4.2,0,.4,0,.6,0M69.2,72.5h0c-.4,0-.7,0-1.1,0-4.2.3-8,2.3-10.7,5.7-3.2,3.9-4.7,9.6-4.1,14.9-2.2.9-3.6,2.6-4.4,3.5,0,0-.1.2-.2.2-2.5,2.9-4.3,5.8-5.5,8.7-2.4,6-1.2,10.5.2,13.3,2.4,4.6,7.1,7.3,12.6,7.3s4.4-.5,6.4-1.3c4.4-1.9,7.9-5.6,9.8-10.5,1.7-4.3,2-9.1.8-13.5-.1-.4-.2-.8-.3-1.1,1.8-.3,3.4-1.1,4.7-2.4,3-3.2,4.5-8.2,4.5-11.5,0-3.7-1.2-7-3.6-9.5-2.4-2.4-5.6-3.7-9.2-3.7h0Z"/>
    </g>
    <g>
      <path class="st0" d="M75.6,106.5c-.5.3-.9.6-1.4.9-1.4.7-3.4,1-4.7,0-1.2-1-1.2-2.4-.6-3.7,1.2-2.8,2.9-5.5,4.1-8.2.6-1.2,2.5-.8,2.3.7-1.2,2.9-2.9,5.6-4.1,8.5-.4,1.7,1.5.9,2.2.4,1.1-.7,1.6-1.5,2.2-2.6,1.2-2.3,2.2-5,3.5-7.1s2.7-.5,2.2,1c-.4,1.3-1.6,3.3-2.2,4.6-.4.9-1.6,3-1.7,3.8,0,1.4,1.4.9,2.1.4s1.1-.9,1.6-1.5l4.3-8.5c.7-1,2.3-.3,2.2.9s-.6,1.3-.8,1.8c-1,2.1-2.1,4.5-3.2,6.5-.8,1.4-2,2.7-3.5,3.4-1.6.7-3.7.6-4.5-1.1h0Z"/>
      <path class="st1" d="M80.2,94.6c.7,0,1.4.7,1.1,1.6-.4,1.3-1.6,3.3-2.2,4.6-.4.9-1.6,3-1.7,3.8,0,.7.3.9.7.9s1-.3,1.4-.5c.6-.4,1.1-.9,1.6-1.5l4.3-8.5c.2-.3.6-.5.9-.5.7,0,1.4.5,1.2,1.3,0,.4-.6,1.3-.8,1.8-1,2.1-2.1,4.5-3.2,6.5-.8,1.4-2,2.7-3.5,3.4-.6.3-1.3.4-1.9.4-1.1,0-2.1-.4-2.6-1.5-.5.3-.9.6-1.4.9-.8.4-1.7.7-2.6.7s-1.5-.2-2.2-.7c-1.2-1-1.2-2.4-.6-3.7,1.2-2.8,2.9-5.5,4.1-8.2.3-.5.7-.7,1.1-.7.7,0,1.3.5,1.2,1.4-1.2,2.9-2.9,5.6-4.1,8.5-.2.8.1,1,.6,1s1.2-.3,1.7-.6c1.1-.7,1.6-1.5,2.2-2.6,1.2-2.3,2.2-5,3.5-7.1.3-.5.7-.7,1.1-.7M80.2,88.1c-1.1,0-2.1.2-3.1.6-1-.4-2-.6-3.1-.6-2.9,0-5.6,1.6-7,4.3,0,.1-.1.3-.2.4-.5,1.1-1.1,2.3-1.8,3.5-.8,1.5-1.6,3-2.3,4.7-.7,1.8-1,3.5-.8,5.3.3,2.4,1.5,4.5,3.3,6.1,1.8,1.4,3.9,2.2,6.3,2.2s2.4-.2,3.4-.5c1,.3,2,.5,3.2.5s3-.3,4.5-.9c2.7-1.1,5.1-3.4,6.7-6.2,1.1-2,2.2-4.2,3.1-6.2l.3-.7c0,0,0-.1.1-.2.4-.9,1-2.1,1.2-3.5.3-2.2-.4-4.4-1.8-6-1.5-1.7-3.6-2.7-5.9-2.7s-2.1.2-3.1.6c-1-.4-2-.6-3.1-.6h0Z"/>
    </g>
    <g>
      <path class="st0" d="M122,91.4c1.9-.3,2.2,2.6.4,2.8-1.9.2-2.1-2.5-.4-2.8Z"/>
      <path class="st1" d="M122.2,91.3c1.7,0,1.9,2.6.1,2.8h-.2c-1.7,0-1.9-2.6-.2-2.8h.2M122.2,84.8h0c-.4,0-.7,0-1.1,0-4.2.6-7.1,4.2-6.8,8.4s3.7,7.4,7.9,7.4.6,0,.9,0c2.2-.3,4.2-1.4,5.5-3.1,1.1-1.5,1.6-3.3,1.5-5.2-.1-1.8-.8-3.6-2-4.9-1.5-1.6-3.6-2.6-5.8-2.6h0Z"/>
    </g>
  </g>
  <g>
    <path d="M90.6,121.2c-.8-.3-1.1-1-.8-1.8.8-1.9,2.3-4,3-5.9s0-.1,0-.2h-20.8c0,0-.4-.2-.5-.3-.8-.6-.5-2,.5-2.2h22s1.4-3,1.4-3c-1.4.4-2.9,0-3.2-1.6-.5.4-.9.8-1.4,1.1-3.2,1.9-6.5-.5-5-4.1s1.7-3.6,2.5-5,2.4-2.9,4.2-3.4,3.2-.4,3.7,1.2c.3-.3.3-.7.8-.9,1-.5,2.1.4,1.7,1.5-1.1,2.6-2.8,5.1-3.8,7.7-.3.8-.4,1.6.8,1.1.7-.3,1.5-1.2,1.9-1.8,1.6-2.6,2.7-5.8,4.3-8.4.7-1.1,2.3-.5,2.3.8.8-.6,1.7-1.2,2.8-1.3,3-.3,4.2,2.3,3.1,4.9-.6,1.5-1.6,3.4-2.4,4.8-1.1,1.9-3.1,3.4-5.3,3.7s-3-.2-3.4-1.6l-2.2,4.5h9.4l10.1-20.3h-10.3c-.2,0-.6-.3-.7-.4-.6-.8-.2-1.7.7-2h11.4c1.3-2.7,3.4-6.8,6.4-7.8s5.6.6,4.5,3.8c-.3.8-1,1.5-1.8.9s.5-2.7-1-2.7c-1.8,0-3.7,2.8-4.5,4.2-.3.5-.6,1-.8,1.6h20.8l2-4.1c.8-1.2,2.6-.4,2.2,1l-1.5,3h4.6c.1,0,.5.3.6.4.7.7.3,2-.7,2.1-1.8.2-3.8-.1-5.6,0h-.2c0,0-6,12.2-6,12.2-.5,1.2-1.8,3.9.8,2.5,3-1.6,6.1-6.2,7.8-9,.4-.6,1.3-2.5,1.7-2.8s1.2-.3,1.6.2c.4.5.3,1.2.4,1.8.4,2.8,2.1,5.1,2.4,7.9h0v2c-.1.1,0,.3,0,.5-.5,2.6-3,4.4-5.6,3.5s-2.8-4.1-1.3-6c.5-.7,1.8-1.5,2.4-.5.5.9-.4,1.6-.8,2.3-.4.8-.4,2,.7,2.1,2.3.3,2.5-2.5,2.1-4.2s-1.6-3.5-1.8-5.4c-.4.9-.9,1.8-1.5,2.6-1.8,2.7-5.6,7.3-8.9,7.8-1.4.2-2.6-.2-3.2-1.6,0-.2-.3-.8-.3-.9v-1.1c-.1,0-.1,0-.2,0-.5.4-1,.8-1.5,1.2-2.6,1.8-6.5,3.4-9.2,1-2,1-5.4,2.2-6.9-.1-.9-1.4-.3-2.7.3-4,1.2-2.5,2.5-4.9,3.7-7.4.8-1.3,2.7-.4,2.2,1-1.1,2.4-2.5,4.7-3.6,7.1s-1.2,2.5.8,2.1,2.3-.8,2.4-.9c0-.5,0-1,0-1.5.2-3,2.5-6.7,5.2-7.9,3.6-1.7,6.7.6,4.6,4.4-2.1,3.8-3.9,4.4-6.2,5.9,0,0,.4.1.5.1,2.9.2,6.1-2.3,8-4.3,2.9-3.1,4.8-7,6.6-10.8h-20.8l-10.1,20.3h16.5c.2,0,.6.3.7.5.5.8.1,1.7-.8,1.9h-17.7l-3.6,7.2c-.2.4-.5.5-.8.6h-.6c-.7-.2-1.1-.8-.9-1.5l3.1-6.1v-.2c0,0-9.4,0-9.4,0l-3.6,7.2c-.2.4-.5.5-.8.7h-.6ZM93.7,97.1c-2.6.3-3.7,3.2-4.7,5.2s-2,3.5.3,3.3c1.1-.1,2.6-1.3,3.2-2.2.7-1.5,1.6-3,2.2-4.4.4-1,.4-2-1-1.8h0ZM107.6,97.3c-.3-.3-.9-.2-1.3-.2-1,.2-2.2,1.1-2.8,1.9-.7,1.5-1.9,3.3-2.4,4.8-.6,1.8.7,2,2,1.4,2.5-1,3.2-4.4,4.5-6.6.2-.4.3-1.1,0-1.5h0ZM123.7,103.2c.7-.5,1.5-.9,2.1-1.5s3.1-2.7,3.2-3.9-1.1-.8-1.7-.4c-1.9,1.1-3.4,3.6-3.6,5.8h0Z"/>
    <path d="M68.6,79c4.1-.3,7,2.5,6.9,6.5,0,2.2-1.2,5.4-2.7,7.1s-2.7.4-2.5-1.2.8-1.2,1.1-1.6c1.7-2.7,2.4-8.3-2.2-8-3.3.2-5.8,3.7-6.3,6.8-1,5.8,2.7,8.8,4.1,13.8,1.6,6.1-.8,13.7-6.9,16.3-3.8,1.6-8.5.8-10.6-3.1-2.6-4.9,1.3-10.9,4.4-14.6.8-.9,2-2.7,3.3-1.7,1.6,1.2-.6,2.8-1.4,3.8-2.2,2.6-5.5,7.3-4,10.9,1,2.4,3.8,3.1,6.2,2.4,4.6-1.2,7-7,6.5-11.3-.5-4.6-4-8.1-4.6-12.7s2.3-12.9,8.7-13.4h0Z"/>
    <path d="M75.6,106.5c-.5.3-.9.6-1.4.9-1.4.7-3.4,1-4.7,0-1.2-1-1.2-2.4-.6-3.7,1.2-2.8,2.9-5.5,4.1-8.2.6-1.2,2.5-.8,2.3.7-1.2,2.9-2.9,5.6-4.1,8.5-.4,1.7,1.5.9,2.2.4,1.1-.7,1.6-1.5,2.2-2.6,1.2-2.3,2.2-5,3.5-7.1s2.7-.5,2.2,1c-.4,1.3-1.6,3.3-2.2,4.6-.4.9-1.6,3-1.7,3.8,0,1.4,1.4.9,2.1.4s1.1-.9,1.6-1.5l4.3-8.5c.7-1,2.3-.3,2.2.9s-.6,1.3-.8,1.8c-1,2.1-2.1,4.5-3.2,6.5-.8,1.4-2,2.7-3.5,3.4-1.6.7-3.7.6-4.5-1.1h0Z"/>
    <path d="M122,91.4c1.9-.3,2.2,2.6.4,2.8-1.9.2-2.1-2.5-.4-2.8Z"/>
  </g>
</svg>