<svg xmlns="http://www.w3.org/2000/svg" width="100%" viewBox="0 0 128 128" fill="none"
                            data-scroll-animation-target="">
                            <path
                                d="M127.456 71.9458C123.876 101.183 100.685 123.7 71.6262 127.32C48.1626 130.147 23.6378 119.059 10.6566 99.2309C2.21371 86.2101 -1.44544 70.1915 0.883098 54.8462C2.97007 41.0294 9.29039 28.1829 19.2659 18.3222C25.9228 11.5782 34.2825 6.81025 43.1452 3.64613C53.0177 0.478059 63.5793 -0.508004 73.8597 0.96515C80.6473 2.03437 87.1339 4.30747 93.2958 7.40822C106.487 13.9978 116.949 25.5098 122.798 38.9226C127.139 49.3337 128.956 60.719 127.467 71.8666L127.456 71.9458Z"
                                fill="#82A0FF"></path>
                            <path
                                d="M115.595 69.8154C114.668 73.2211 114.736 76.8842 113.322 80.1552C112.542 82.155 112.245 84.3608 110.894 86.1033C110.597 86.4834 110.364 86.8992 110.233 87.3626C109.639 89.7941 108.103 91.7345 106.665 93.6908C105.342 95.5402 104.036 97.4846 102.17 98.8943C98.9706 102.645 95.363 105.983 90.9158 108.24C80.5601 114.568 67.9195 117.333 55.9165 115.083C51.3188 114.335 46.8083 113.012 42.4958 111.23C37.9615 109.032 33.6608 106.224 29.8037 102.993C27.9385 101.187 25.899 99.5082 24.2793 97.4687C22.4696 95.1521 20.3351 92.9503 19.3054 90.1267C19.1233 89.6713 18.8421 89.2753 18.5332 88.8912C17.068 87.0418 16.5492 84.7489 15.7493 82.5986C14.0267 78.484 12.902 74.2032 12.6802 69.7322C12.6367 68.0967 12.1813 66.5246 12.0941 64.8851C11.8367 61.5784 12.5574 58.4262 13.1673 55.2185C13.4683 51.001 15.1117 47.1558 16.5453 43.2432C17.4284 40.8671 18.9728 38.8198 19.8796 36.4754C20.1291 35.8299 20.3905 35.1765 20.8776 34.6696C23.5348 32.3608 25.3208 34.4597 23.6695 37.2634C22.5369 38.7326 21.3132 40.1147 20.7786 41.9324C20.5806 42.5026 20.3351 43.0531 19.9945 43.556C17.9392 46.3796 17.5511 49.8684 16.4225 53.0721C15.0087 57.2144 15.484 61.5507 15.2899 65.8276C15.2147 67.5383 15.282 69.2649 15.5117 70.9599C16.5532 77.003 18.4897 82.9985 21.6261 88.2813C23.4477 91.5801 25.8079 94.4868 28.1127 97.4489C30.762 100.138 33.8034 102.403 36.7457 104.747C38.6664 106.137 40.9117 106.977 43.0066 108.078C47.9725 110.462 53.1959 112.398 58.7321 112.739C59.7974 112.771 60.827 113.075 61.8883 113.075C62.7714 113.083 63.6624 112.862 64.502 112.842C68.7314 113.285 72.7865 112.335 76.7902 111.198C81.6413 110.046 86.4924 108.256 90.4604 105.254C93.2919 103.203 96.1233 101.064 98.6301 98.5775C100.757 96.3797 102.428 93.8769 104.376 91.5919C105.576 89.8574 106.847 87.3309 108.027 85.4023C108.982 83.4975 109.461 81.3947 110.237 79.4226C111.005 77.2208 111.9 75.0467 112.455 72.7894C112.807 70.552 112.661 68.2472 112.645 66.0058C112.621 64.9524 112.645 63.9109 112.764 62.8615C113.195 58.9489 112.253 55.2106 111.243 51.5475C110.419 48.4943 109.39 45.4806 107.996 42.6373C105.639 38.0832 102.594 33.9132 99.2914 30.0521C95.7352 27.1731 92.2583 24.1555 88.4011 21.7042C83.051 18.3976 76.7188 17.4313 70.7747 15.677C64.6366 15.0988 58.3836 15.3641 52.3564 16.9363C49.1447 17.9105 46.1707 19.4232 42.9472 20.2984C42.1195 20.5162 41.3156 20.734 40.5711 21.1775C39.6286 21.6805 38.9119 22.5913 38.1159 23.217C37.2367 23.8863 36.2349 24.4011 35.3676 25.0862C32.6945 27.0979 30.2788 29.47 27.5068 31.2995C27.1385 31.4659 26.7465 31.2797 26.4336 31.058C25.7921 30.654 25.21 30.0798 25.507 29.5096C26.9326 26.9236 29.1186 24.7852 31.7996 23.4863C32.0926 23.2724 32.3223 22.9754 32.5519 22.6943C34.0449 20.8409 36.2744 20.0252 38.4208 19.1381C40.3533 18.3104 41.8661 16.7422 43.8422 15.9819C49.3388 13.4752 55.3977 12.9564 61.3379 12.3663C71.6064 11.2852 81.9145 14.4731 90.7336 19.6252C95.7035 21.9775 99.5251 25.9336 102.891 30.1709C104.499 31.9728 106.435 33.4538 107.532 35.6279C110.669 41.0216 113.706 46.6528 114.625 52.9216C115.559 58.442 116.799 64.1445 115.611 69.7362L115.595 69.8075V69.8154Z"
                                fill="#E6FAB9"></path>
                            <path
                                d="M107.667 72.6468C106.835 73.7675 105.239 73.4032 104.194 72.7735C102.784 72.0726 101.339 71.2093 99.7944 70.7143C99.6003 70.7103 99.434 70.7935 99.2914 70.9558C98.939 71.4152 98.7529 71.9815 98.5905 72.528C98.1549 74.7259 96.7174 76.4366 95.4581 78.2464C94.3532 79.87 93.4464 81.6639 92.1395 83.1094C91.593 83.7311 90.9951 84.3053 90.6624 85.0815C89.7278 87.113 87.4785 87.9446 86.2588 89.7227C84.3302 92.4948 81.4591 94.257 78.4891 95.7223C75.0557 97.5875 71.2976 98.6488 67.3494 98.9497C61.1835 99.3735 52.0753 97.3142 47.042 93.7303C44.6026 91.8929 42.1869 90.0435 40.1276 87.7506C38.4129 85.8418 36.3972 84.143 35.2805 81.7867C34.5716 80.2937 34.1123 78.6899 33.2094 77.296C32.057 75.4347 31.0274 73.5141 30.3185 71.4429C29.8354 69.9341 29.5146 68.4887 28.782 67.1066C28.4811 66.4453 28.1603 65.483 27.2415 65.8355C25.7644 66.3067 24.5566 67.3046 23.1666 67.8907C22.5251 68.2115 21.8796 68.8055 21.1311 68.5679C19.947 68.16 19.7094 66.3938 20.6995 65.6097C22.232 64.4573 23.6854 63.1861 25.507 62.4456C26.2198 62.1644 26.9207 61.8833 27.6098 61.5506C29.5027 60.6477 31.3679 59.6062 33.443 59.3924C34.5479 59.3884 37.4506 58.6122 37.6566 60.1884C37.6645 61.0002 36.9596 61.6694 36.2547 61.9783C35.0231 62.5209 33.7203 62.9802 32.4926 63.499C32.2194 63.6336 32.0253 63.8475 31.9937 64.1643C32.2115 67.3918 33.6925 70.2628 34.6271 73.2012C35.0786 74.3774 35.4548 75.609 35.9854 76.7415C36.7259 77.7355 37.6328 78.6147 38.2664 79.6918C39.6406 81.7946 40.7534 84.1034 42.6186 85.8379C43.5017 86.721 44.6184 87.3387 45.3986 88.3129C46.5509 89.7663 48.3171 90.3841 49.8418 91.3226C53.192 93.5086 56.8511 95.0847 60.7914 95.849C61.8211 96.0866 62.8705 95.9876 63.916 95.9519C66.49 95.9163 69.1116 95.9163 71.5787 95.2748C73.9231 94.6689 76.0694 93.4571 78.1485 92.1621C80.5721 90.5979 83.1778 89.0891 85.2173 86.9982C87.6369 84.4162 89.9139 81.6204 91.9336 78.6741C93.4305 76.5831 94.0126 73.9853 95.7432 72.0726C96.064 71.7162 96.3808 71.3677 96.5669 70.936C97.1926 69.554 97.153 69.253 95.6086 68.7105C93.9216 67.9105 91.5613 67.8591 90.6307 65.9424C90.3971 65.4276 90.5594 64.8177 90.8723 64.3663C91.696 62.9089 93.3474 63.3089 94.6067 63.9267C97.9609 65.3682 101.402 66.572 104.507 68.5283C105.196 69.0114 106.02 69.1817 106.744 69.6015C107.695 70.148 108.277 71.7875 107.707 72.6032L107.671 72.6587L107.667 72.6468Z"
                                fill="#E6FAB9"></path>
                            <path
                                d="M56.5303 50.4465C56.2373 52.4305 55.8928 54.4225 55.5522 56.4025C55.378 57.4836 55.1681 58.5053 54.479 59.3607C53.5405 60.5289 52.1822 61.5942 50.713 61.515C49.6596 61.313 48.3409 60.5091 48.1706 59.333C47.4855 56.6797 46.7964 53.9987 46.2975 51.3098C46.2262 50.8742 46.2103 50.4505 46.2657 50.0109C46.7964 46.5023 47.1449 42.958 48.9705 39.8097C49.3903 39.0454 50.0635 38.4395 50.8872 38.2059C51.9604 37.893 53.3741 37.8416 54.1662 38.7088C56.2769 41.6947 56.7283 46.7676 56.5383 50.3752L56.5303 50.4505V50.4465Z"
                                fill="#E6FAB9"></path>
                            <path
                                d="M80.9206 51.6901C80.5602 53.4721 80.1365 55.266 79.7167 57.0441C79.3524 58.3232 79.2653 59.9508 78.0337 60.7191C76.8219 61.519 75.1943 60.9804 74.0577 60.232C72.6796 59.3726 72.0262 57.7767 71.7767 56.2164C70.7867 51.3733 70.3352 46.3519 71.8163 41.5681C72.3193 40.1187 72.644 38 74.4577 37.7307C76.3269 37.5327 78.0931 38.503 78.7267 40.2494C79.5148 42.0908 80.4414 43.9124 80.3939 45.9281C80.5444 47.8052 81.0552 49.7259 80.9285 51.6148L80.9166 51.6861L80.9206 51.6901Z"
                                fill="#E6FAB9"></path>
                        </svg>