<svg xmlns="http://www.w3.org/2000/svg" width="100%" viewBox="0 0 159 140" fill="none"
                            data-scroll-animation-target="">
                            <path
                                d="M157.983 32.6465C155.377 38.6579 153.437 44.8515 151.445 51.0411C149.96 55.4408 148.859 60.0424 148.214 64.6203C147.509 67.5111 147.045 70.4535 146.705 73.4156C146.079 78.0767 146.309 82.9001 147.469 87.4977C147.952 89.0778 148.701 90.4916 149.679 91.834C150.4 92.7251 150.352 93.3864 149.263 93.8854C146.036 95.3704 142.749 96.6574 139.905 98.78C134.274 102.538 129.415 107.472 125.546 113.024C124.473 114.545 123.546 116.165 122.754 117.852C121.4 120.901 119.471 123.966 119.479 127.368C119.475 128.6 118.683 128.556 117.824 127.716C116.343 126.132 114.513 124.826 112.541 123.875C111.341 123.127 110.308 122.16 108.93 121.753C106.617 120.945 104.336 119.974 101.884 119.86C100.906 119.804 99.9322 119.804 98.954 119.753C95.2989 119.46 91.616 119.606 88.1271 120.814C87.0817 121.21 86.0283 121.618 84.9313 121.859C82.3256 122.331 79.9337 123.416 77.5695 124.54C75.1737 125.523 73.2016 127.162 71.2017 128.778C70.679 129.17 70.1404 129.526 69.6018 129.894C67.0396 131.653 65.0398 134.041 62.8301 136.171C62.137 136.983 59.0917 142.254 59.6422 138.199C59.8521 137.007 59.4996 135.819 59.0244 134.726C58.5096 133.613 58.2007 132.362 57.48 131.368C56.5414 130.287 55.4287 129.316 54.2921 128.493C53.8129 128.184 53.2902 127.954 52.7714 127.712C50.9577 126.742 49.342 125.515 47.2115 125.523C46.1858 125.416 45.1839 125.111 44.1582 124.968C41.4178 124.675 38.6696 125.412 35.9133 125.281C34.0996 125.297 32.3294 125.851 30.5355 126.279C30.1514 126.386 29.498 126.497 29.2643 126.326C29.0307 126.192 29.1059 125.831 29.3633 125.368C29.5098 125.107 29.6841 124.837 29.8623 124.564C31.1256 122.873 31.5335 120.778 32.6383 119.016C33.0819 118.149 32.8284 117.119 33.0541 116.169C33.4462 114.822 33.8184 113.456 33.7194 112.023C33.7947 109.951 32.8086 108.146 32.2106 106.233C31.7315 104.514 31.5057 102.665 30.8008 101.037C29.7276 99.2156 28.4842 97.4574 27.1655 95.7822C25.8309 94.0675 23.645 93.3785 22.1005 91.9726C18.6948 88.4402 14.0932 86.0285 9.74107 83.8307C8.90549 83.407 8.03824 83.0387 7.11157 82.904C6.08195 82.7139 4.92955 82.8763 4.00685 82.4763C3.57124 82.31 3.16732 82.0684 2.73566 81.8784C2.00305 81.5101 1.02095 81.4665 0.490299 80.9557C0.0230086 80.5636 0.165569 79.9736 0.771463 79.7478C1.42092 79.5023 2.15354 79.4548 2.83863 79.2885C5.17509 78.6707 7.66202 79.0429 9.99847 78.4925C11.8201 77.7005 13.7804 77.6688 15.701 77.3678C17.788 76.7421 19.5542 75.2294 21.7283 74.9442C23.3123 74.6195 25.0112 75.1502 26.6665 74.7581C27.8506 74.469 29.0861 74.275 30.187 73.7602C32.2304 72.8216 34.1629 71.4118 36.3648 70.8455C37.83 70.3505 39.0656 69.3367 40.5862 68.8695C42.5782 68.3111 44.2691 66.9884 46.0709 66.0776C47.6708 65.5351 49.3024 64.9094 50.6449 63.7491C52.3754 62.4462 53.6031 60.5929 55.2386 59.2346C55.9593 58.6524 56.7395 58.1495 57.4958 57.6109C58.9492 56.7357 59.7254 55.1636 60.9847 54.1102C61.5708 53.6271 62.244 53.2271 62.743 52.6568C63.5548 51.6272 63.828 50.2768 64.7705 49.3264C65.7962 47.9285 66.9803 46.6098 67.6455 44.9822C68.192 43.2239 69.7404 42.0636 70.4176 40.4043C70.8611 39.2994 70.5047 38.0916 70.9641 37.0778C71.174 36.5789 71.5621 36.1591 71.8274 35.6878C72.263 34.9829 72.2828 33.985 72.6155 33.3237C72.8451 32.8089 73.2728 32.4406 73.5976 31.9891C74.2906 30.9001 74.3143 29.3834 74.9717 28.231C75.7915 26.3856 75.2964 24.2155 75.2925 22.279C75.3638 20.6355 76.4053 19.1545 76.6548 17.412C76.9636 15.8003 77.0547 14.0539 76.9953 12.3708C76.8884 11.4798 76.4211 10.6205 76.4132 9.70172C76.7023 7.58703 77.1498 5.79707 76.9121 3.5715C76.9003 2.63692 76.635 1.71026 76.5003 0.811314C76.4805 0.577669 76.5003 0.419265 76.5835 0.359864C76.6468 0.312343 76.7617 0.332143 76.9161 0.431146C77.5458 0.886556 78.0131 1.61521 78.3853 2.33991C78.8803 3.81702 79.7634 5.06445 80.4683 6.42672C81.6682 8.9889 82.2464 11.959 84.2066 14.0855C84.9076 14.9251 85.1848 15.9785 85.6877 16.9408C86.8441 19.1822 88.3014 21.1662 90.2735 22.7225C90.9784 23.2452 91.4615 23.9581 91.8377 24.7342C92.6575 26.1519 94.0633 27.4152 95.0692 28.7775C95.9958 29.6408 97.0215 29.6685 98.0788 30.5239C99.2114 31.3357 99.7817 32.595 101.061 33.2999C101.663 33.7712 102.011 34.4879 102.558 34.9671C103.29 35.5215 104.423 35.8066 105.128 36.5115C106.696 38.155 108.926 38.6579 110.838 39.8697C111.911 40.6459 113.131 41.1053 114.422 41.3785C115.796 41.6993 117.214 42.3052 118.576 42.226C119.103 42.2101 119.634 42.1507 120.16 42.2378C121.146 42.3962 122.026 43.2516 123.063 43.4061C124.061 43.5843 125.146 43.3031 126.219 43.3348C127.653 43.3506 129.126 43.6397 130.5 43.5645C131.922 43.4496 133.316 42.9229 134.757 42.919C136.254 42.622 137.735 42.0398 139.196 41.628C140.404 41.1845 141.628 41.0023 142.772 40.3212C143.355 40.0004 143.964 39.7509 144.594 39.5489C145.972 39.1133 147.204 38.2579 148.566 37.7035C150.19 36.9986 151.465 35.7829 152.883 34.8245C153.817 34.2068 154.922 33.8108 155.702 33.0781L155.777 33.0148C157.159 31.7396 159.825 28.2904 157.987 32.6505L157.983 32.6465Z"
                                fill="#F5693C"></path>
                            <path
                                d="M138.959 61.0918V61.1948C138.943 64.85 137.755 68.4497 136.801 71.9623C135.466 76.3224 134.215 80.7379 132.611 85.0187C131.506 87.8898 125.994 99.2949 122.188 97.2554C120.438 95.505 121.618 91.4143 121.348 89.0818C121.329 88.8125 121.285 88.361 121.099 88.2343C120.758 88.1274 120.525 88.7372 120.319 89.0382C119.352 91.1846 117.107 92.1588 115.832 89.7589C115.262 88.5986 115.056 88.2818 114.897 89.7708C114.695 93.4102 111.302 104.696 106.201 100.641C104.7 99.3067 104.807 96.9584 104.486 95.109C104.237 92.5152 103.991 89.9174 104.019 87.3314C104.34 80.5993 104.946 73.7324 107.06 67.3131C108.347 63.6738 111.456 57.6347 116.097 60.4741C118.006 62.2046 119.467 64.5648 120.422 66.9528C120.845 68.125 120.96 69.4595 121.039 70.6753C121.103 71.1148 121.095 71.7009 121.42 72.0217C121.467 72.0534 121.538 72.0415 121.594 72.0336C122.132 71.6534 122.346 70.6396 122.726 70.0218C124.057 67.4438 125.415 64.8104 126.956 62.3234C124.057 67.4438 125.415 64.8104 126.956 62.3234C128.948 59.2029 131.308 55.9002 134.761 54.423C138.492 53.5993 139.268 58.3673 138.951 61.0958L138.959 61.0918Z"
                                fill="#F0EBE6"></path>
                            <path
                                d="M102.344 89.9133C102.344 87.3313 101.469 84.9394 100.954 82.4169C100.34 78.9557 98.8274 75.7718 96.8315 72.9008C94.1743 69.2614 89.7865 65.5548 85.0225 66.1488C83.0583 66.3785 81.4545 67.7289 79.8625 68.5724C79.2804 68.8773 78.6903 69.1585 78.2032 69.602C77.3518 70.3663 76.9281 71.5702 76.2865 72.5325C75.641 73.5463 74.7342 74.4254 74.2154 75.5105C73.9184 76.1164 73.7323 76.7817 73.558 77.4351C73.1224 79.2092 72.3265 80.8328 72.2393 82.6268C72.077 86.0879 72.4492 89.6322 73.0432 93.026C73.1501 94.8753 74.0016 96.5742 74.7184 98.2493C76.1519 101.2 78.0131 104.296 81.3515 105.322C85.0304 106.542 89.038 104.688 91.2834 101.627C91.723 101.089 92.3526 100.728 92.8873 101.406C94.7841 104.475 99.1957 103.588 101.199 101.204C102.158 99.8373 101.71 97.9761 102.241 96.4475L102.261 96.3445C102.76 94.2219 102.427 92.0637 102.336 89.9094L102.344 89.9133ZM89.739 94.408C89.5489 97.1048 87.85 98.0988 86.1432 95.6079C84.9275 93.9803 84.678 91.8973 85.5611 89.9569C86.2105 88.4639 87.6243 88.3926 88.5787 89.7628C89.537 91.0934 89.537 91.0934 89.7825 92.6775 89.7508 94.313L89.739 94.412V94.408Z"
                                fill="#F0EBE6"></path>
                            <path
                                d="M69.6018 95.0258C68.0019 94.1625 66.2437 93.7546 64.4695 93.6319C63.3805 93.5052 61.345 93.9685 61.5312 92.2854C62.0182 90.4836 62.3034 88.7016 62.1925 86.7571C62.1212 85.189 61.6341 83.6524 61.3173 82.1357C60.8777 80.8131 60.6758 79.3637 59.8164 78.239C57.9829 76.1956 55.4009 75.1145 52.7912 74.5878C51.8804 74.3343 50.93 74.2987 50.0033 74.4848C48.5381 74.6432 47.1283 74.865 45.8412 75.661C43.8295 76.6035 41.604 77.3361 39.9922 78.9122C38.4517 80.5715 37.8023 82.7812 36.8677 84.8484C36.1945 86.5077 36.3806 88.3491 37.1449 89.9331C38.0557 91.9013 38.6537 94.0398 39.6714 95.9644C41.5446 99.2314 43.5127 102.53 46.0353 105.362C48.5975 107.975 51.7576 110.241 55.397 110.981C61.3965 112.185 68.1405 110.985 72.1125 105.956L72.1838 105.873C75.4865 102.475 73.4352 96.9425 69.6018 95.0219V95.0258ZM52.9932 96.1861C51.1795 96.4673 49.6588 93.5329 50.2172 91.8142C50.7874 90.0717 53.0803 89.1332 54.4703 90.539C55.0128 91.1133 55.4484 91.9726 55.6861 92.7092L55.7019 92.7963C55.7415 94.1744 54.4149 95.9089 52.9932 96.1861ZM62.8221 103.156L62.7905 103.239C61.5628 105.69 55.1752 105.54 56.4741 101.865C56.9889 100.958 58.4542 100.483 59.4917 100.352C61.2777 100.336 63.2221 101.354 62.8221 103.156Z"
                                fill="#F0EBE6"></path>
                        </svg>