<svg xmlns="http://www.w3.org/2000/svg" width="100%" viewBox="0 0 181 116" fill="none"
                            data-scroll-animation-target="">
                            <path
                                d="M166.298 69.0185C165.72 66.8602 165.431 64.603 164.778 62.4606C164.299 61.324 163.348 60.3657 163.162 59.0945C161.804 53.0355 157.729 48.1013 154.893 42.7036C153.868 40.878 152.901 39.0168 151.816 37.2268C151.325 36.4269 150.577 35.8091 150.177 34.9775C149.662 33.8608 149.032 32.7717 148.181 31.8807C146.66 30.3323 144.93 29.0136 143.215 27.6593C141.936 26.7128 140.542 25.9208 138.938 25.5248C138.411 25.3901 137.924 25.1802 137.512 24.8238C136.142 23.6239 134.776 22.3369 133.402 21.137C133.081 20.8756 132.725 20.6776 132.349 20.5073C131.137 20.0084 130.103 19.2361 129.18 18.3174C128.381 17.4937 127.276 17.1215 126.309 16.5314C123.177 14.8088 120.068 12.8723 116.564 12.0842C114.413 11.613 112.192 12.1555 110.184 12.9673C108.687 13.6168 107.253 14.389 106.707 15.8621C106.612 16.0997 106.517 16.3453 106.378 16.5591C106.216 16.8165 105.994 17.0224 105.721 17.1888C103.705 18.456 101.511 19.1649 99.456 20.2895C97.8205 21.2756 96.4582 22.6062 95.1791 24.008C93.6465 25.6554 92.3556 27.5484 90.9893 29.3542C90.4785 29.972 89.6073 31.2827 88.9024 30.2452C85.065 24.0279 79.1962 20.4954 72.9036 17.5293C72.5472 17.3551 72.2383 17.1215 72.0126 16.7928C71.3156 15.379 70.6147 14.1633 69.1019 13.49C67.403 12.6426 65.5259 12.203 63.8231 12.203C61.3678 12.1674 58.9759 13.0148 56.8375 14.1989C54.5684 15.4147 52.2359 16.5314 50.0895 17.9333C49.044 18.6263 48.1174 19.4935 47.0759 20.1945C46.3076 20.7449 45.373 21.0261 44.6959 21.6874C43.5435 22.7685 42.3396 23.7902 41.1595 24.8318C40.7041 25.2476 40.1813 25.5604 39.5953 25.7505C33.8452 27.5484 29.9683 32.3282 26.8636 37.2348C23.3826 42.2641 20.5947 47.7528 17.6682 53.083C16.4168 55.2294 15.6486 57.5698 15.0664 59.9776C14.5635 61.2012 13.6725 62.2507 13.4626 63.5852C12.9517 65.6049 12.5082 67.6443 11.8508 69.66C11.6687 70.258 11.5261 70.8678 11.4826 71.4896C11.435 74.4675 11.435 77.5327 12.0726 80.4592C12.9042 83.548 13.2804 86.8547 15.4506 89.3535C18.4008 92.7275 19.5176 94.2244 24.0875 95.2382C31.5087 96.3114 39.2943 93.8918 45.5314 89.8683C46.9254 88.8942 48.5688 88.415 50.2321 88.4823C52.6715 88.51 54.9683 89.5595 57.3404 90.1059C58.5047 90.395 59.7521 90.1139 60.9085 90.4861C65.8665 92.3315 70.4325 95.1551 75.1529 97.543C75.7271 97.84 76.2499 98.1925 76.8399 98.4261C77.4894 98.6835 78.2378 98.5132 78.8635 98.8974C80.5426 100.145 82.2613 101.345 84.0592 102.473C84.5502 102.79 85.0294 103.127 85.5878 103.273C87.4173 103.776 91.0131 103.586 92.8387 103.008C93.8644 102.711 94.6168 101.955 95.5118 101.412C96.9928 100.533 98.3353 99.6141 99.7015 98.6241C100.513 98.1212 101.575 98.339 102.402 97.8479C105.285 96.3391 108.299 95.0125 111.027 93.2621C114.964 90.3911 120.017 90.3515 124.488 88.9456C127.121 88.1615 130.194 87.6665 132.562 89.4011C139.005 93.4403 146.086 95.7451 153.796 95.0838C154.751 95.0244 155.618 94.6125 156.454 94.1848C157.436 93.7136 158.683 93.4403 159.61 92.7473C160.94 91.8246 161.899 90.5218 162.873 89.2387C164.378 87.3616 165.483 85.2509 165.74 82.8154C165.815 81.3304 166.449 79.9602 166.611 78.491C166.817 76.3011 166.916 74.0874 166.956 71.8895C167.023 70.9074 166.607 69.9887 166.326 69.0858L166.306 69.0145L166.298 69.0185ZM93.4921 45.6262C93.1515 42.6126 92.9773 39.492 92.6922 36.4427C92.6842 36.3081 92.6526 36.0349 92.712 35.9755C93.9792 37.5199 94.1574 41.8799 93.504 45.6143L93.4921 45.6262ZM85.2947 36.1339C85.6274 35.9636 85.8887 36.3715 85.8214 36.7041C85.56 39.5831 85.2908 42.4621 85.0294 45.3411C85.0135 45.9866 84.5185 46.0856 84.4671 45.3767C84.2809 42.3908 84.4631 39.4128 85.0848 36.4942C85.1205 36.3477 85.168 36.2289 85.2512 36.1616L85.2947 36.1339ZM76.1231 93.6146C75.941 93.6819 75.7351 93.6304 75.5093 93.5235C74.3253 92.9137 73.1293 92.28 71.9848 91.5831C69.5217 90.0862 66.7417 89.3892 64.0607 88.4506C62.54 87.9437 61.0827 87.1874 59.5462 86.7438C56.7029 86.0548 53.8001 85.5756 50.9013 85.1598C48.6678 84.6687 47.4362 85.5202 45.6502 86.629C44.0385 87.4844 42.2644 87.9754 40.6328 88.7952C37.6706 90.4544 34.3046 91.1435 31.0414 91.5989C28.7486 92.0781 26.3923 92.4107 24.0954 91.7771C23.6876 91.7058 23.2915 91.591 22.9233 91.393C17.1296 88.5576 15.4704 83.0807 15.0704 77.0178C14.9476 75.5685 15.1892 74.127 15.1496 72.6776C15.1734 71.9331 14.8645 71.1569 14.9041 70.4481C15.601 67.6562 16.3653 64.8564 17.0544 62.0645C17.2564 61.2329 17.391 60.3894 17.8623 59.6647C19.7314 56.8174 21.1769 53.7127 22.7134 50.6714C23.7905 48.8418 24.8954 47.0162 26.0438 45.25C27.1764 43.7729 27.5209 41.872 28.4436 40.3197C30.2098 37.8684 32.3126 35.6547 34.3798 33.4806C35.0728 32.7995 35.746 32.0985 36.5262 31.5203C37.6508 30.7006 39.0329 30.162 40.0982 29.2869C41.5397 27.9087 43.6187 27.3662 44.9057 25.8297C45.1671 25.5248 45.4562 25.2476 45.8126 25.0614C46.5967 24.6931 47.4442 24.4199 48.1213 23.8615C50.137 22.2498 52.319 20.8439 54.505 19.4698C56.8177 17.8976 59.2888 16.6264 61.9064 15.5929C63.2093 15.0384 64.5082 15.2642 65.8942 15.8225C66.1635 15.9334 66.508 16.1393 66.0962 16.3532C63.7835 17.2759 61.7995 18.6104 59.8036 20.048C55.3049 23.0616 50.4538 25.5881 46.0977 28.8275C44.8543 29.6591 43.4722 30.3086 42.3673 31.3501C41.7693 31.9124 41.8644 32.3163 42.3317 32.8391C42.7396 33.3776 43.3811 33.6865 44.0107 33.342C48.5055 31.4926 52.5883 28.875 56.5761 26.0911C58.6116 25.0416 60.4372 23.6952 62.3381 22.424C64.7656 20.8083 67.803 20.7053 70.6147 20.6063C72.7808 21.1964 74.8084 22.3646 76.7132 23.4814C78.3883 24.5347 79.9525 25.8376 81.2317 27.4256C82.0435 28.4671 82.9068 29.4057 83.8176 30.3482C84.2057 30.7283 84.4552 31.1956 84.0037 31.6708C82.883 32.8668 81.691 34.1182 81.6039 35.8487C81.5207 37.8525 81.3544 39.8761 81.0693 41.8601C80.8475 43.6897 79.7942 43.662 78.915 42.2364C78.1824 40.8384 77.822 39.3257 78.2497 37.6902C78.3923 37.112 78.5942 36.4546 78.4834 35.8804C78.3012 34.8666 77.0656 34.4231 76.1905 34.0865C74.3213 33.3895 72.5036 32.645 70.5988 32.1064C68.3218 31.4095 67.102 32.2609 65.6566 33.9004C63.7716 35.4606 62.3539 37.4288 60.7778 39.2821C60.0808 40.0741 59.368 40.8543 58.6948 41.6701C57.3008 43.3967 55.9623 45.1629 54.6198 46.9291C53.0635 49.0596 51.0954 51.2178 50.5291 53.8355C49.8598 56.0967 50.5409 58.5797 50.5489 60.928C50.6162 64.8841 52.9447 69.3471 55.6059 72.2895C58.6433 75.2398 62.3262 77.4337 65.8903 79.679C66.8803 80.3839 67.6921 81.3225 68.793 81.861C72.7729 83.6827 77.0062 85.1598 80.8198 87.3022C82.5108 88.2447 83.8849 89.6783 85.2314 91.0643C85.461 91.3098 85.5006 91.4484 85.2393 91.4167C81.4178 90.3 78.5744 89.7337 76.7409 92.9216C76.5984 93.1711 76.3964 93.476 76.1707 93.5869L76.1152 93.6106L76.1231 93.6146ZM85.865 99.234C83.7899 98.6796 81.3782 96.3352 80.4476 94.5611C80.3565 94.3234 80.5545 94.2363 80.7723 94.2086C83.3226 94.0066 84.9898 95.46 86.4313 97.1114C87.1164 97.7687 86.7362 98.83 85.9283 99.2181L85.8689 99.23L85.865 99.234ZM90.0745 88.9813C89.1241 90.205 88.6172 89.4209 87.8609 88.5417C86.4986 87.0092 84.8987 85.7776 83.0889 84.8549C81.3742 84.051 79.5961 83.4094 77.9606 82.4234C75.3628 81.0888 72.7175 79.8493 70.1949 78.3801C65.7992 75.6873 61.158 73.1726 57.3681 69.656C54.7743 67.0701 54.3228 64.0565 54.2872 60.5676C54.1446 58.4886 53.812 56.3818 54.1011 54.3067C54.4694 52.3821 56.0851 50.9169 57.1345 49.2972C58.5601 47.4201 59.8709 45.4242 61.5342 43.757C61.946 43.3491 62.2509 42.87 62.5202 42.3552C63.9736 39.6742 66.3813 37.7694 68.2188 35.4052C68.5514 35.0409 69.0148 35.0409 69.4385 35.231C71.1255 36.0269 73.0382 36.5536 74.5549 37.6585C75.1529 38.3317 75.2994 39.4405 75.5489 40.3197C76.2063 42.5413 76.3093 45.1708 78.0359 46.8736C78.9348 47.7052 80.107 48.1884 81.0139 49.0121C81.6871 49.5506 82.2098 50.2635 82.8395 50.8575C84.4789 52.4494 87.0886 51.701 87.6074 49.5982C88.1064 47.4676 87.9519 45.1312 89.3023 43.2739C89.4172 43.1472 89.532 43.0838 89.631 43.2303C90.0429 44.6639 90.1894 46.24 90.5062 47.7132C90.6923 48.6477 90.7042 49.6694 91.3022 50.4258C92.0269 51.4198 93.4208 51.8198 94.5534 51.3208C95.69 50.8298 96.379 49.6378 97.3374 48.9012C98.6996 47.5983 100.866 47.1112 101.563 45.2025C102.224 43.2145 102.977 41.3018 103.242 39.195C103.329 38.6406 103.218 37.9832 103.638 37.5516C105.357 36.4863 107.265 35.8566 108.976 34.9933C109.206 34.8864 109.467 34.8033 109.705 34.8508C110.429 35.1161 110.869 35.9794 111.423 36.5021C112.501 37.7417 113.621 38.9376 114.611 40.2246C116.952 43.666 119.506 46.9093 121.993 50.2753C122.88 51.5386 124.314 52.5762 124.393 54.2354C124.634 58.2312 124.218 62.1913 123.288 66.0722C123.086 67.2325 122.397 68.1512 121.423 68.7888C117.985 72.4281 113.51 74.6933 109.344 77.4455C107.772 78.4474 106.149 79.3781 104.422 80.083C101.864 81.168 99.5115 82.6966 96.9532 83.7579C94.2841 84.8826 91.7299 86.431 90.1062 88.9179L90.0627 88.9734L90.0745 88.9813ZM96.7354 96.3035C95.591 97.25 94.4742 98.2598 93.1753 99.0122C92.308 99.4914 91.3853 98.4855 91.52 97.6776C91.5794 97.1114 92.1061 96.6282 92.5338 96.2481C94.5732 94.4581 95.5395 93.9987 97.8324 94.1571C98.062 94.169 98.3987 94.2363 98.2205 94.5215C97.8046 95.1115 97.2898 95.7768 96.7829 96.256L96.7354 96.2995V96.3035ZM163.495 74.0042C163.316 76.4634 163.015 78.9226 162.699 81.3779C162.033 85.8766 158.366 90.4109 153.994 91.7613C151.468 92.2365 148.922 91.7613 146.443 91.195C142.399 90.7831 138.732 89.0605 135.061 87.5002C133.695 86.922 132.503 86.13 131.161 85.4528C128.761 84.3203 126.028 84.9618 123.518 85.3222C120.761 85.8211 118.175 86.8706 115.566 87.7774C112.017 89.0248 108.366 90.1376 105.083 92.0583C104.398 92.4543 103.749 92.878 103.087 93.3097C102.695 93.575 102.299 93.6344 101.967 93.2027C99.7094 89.504 96.977 90.0743 93.4169 91.4088C93.2743 91.4484 92.9535 91.5395 92.8981 91.4603C92.8229 91.4049 92.8783 91.2583 93.005 91.0722C96.5335 86.9696 101.602 84.7875 106.616 82.9699C109.051 82.2293 111.059 80.7126 113.178 79.3543C116.674 77.1406 120.048 74.6933 123.11 71.9212C125.751 68.6779 127.953 64.8287 127.929 60.5082C127.798 58.243 128.369 55.9977 127.949 53.7365C127.846 53.0633 127.656 52.4059 127.256 51.8515C125.898 49.9348 124.472 48.0458 123.086 46.145C121.882 44.6679 121.13 42.8779 119.751 41.5513C118.932 40.8107 118.088 40.086 117.585 39.0802C116.294 36.7477 114.235 35.1478 112.421 33.3063C111.233 31.8688 109.515 31.255 107.725 31.9401C105.859 32.5341 104.07 33.1915 102.216 33.8489C99.9629 34.5894 99.5867 35.5121 100.268 37.7456C100.68 39.5039 100.216 41.2265 98.9372 42.5611C98.7392 42.7828 98.3868 43.0482 98.1492 42.9571C97.6304 42.7234 97.5116 41.8879 97.4364 41.3572C97.2542 39.4564 97.2423 37.4922 96.9532 35.6151C96.68 34.1498 95.7652 32.8589 94.8306 31.7144C94.4029 31.255 94.4069 30.6927 94.7831 30.2214C96.0068 28.479 97.3968 27.0019 98.8422 25.5406C101.052 23.2477 103.943 21.8775 106.853 20.7093C107.903 20.242 109.043 20.5113 110.156 20.5311C112.714 20.6261 115.09 21.2043 117.055 22.9467C117.391 23.2438 117.736 23.5566 118.116 23.7823C122.179 25.9762 125.894 28.8037 129.909 31.0927C131.505 31.8688 133.038 32.5817 134.717 33.2034C135.334 33.3657 135.762 32.9658 136.206 32.5698C137.144 31.6629 135.228 30.4986 134.602 30.0195C131.438 27.9483 128.175 25.9287 125.014 23.9209C120.916 21.4023 117.118 18.3768 112.77 16.278C112.548 16.1908 112.172 15.9413 112.382 15.7552C113.831 14.8167 115.728 14.8206 117.213 15.6602C120.318 17.0858 123.45 18.4837 126.06 20.7568C127.018 21.4261 128.159 21.8617 129.026 22.6814C129.786 23.4338 130.792 23.7586 131.679 24.3526C133.073 25.2594 134.305 26.4158 135.774 27.2078C136.693 27.6593 137.449 28.3444 138.269 28.9423C140.463 30.4036 142.748 31.7896 144.629 33.6707C146.502 35.8329 148.581 37.9634 150.011 40.4583C151.476 43.7412 153.444 46.739 155.23 49.8239C155.622 50.5367 155.986 51.2733 156.319 52.0217C157.42 54.5879 159.063 56.9164 160.437 59.3638C160.731 59.8984 160.94 60.4647 161.103 61.0547C161.879 63.9931 162.73 66.8958 163.332 69.858C163.59 71.1925 163.574 72.5825 163.491 73.9369V74.0121L163.495 74.0042Z"
                                fill="#FFE1F0"></path>
                            <path
                                d="M103.535 59.1736C102.723 56.4966 98.1728 53.578 94.6365 55.2769C92.9732 56.2075 91.3931 57.3203 89.718 58.2073C89.2943 58.4054 88.8745 58.2588 88.5062 58.0054C87.6271 57.4193 86.8074 56.8451 85.8807 56.3303C82.3918 54.2195 78.3367 54.8928 75.929 58.1796C75.1013 59.233 75.3112 60.5953 75.3548 61.8467C75.6201 65.1534 76.0795 68.5749 77.9486 71.3945C79.1802 73.2676 81.0415 74.4992 82.8314 75.7981C84.1026 76.7287 85.2154 77.7504 86.7123 78.2217C87.5598 78.5662 88.4785 78.879 89.3775 78.5543C90.7437 78.1385 92.2683 77.8454 93.3969 76.8911C95.5908 74.9506 97.5788 72.8122 99.5588 70.646C100.493 69.5253 101.052 68.1195 101.907 66.9196C103.59 64.6979 104.287 61.8586 103.551 59.237L103.531 59.1736H103.535ZM97.4244 67.8937C95.4285 70.345 92.799 72.2182 90.4784 74.3289C90.0507 74.7209 89.5794 74.9783 88.9735 74.9625C87.7142 75.0496 86.9499 74.016 85.8965 73.5725C84.0986 72.9072 83.0096 71.4974 81.9523 70.0163C80.487 68.2462 79.7029 66.1236 79.0099 64.0049C78.3407 62.5833 78.7248 60.7854 79.5802 59.5736C79.8019 59.2647 80.091 59.0152 80.4356 58.8647C82.3008 58.0648 84.2254 58.8845 85.16 60.726C86.1341 62.2189 87.3974 65.8226 89.6626 64.7455C90.2051 64.4564 90.6249 63.9138 90.9773 63.4188C91.7377 62.3258 92.4703 61.2408 93.2385 60.1716C93.5237 59.7755 93.8088 59.3954 94.2444 59.1538C95.4126 58.5479 97.7214 58.0846 98.8658 59.0667C99.341 59.5577 99.6024 60.5161 99.7727 61.2289C100.244 63.5535 98.8698 66.0959 97.4719 67.8383L97.4244 67.8937Z"
                                fill="#FFE1F0"></path>
                            <path
                                d="M180.036 72.2341C180.222 79.6712 179.07 87.7418 175.205 94.173C169.775 103.356 159.748 108.093 149.219 107.008C144.213 106.624 139.378 105.297 134.717 103.305C127.133 99.9033 121.708 101.978 114.841 105.657C111.978 107.222 108.929 108.604 106.149 110.097C101.191 112.932 95.8207 115.585 89.9439 115.478C86.8867 115.486 83.8097 114.825 81.0297 113.585C77.2479 111.831 73.7234 109.598 69.9732 107.76C62.7024 104.002 55.5584 99.436 47.2739 103.218C44.5771 104.347 41.7654 105.455 38.934 106.144C22.2461 110.493 7.52251 103.752 2.58032 86.7162C1.07944 81.1404 0.374548 75.0181 1.17449 69.3235C2.85753 59.1698 6.9483 49.5903 12.0331 40.692C14.8566 35.6706 17.6722 30.9145 21.0858 26.4555C23.1094 23.8537 25.5132 21.2915 28.2496 19.2322C32.285 16.2859 36.6886 13.7554 40.5972 10.8052C49.5351 4.46507 60.5679 -2.36609 71.8661 1.38411C75.8975 2.5563 79.3507 5.36797 82.4989 7.75194C86.7204 11.0705 90.4666 12.8486 95.3653 9.57358C98.672 7.45097 102.129 4.56407 105.4 2.71866C110.323 0.140645 116.128 -0.647414 121.633 0.7901C128.693 2.69094 134.919 6.61143 140.788 10.8052C144.954 13.9574 149.373 16.3335 153.488 19.4897C156.414 21.7865 158.984 24.5467 161.103 27.6039C164.936 33.346 168.116 39.3654 171.557 45.2699C174.092 49.9546 176.147 55.1542 177.719 60.1994C178.927 64.0526 179.814 67.9533 180.032 72.1549V72.2341H180.036Z"
                                fill="#2D7864"></path>
                            <path
                                d="M167.582 69.0185C167.003 66.8602 166.714 64.603 166.061 62.4606C165.582 61.324 164.631 60.3657 164.445 59.0945C163.087 53.0355 159.012 48.1013 156.177 42.7036C155.151 40.878 154.185 39.0168 153.1 37.2268C152.608 36.4269 151.86 35.8091 151.46 34.9775C150.945 33.8608 150.316 32.7717 149.464 31.8807C147.943 30.3323 146.213 29.0136 144.498 27.6593C143.219 26.7128 141.825 25.9208 140.221 25.5248C139.695 25.3901 139.208 25.1802 138.796 24.8238C137.425 23.6239 136.059 22.3369 134.685 21.137C134.364 20.8756 134.008 20.6776 133.632 20.5073C132.42 20.0084 131.386 19.2361 130.464 18.3174C129.664 17.4937 128.559 17.1215 127.593 16.5314C124.46 14.8088 121.351 12.8723 117.847 12.0842C115.696 11.613 113.475 12.1555 111.467 12.9673C109.97 13.6168 108.537 14.389 107.99 15.8621C107.895 16.0997 107.8 16.3453 107.661 16.5591C107.499 16.8165 107.277 17.0224 107.004 17.1888C104.988 18.456 102.794 19.1649 100.739 20.2895C99.1037 21.2756 97.7414 22.6062 96.4623 24.008C94.9297 25.6554 93.6388 27.5484 92.2725 29.3542C91.7617 29.972 90.8904 31.2827 90.1856 30.2452C86.3482 24.0279 80.4794 20.4954 74.1868 17.5293C73.8304 17.3551 73.5215 17.1215 73.2958 16.7928C72.5988 15.379 71.8978 14.1633 70.3851 13.49C68.6862 12.6426 66.8091 12.203 65.1063 12.203C62.651 12.1674 60.2591 13.0148 58.1207 14.1989C55.8516 15.4147 53.5191 16.5314 51.3727 17.9333C50.3272 18.6263 49.4006 19.4935 48.3591 20.1945C47.5908 20.7449 46.6562 21.0261 45.979 21.6874C44.8267 22.7685 43.6228 23.7902 42.4427 24.8318C41.9873 25.2476 41.4645 25.5604 40.8784 25.7505C35.1284 27.5484 31.2515 32.3282 28.1468 37.2348C24.6658 42.2641 21.8779 47.7528 18.9514 53.083C17.7 55.2294 16.9318 57.5698 16.3496 59.9776C15.8467 61.2012 14.9557 62.2507 14.7458 63.5852C14.2349 65.6049 13.7914 67.6443 13.134 69.66C12.9519 70.258 12.8093 70.8678 12.7658 71.4896C12.7182 74.4675 12.7182 77.5327 13.3558 80.4592C14.1874 83.548 14.5636 86.8547 16.7338 89.3535C19.684 92.7275 20.8008 94.2244 25.3707 95.2382C32.7919 96.3114 40.5775 93.8918 46.8146 89.8683C48.2086 88.8942 49.852 88.415 51.5153 88.4823C53.9547 88.51 56.2515 89.5595 58.6236 90.1059C59.7879 90.395 61.0353 90.1139 62.1917 90.4861C67.1497 92.3315 71.7157 95.1551 76.4361 97.543C77.0103 97.84 77.5331 98.1925 78.1231 98.4261C78.7726 98.6835 79.521 98.5132 80.1467 98.8974C81.8258 100.145 83.5445 101.345 85.3424 102.473C85.8334 102.79 86.3126 103.127 86.871 103.273C88.7005 103.776 92.2963 103.586 94.1219 103.008C95.1476 102.711 95.9 101.955 96.7949 101.412C98.276 100.533 99.6185 99.6141 100.985 98.6241C101.797 98.1212 102.858 98.339 103.686 97.8479C106.568 96.3391 109.582 95.0125 112.311 93.2621C116.247 90.3911 121.3 90.3515 125.771 88.9456C128.404 88.1615 131.477 87.6665 133.846 89.4011C140.289 93.4403 147.369 95.7451 155.08 95.0838C156.034 95.0244 156.901 94.6125 157.737 94.1848C158.719 93.7136 159.966 93.4403 160.893 92.7473C162.224 91.8246 163.182 90.5218 164.156 89.2387C165.661 87.3616 166.766 85.2509 167.023 82.8154C167.098 81.3304 167.732 79.9602 167.894 78.491C168.1 76.3011 168.199 74.0874 168.239 71.8895C168.306 70.9074 167.89 69.9887 167.609 69.0858L167.59 69.0145L167.582 69.0185ZM94.7793 45.6262C94.4387 42.6126 94.2645 39.492 93.9793 36.4427C93.9714 36.3081 93.9397 36.0349 93.9991 35.9755C95.2663 37.5199 95.4446 41.8799 94.7911 45.6143L94.7793 45.6262ZM86.5779 36.1339C86.9106 35.9636 87.1719 36.3715 87.1046 36.7041C86.8432 39.5831 86.574 42.4621 86.3126 45.3411C86.2967 45.9866 85.8017 46.0856 85.7503 45.3767C85.5641 42.3908 85.7463 39.4128 86.368 36.4942C86.4037 36.3477 86.4512 36.2289 86.5343 36.1616L86.5779 36.1339ZM77.4063 93.6146C77.2242 93.6819 77.0182 93.6304 76.7925 93.5235C75.6085 92.9137 74.4125 92.28 73.268 91.5831C70.8049 90.0862 68.0249 89.3892 65.3439 88.4506C63.8232 87.9437 62.3659 87.1874 60.8294 86.7438C57.986 86.0548 55.0833 85.5756 52.1845 85.1598C49.951 84.6687 48.7194 85.5202 46.9334 86.629C45.3217 87.4844 43.5476 87.9754 41.916 88.7952C38.9538 90.4544 35.5878 91.1435 32.3246 91.5989C30.0318 92.0781 27.6755 92.4107 25.3786 91.7771C24.9708 91.7058 24.5747 91.591 24.2065 91.393C18.4128 88.5576 16.7536 83.0807 16.3536 77.0178C16.2308 75.5685 16.4724 74.127 16.4328 72.6776C16.4566 71.9331 16.1477 71.1569 16.1873 70.4481C16.8843 67.6562 17.6485 64.8564 18.3376 62.0645C18.5396 61.2329 18.6742 60.3894 19.1455 59.6647C21.0146 56.8174 22.4601 53.7127 23.9966 50.6714C25.0737 48.8418 26.1786 47.0162 27.327 45.25C28.4596 43.7729 28.8041 41.872 29.7268 40.3197C31.493 37.8684 33.5958 35.6547 35.663 33.4806C36.356 32.7995 37.0292 32.0985 37.8094 31.5203C38.934 30.7006 40.3161 30.162 41.3814 29.2869C42.8229 27.9087 44.9019 27.3662 46.1889 25.8297C46.4503 25.5248 46.7394 25.2476 47.0958 25.0614C47.8799 24.6931 48.7274 24.4199 49.4045 23.8615C51.4202 22.2498 53.6022 20.8439 55.7882 19.4698C58.1009 17.8976 60.572 16.6264 63.1896 15.5929C64.4925 15.0384 65.7914 15.2642 67.1774 15.8225C67.4467 15.9334 67.7912 16.1393 67.3794 16.3532C65.0667 17.2759 63.0827 18.6104 61.0868 20.048C56.5881 23.0616 51.737 25.5881 47.3809 28.8275C46.1375 29.6591 44.7554 30.3086 43.6505 31.3501C43.0525 31.9124 43.1476 32.3163 43.6149 32.8391C44.0228 33.3776 44.6643 33.6865 45.294 33.342C49.7887 31.4926 53.8715 28.875 57.8593 26.0911C59.8948 25.0416 61.7204 23.6952 63.6213 22.424C66.0488 20.8083 69.0862 20.7053 71.8979 20.6063C74.064 21.1964 76.0916 22.3646 77.9964 23.4814C79.6715 24.5347 81.2357 25.8376 82.5149 27.4256C83.3267 28.4671 84.19 29.4057 85.1008 30.3482C85.4889 30.7283 85.7384 31.1956 85.2869 31.6708C84.1662 32.8668 82.9742 34.1182 82.8871 35.8487C82.8039 37.8525 82.6376 39.8761 82.3525 41.8601C82.1307 43.6897 81.0773 43.662 80.1982 42.2364C79.4656 40.8384 79.1052 39.3257 79.5329 37.6902C79.6755 37.112 79.8774 36.4546 79.7665 35.8804C79.5844 34.8666 78.3488 34.4231 77.4737 34.0865C75.6045 33.3895 73.7868 32.645 71.882 32.1064C69.605 31.4095 68.3852 32.2609 66.9398 33.9004C65.0548 35.4606 63.6371 37.4288 62.061 39.2821C61.364 40.0741 60.6512 40.8543 59.978 41.6701C58.584 43.3967 57.2455 45.1629 55.903 46.9291C54.3467 49.0596 52.3786 51.2178 51.8123 53.8355C51.143 56.0967 51.8241 58.5797 51.8321 60.928C51.8994 64.8841 54.2279 69.3471 56.8891 72.2895C59.9265 75.2398 63.6094 77.4337 67.1735 79.679C68.1635 80.3839 68.9753 81.3225 70.0762 81.861C74.0561 83.6827 78.2894 85.1598 82.103 87.3022C83.794 88.2447 85.1681 89.6783 86.5145 91.0643C86.7442 91.3098 86.7838 91.4484 86.5225 91.4167C82.701 90.3 79.8576 89.7337 78.0241 92.9216C77.8816 93.1711 77.6796 93.476 77.4539 93.5869L77.3984 93.6106L77.4063 93.6146ZM87.1482 99.234C85.0731 98.6796 82.6614 96.3352 81.7308 94.5611C81.6397 94.3234 81.8377 94.2363 82.0555 94.2086C84.6058 94.0066 86.273 95.46 87.7145 97.1114C88.3996 97.7687 88.0194 98.83 87.2115 99.2181L87.1521 99.23L87.1482 99.234ZM91.3617 88.9813C90.4113 90.205 89.9044 89.4209 89.148 88.5417C87.7857 87.0092 86.1859 85.7776 84.3761 84.8549C82.6614 84.051 80.8833 83.4094 79.2478 82.4234C76.65 81.0888 74.0046 79.8493 71.482 78.3801C67.0863 75.6873 62.4451 73.1726 58.6553 69.656C56.0614 67.0701 55.61 64.0565 55.5744 60.5676C55.4318 58.4886 55.0991 56.3818 55.3882 54.3067C55.7565 52.3821 57.3722 50.9169 58.4217 49.2972C59.8473 47.4201 61.1581 45.4242 62.8213 43.757C63.2332 43.3491 63.5381 42.87 63.8074 42.3552C65.2607 39.6742 67.6685 37.7694 69.506 35.4052C69.8386 35.0409 70.3019 35.0409 70.7257 35.231C72.4127 36.0269 74.3254 36.5536 75.8421 37.6585C76.4401 38.3317 76.5866 39.4405 76.8361 40.3197C77.4935 42.5413 77.5964 45.1708 79.323 46.8736C80.222 47.7052 81.3941 48.1884 82.301 49.0121C82.9742 49.5506 83.497 50.2635 84.1266 50.8575C85.7661 52.4494 88.3758 51.701 88.8946 49.5982C89.3935 47.4676 89.2391 45.1312 90.5895 43.2739C90.7043 43.1472 90.8192 43.0838 90.9182 43.2303C91.33 44.6639 91.4765 46.24 91.7934 47.7132C91.9795 48.6477 91.9914 49.6694 92.5893 50.4258C93.314 51.4198 94.708 51.8198 95.8406 51.3208C96.9771 50.8298 97.6662 49.6378 98.6245 48.9012C99.9868 47.5983 102.153 47.1112 102.85 45.2025C103.511 43.2145 104.264 41.3018 104.529 39.195C104.616 38.6406 104.505 37.9832 104.925 37.5516C106.644 36.4863 108.552 35.8566 110.263 34.9933C110.493 34.8864 110.754 34.8033 110.992 34.8508C111.717 35.1161 112.156 35.9794 112.711 36.5021C113.788 37.7417 114.908 38.9376 115.898 40.2246C118.239 43.666 120.793 46.9093 123.28 50.2753C124.167 51.5386 125.601 52.5762 125.68 54.2354C125.921 58.2312 125.506 62.1913 124.575 66.0722C124.373 67.2325 123.684 68.1512 122.71 68.7888C119.272 72.4281 114.798 74.6933 110.632 77.4455C109.059 78.4474 107.436 79.3781 105.709 80.083C103.151 81.168 100.799 82.6966 98.2404 83.7579C95.5713 84.8826 93.017 86.431 91.3934 88.9179L91.3498 88.9734L91.3617 88.9813ZM98.0226 96.3035C96.8781 97.25 95.7614 98.2598 94.4625 99.0122C93.5952 99.4914 92.6725 98.4855 92.8071 97.6776C92.8665 97.1114 93.3932 96.6282 93.8209 96.2481C95.8604 94.4581 96.8266 93.9987 99.1195 94.1571C99.3492 94.169 99.6858 94.2363 99.5076 94.5215C99.0918 95.1115 98.577 95.7768 98.0701 96.256L98.0226 96.2995V96.3035ZM164.782 74.0042C164.604 76.4634 164.303 78.9226 163.986 81.3779C163.321 85.8766 159.654 90.4109 155.282 91.7613C152.755 92.2365 150.209 91.7613 147.73 91.195C143.686 90.7831 140.019 89.0605 136.348 87.5002C134.982 86.922 133.79 86.13 132.448 85.4528C130.048 84.3203 127.315 84.9618 124.805 85.3222C122.048 85.8211 119.463 86.8706 116.853 87.7774C113.305 89.0248 109.653 90.1376 106.37 92.0583C105.685 92.4543 105.036 92.878 104.375 93.3097C103.983 93.575 103.587 93.6344 103.254 93.2027C100.997 89.504 98.2641 90.0743 94.704 91.4088C94.5615 91.4484 94.2407 91.5395 94.1852 91.4603C94.11 91.4049 94.1655 91.2583 94.2922 91.0722C97.8206 86.9696 102.89 84.7875 107.903 82.9699C110.338 82.2293 112.346 80.7126 114.465 79.3543C117.962 77.1406 121.336 74.6933 124.397 71.9212C127.038 68.6779 129.24 64.8287 129.216 60.5082C129.086 58.243 129.656 55.9977 129.236 53.7365C129.133 53.0633 128.943 52.4059 128.543 51.8515C127.185 49.9348 125.759 48.0458 124.373 46.145C123.169 44.6679 122.417 42.8779 121.039 41.5513C120.219 40.8107 119.375 40.086 118.872 39.0802C117.581 36.7477 115.522 35.1478 113.708 33.3063C112.52 31.8688 110.802 31.255 109.012 31.9401C107.147 32.5341 105.357 33.1915 103.503 33.8489C101.25 34.5894 100.874 35.5121 101.555 37.7456C101.967 39.5039 101.504 41.2265 100.224 42.5611C100.026 42.7828 99.6739 43.0482 99.4363 42.9571C98.9176 42.7234 98.7988 41.8879 98.7235 41.3572C98.5413 39.4564 98.5295 37.4922 98.2404 35.6151C97.9671 34.1498 97.0524 32.8589 96.1178 31.7144C95.6901 31.255 95.694 30.6927 96.0703 30.2214C97.2939 28.479 98.6839 27.0019 100.129 25.5406C102.339 23.2477 105.23 21.8775 108.141 20.7093C109.19 20.242 110.331 20.5113 111.443 20.5311C114.002 20.6261 116.378 21.2043 118.342 22.9467C118.678 23.2438 119.023 23.5566 119.403 23.7823C123.466 25.9762 127.181 28.8037 131.196 31.0927C132.792 31.8688 134.325 32.5817 136.004 33.2034C136.622 33.3657 137.049 32.9658 137.493 32.5698C138.431 31.6629 136.515 30.4986 135.889 30.0195C132.725 27.9483 129.462 25.9287 126.302 23.9209C122.203 21.4023 118.405 18.3768 114.057 16.278C113.835 16.1908 113.459 15.9413 113.669 15.7552C115.118 14.8167 117.015 14.8206 118.5 15.6602C121.605 17.0858 124.737 18.4837 127.347 20.7568C128.305 21.4261 129.446 21.8617 130.313 22.6814C131.074 23.4338 132.079 23.7586 132.966 24.3526C134.36 25.2594 135.592 26.4158 137.061 27.2078C137.98 27.6593 138.736 28.3444 139.556 28.9423C141.75 30.4036 144.035 31.7896 145.916 33.6707C147.789 35.8329 149.868 37.9634 151.298 40.4583C152.763 43.7412 154.731 46.739 156.517 49.8239C156.909 50.5367 157.273 51.2733 157.606 52.0217C158.707 54.5879 160.35 56.9164 161.725 59.3638C162.018 59.8984 162.228 60.4647 162.39 61.0547C163.166 63.9931 164.018 66.8958 164.619 69.858C164.877 71.1925 164.861 72.5825 164.778 73.9369V74.0121L164.782 74.0042Z"
                                fill="#FFE1F0"></path>
                            <path
                                d="M104.822 59.1737C104.01 56.4967 99.4602 53.5781 95.9238 55.2769C94.2606 56.2076 92.6805 57.3204 91.0054 58.2074C90.5816 58.4054 90.1619 58.2589 89.7936 58.0054C88.9144 57.4194 88.0947 56.8451 87.168 56.3303C83.6792 54.2196 79.6241 54.8928 77.2163 58.1797C76.3887 59.2331 76.5986 60.5953 76.6421 61.8467C76.9074 65.1534 77.3668 68.5749 79.236 71.3945C80.4676 73.2676 82.3288 74.4992 84.1188 75.7981C85.39 76.7288 86.5028 77.7505 87.9997 78.2217C88.8471 78.5662 89.7659 78.8791 90.6648 78.5544C92.031 78.1386 93.5557 77.8455 94.6843 76.8911C96.8782 74.9507 98.8662 72.8122 100.846 70.6461C101.781 69.5254 102.339 68.1195 103.195 66.9196C104.878 64.698 105.575 61.8586 104.838 59.237L104.818 59.1737H104.822ZM98.7117 67.8938C96.7158 70.3451 94.0863 72.2182 91.7657 74.3289C91.338 74.721 90.8668 74.9784 90.2609 74.9626C89.0016 75.0497 88.2373 74.0161 87.1839 73.5726C85.386 72.9073 84.297 71.4975 83.2396 70.0164C81.7744 68.2462 80.9903 66.1236 80.2973 64.005C79.628 62.5833 80.0122 60.7854 80.8675 59.5736C81.0893 59.2648 81.3784 59.0153 81.7229 58.8648C83.5881 58.0648 85.5127 58.8846 86.4473 60.726C87.4215 62.219 88.6848 65.8227 90.9499 64.7455C91.4925 64.4564 91.9122 63.9139 92.2647 63.4189C93.025 62.3259 93.7576 61.2408 94.5259 60.1716C94.811 59.7756 95.0961 59.3954 95.5318 59.1539C96.7 58.548 99.0087 58.0846 100.153 59.0668C100.628 59.5578 100.89 60.5161 101.06 61.229C101.531 63.5535 100.157 66.0959 98.7592 67.8384L98.7117 67.8938Z"
                                fill="#FFE1F0"></path>
                        </svg>