<svg xmlns="http://www.w3.org/2000/svg" width="100%" viewBox="0 0 145 138" fill="none"
                            data-scroll-animation-target="">
                            <path
                                d="M140.3 10.5643C132.182 -3.95735 115.664 -1.52983 103.994 7.11109C100.394 9.71684 96.9764 13.0512 92.6005 14.1917C87.9197 15.5223 82.8784 14.3502 78.0749 15.0154C73.6633 15.5897 69.4617 17.2133 65.7075 19.3319C61.5177 21.8347 57.4309 24.0207 52.3897 23.791C47.9346 23.6841 42.9884 22.801 38.4106 24.191C32.4585 25.7948 27.3223 29.4381 22.5425 33.22C19.0537 35.9722 15.7113 38.9344 12.6977 42.1658C6.48829 49.0564 -0.228047 57.5627 0.255084 67.3322C0.50457 70.9319 1.95001 74.2743 2.73807 77.7354C3.39544 80.4481 3.54594 83.232 3.09449 85.9882C2.33415 90.3879 0.738219 95.5083 0.952064 100.252C0.928303 105.915 3.64098 110.949 4.69832 116.378C6.02099 122.857 5.42698 130.448 11.5612 134.65C23.5365 142.519 37.3374 131.351 48.3266 126.349C60.9712 120.168 74.2415 115.776 88.2206 113.962C97.2338 112.659 106.722 112.616 115.3 109.337C127.212 105.096 137.239 91.2512 132.372 78.567C130.249 73.0704 128.079 68.8608 131.057 63.5147C132.887 60.1248 135.215 56.7627 136.906 53.163C143.203 39.9878 147.464 24.2741 140.339 10.6316L140.3 10.5603V10.5643Z"
                                fill="#F0BEFA"></path>
                            <path
                                d="M120.432 89.9839C117.204 94.9935 116.096 95.8172 110.69 98.2011C109.506 98.7635 108.215 99.0565 106.92 99.2268C104.469 99.5436 102.014 99.8564 99.5543 100.146C91.9589 100.862 84.3199 101.294 76.8828 103.044C62.8681 105.903 49.4275 111.269 36.8542 118.025C32.4268 120.386 28.3281 123.474 23.4216 124.793C21.7029 125.197 19.4496 126.227 17.9923 124.853C14.6223 120.235 26.9104 109.646 30.4864 107.167C38.1729 100.783 46.996 96.0983 56.1636 92.2135C59.9732 90.5106 63.7551 88.7405 67.6083 87.1485C72.4079 85.4575 77.2036 83.7032 82.0468 82.1152C86.9533 80.7094 91.9074 79.363 96.8655 78.1195C99.9939 77.4859 103.186 77.2364 106.338 76.7533C107.625 76.583 108.908 76.4246 110.191 76.6186C114.108 77.3275 118.634 77.9175 121.093 81.3668C122.677 83.9567 122.297 87.5208 120.479 89.9245L120.436 89.9879L120.432 89.9839Z"
                                fill="#A0325A"></path>
                            <path
                                d="M88.8781 30.4796C87.8643 28.4718 86.3912 27.3194 84.1141 26.9749C82.0548 26.5591 79.853 26.6105 77.7304 27.1491C74.0436 28.0956 70.9904 30.3964 67.8975 32.416C66.2303 33.5209 64.7651 34.8713 63.4345 36.3682C57.427 43.4449 52.7225 51.5076 49.8712 60.3783C49.0673 63.182 48.6396 66.0214 48.2911 68.8766C47.9387 71.7437 47.511 74.6742 48.2713 77.5175C49.5425 82.3013 52.564 86.499 58.0686 86.1624C61.0149 86.0951 63.4622 84.7962 66.0402 83.7507C66.8124 83.4339 67.5965 83.1329 68.3094 82.6973C80.1263 74.3217 88.197 57.721 90.3196 43.6191C90.6601 41.0174 90.6443 38.2255 90.6364 35.5366C90.6364 33.7664 89.7533 32.0953 88.9177 30.5469L88.8781 30.4796ZM67.7787 67.9262C65.3868 69.6686 64.9908 65.4868 65.3472 63.9542C65.7591 60.8495 66.8244 57.9982 69.0975 55.7687C69.636 55.2618 70.2974 54.6282 71.0735 54.6678C71.9448 54.7232 72.6259 55.7727 72.6655 56.632C72.5269 60.8574 71.2715 65.1739 67.8421 67.8826L67.7787 67.9262Z"
                                fill="#A0325A"></path>
                            <path
                                d="M129.829 16.4292C127.794 12.6235 123.885 11.1543 119.929 12.576C117.51 13.3324 115.13 14.2709 112.936 15.5896C104.311 21.0031 97.8358 29.4698 94.1529 38.8552C93.6856 40.1937 93.6658 41.6906 93.2143 43.037C92.1134 45.6151 91.1195 48.2366 90.6245 51.0008C89.6661 54.7272 89.6225 58.5725 89.8998 62.394C89.9314 63.4592 90.2839 64.4572 90.7908 65.3799C91.7135 67.2649 92.5609 69.431 94.3192 70.8963C96.3626 72.7694 99.3723 73.2723 101.95 72.2863C104.291 71.4467 106.615 70.4646 108.671 69.043C110.825 67.5262 112.611 65.7046 114.563 63.9741C115.993 62.7068 117.339 61.3564 118.476 59.816C122.994 53.6976 127.137 47.0922 129.358 39.762C130.265 36.2692 131.564 32.7883 131.714 29.1767C131.845 24.8483 132.035 20.421 129.869 16.4965L129.829 16.4252V16.4292ZM109.843 51.9789C108.136 53.2461 105.78 52.4066 106.184 50.086C106.493 46.9575 107.57 43.6152 110.267 41.754C113.585 39.271 114.924 41.7896 113.886 45.0725C113.248 47.7337 112.112 50.2127 109.91 51.9354L109.847 51.9829L109.843 51.9789Z"
                                fill="#A0325A"></path>
                            <path
                                d="M50.2632 46.7793C49.4039 50.4226 48.6713 54.1174 47.507 57.6815C46.4021 61.7683 44.5805 65.5185 42.937 69.3796C41.0679 74.4208 38.9928 79.4105 36.2643 84.0834C33.021 90.5621 29.1837 96.8428 23.6039 101.559C21.9486 103.191 19.8655 104.284 17.739 105.151C12.6542 107.214 12.5117 101.14 12.872 97.7338C13.0502 95.8449 13.8106 94.0193 14.4125 92.257C17.0578 83.5686 20.7526 75.1732 25.1008 67.1936C25.4255 66.6669 26.2056 65.0947 25.0018 65.4432C23.9246 65.9224 22.9544 66.7303 21.9129 67.2926C20.0873 68.3816 18.0479 69.1974 16.0322 69.9261C15.1372 70.231 14.1987 70.0924 13.3552 69.6172C11.1296 68.5678 11.6602 65.5779 12.2741 63.7127C12.674 62.5128 13.5215 61.5267 14.2224 60.4971C16.0797 57.3052 18.4003 54.3827 20.6615 51.472C21.8535 49.8761 23.5286 48.8306 25.0335 47.5278C26.6136 46.1299 28.055 44.5815 29.7143 43.2865C32.6289 40.9976 35.6624 38.8354 38.7988 36.8712C39.8403 36.2098 40.8976 35.6514 42.1212 35.3703C44.0062 34.9545 46.4734 34.6812 48.0218 35.7703C50.8493 38.1859 51.1344 43.3023 50.2791 46.7041L50.2632 46.7793Z"
                                fill="#A0325A"></path>
                        </svg>