<svg xmlns="http://www.w3.org/2000/svg" width="100%" viewBox="0 0 158 144" fill="none">
                            <path
                                d="M157.12 95.7642C155.849 104.112 152.91 112.084 149.794 119.913C145.568 130.229 139.794 140.588 127.993 142.953C119.76 145.012 112.303 142.802 104.304 140.723C99.7539 139.535 95.2076 138.565 90.6733 137.365C86.1628 136.102 81.7196 134.831 77.1575 133.734C71.5223 132.363 66.0614 130.736 60.7074 128.906C56.0661 127.35 51.219 126.059 46.7441 124.008C37.7467 119.893 29.4702 112.646 27.3515 102.591C26.2783 96.4414 26.0763 94.0337 20.9955 89.7528C19.1977 88.2519 17.4156 86.7827 15.4554 85.5472C13.4278 84.2641 11.3092 83.1672 9.3489 81.7653C4.28395 78.2923 0.0743846 72.1541 0.454553 66.0239C0.989166 59.7234 5.74525 54.2862 11.2141 51.2805C16.2316 48.4688 19.6887 49.0154 17.277 42.0575C14.0931 32.1493 9.98253 21.4135 13.1704 11.0143C15.095 4.28608 21.7123 -0.454143 28.7257 0.254713C34.0005 0.694284 38.713 4.05641 42.1306 8.00462C42.9305 8.8996 43.6987 9.83022 44.4472 10.7727C45.8253 12.4003 47.2351 14.7803 49.2508 15.2357C50.9853 15.5763 52.5614 13.7705 53.896 12.5864C60.8935 5.65629 71.2649 7.20863 76.8566 15.1526C79.0188 18.4078 80.7771 21.2828 84.7887 22.3441C91.7703 23.7935 97.9243 28.1813 100.083 35.155C101.374 39.4478 101.092 44.3979 105.155 47.2689C107.575 49.0668 110.565 49.2252 113.464 48.8292C122.35 47.4036 132.262 50.0766 138.927 56.2821C141.866 59.0621 143.37 62.844 145.936 65.9408C147.917 68.5069 150.277 70.7087 152.098 73.3897C157.266 80.5337 158.688 86.9847 157.12 95.681L157.108 95.7603L157.12 95.7642Z"
                                fill="#2D2D2D"></path>
                            <path
                                d="M142.455 82.2405C141.43 80.4901 139.695 79.2585 138.745 77.4448C138.527 77.025 138.297 76.5617 137.913 76.2726C137.525 75.9795 137.022 75.9123 136.559 75.8093C135.078 75.4964 133.945 74.4708 132.615 73.8332C131.755 73.3738 130.817 73.0847 131.035 71.8928C132.068 67.3743 130.769 64.9982 126.825 62.8717C124.485 61.4658 121.736 60.9391 119.059 60.3926C117.582 60.0996 116.01 60.1867 114.525 60.3016C112.066 60.8124 111.278 63.6518 110.335 65.6675C109.638 67.3307 108.811 68.1505 107.274 66.8555C106.003 65.8417 104.783 64.82 103.69 63.632C102.047 61.7034 100.574 59.6283 98.3321 58.3532C96.6214 57.4265 95.3106 55.8465 93.7107 54.8089C90.309 52.9595 86.4597 52.0052 82.6976 51.4587C80.674 51.1854 78.6108 51.126 76.5199 51.1894C74.8883 51.0547 73.4469 51.4032 71.8985 51.8864C67.38 52.8764 62.814 54.5555 59.5628 57.9414C58.0461 59.7868 56.5215 60.5986 54.2048 59.5729C53.0088 59.2125 51.6901 59.2878 50.4387 59.3432C49.1398 59.2838 47.6825 59.4501 46.9578 60.7015C46.0311 62.4796 45.6748 64.5468 44.9421 66.412C44.2452 68.5267 43.4967 70.6136 42.8195 72.7323C41.9958 75.1519 41.7899 77.7655 40.4276 79.9872C40.1504 80.4624 39.9485 80.9732 39.8415 81.5157C39.1564 84.9412 38.503 88.3786 37.806 91.8081C37.6239 92.9327 36.9665 93.9544 37.0695 95.1147C37.3942 97.8155 37.5091 100.702 38.5704 103.241C39.4495 104.948 41.089 106.151 42.2849 107.652C42.8512 108.373 43.5046 109.03 44.2887 109.51C46.9222 111.113 49.4527 112.979 52.399 113.973C57.9392 115.632 63.4318 117.454 68.9205 119.263C70.1363 119.671 71.2926 120.234 72.5638 120.436C74.6072 120.697 76.5714 121.192 78.5 121.932C80.9077 122.804 83.5015 122.95 85.9687 123.6C87.5171 123.972 88.9031 124.768 90.4 125.18C93.085 125.944 95.865 126.451 98.5816 127.104C104.205 128.475 109.836 129.94 115.436 131.358C118.691 132.157 122.093 131.852 125.253 130.827C127.431 130.173 129.716 129.239 130.912 127.199C132.48 124.859 134.361 122.649 135.038 119.798C135.216 118.547 136.123 117.6 136.812 116.618C137.414 115.561 137.676 114.341 138.103 113.208C139.157 109.933 140.491 106.694 141.719 103.455C142.087 102.187 142.055 100.805 142.495 99.558C142.709 98.8847 143.208 98.3185 143.327 97.6492C143.544 96.0929 143.481 94.4613 143.806 92.9486C145.152 89.0241 144.618 85.86 142.487 82.3117L142.448 82.2484L142.455 82.2405ZM113.67 66.9624C114.141 66.0437 114.545 64.7408 115.234 64.0557C116.541 63.2795 118.263 63.6201 119.653 64.0042C121.669 64.6656 127.522 66.606 127.764 68.8989C127.803 69.6236 127.815 70.5701 127.55 71.3067C127.431 71.4849 127.423 71.4452 127.292 71.5165C127.074 71.5838 126.837 71.5403 126.603 71.4967C123.487 70.8037 120.366 70.0711 117.246 69.4018C116.406 69.2038 115.658 69.3306 114.739 69.2514C113.361 69.1524 113.068 68.2455 113.638 67.0416L113.67 66.9664V66.9624ZM99.0212 79.5912C100.526 76.035 101.187 72.2927 101.31 68.3802C101.322 68.1227 101.342 67.8257 101.528 67.6752C102.304 67.1644 103.524 70.3919 103.635 70.9701C104.122 73.4412 104.51 76.0073 103.852 78.5219C103.555 79.6387 103.144 80.7079 102.918 81.8445C102.336 84.8027 100.783 87.349 99.4409 89.9904C98.4984 91.9664 96.8629 93.3921 95.3739 94.9682C94.9106 95.483 94.4512 95.9859 93.8413 96.3344C90.1822 98.4729 86.2895 100.79 81.8938 100.619C79.2326 100.489 76.607 99.8273 74.1439 98.8293C72.9004 98.3343 71.653 97.7799 70.4531 97.2175C69.867 96.9324 69.2334 96.4929 69.0156 95.8553C68.9601 95.5979 69.1977 95.483 69.5858 95.4751C70.4214 95.4592 71.2767 95.4513 72.1163 95.4751C74.7458 95.7008 77.3119 95.4315 79.8583 94.7623C80.9196 94.5603 82.0443 94.5682 83.0739 94.2198C84.2421 93.8237 85.2242 93.0555 86.3093 92.4852C88.6259 91.3051 90.998 90.0775 92.9068 88.3113C95.4095 85.8204 97.5559 82.9216 98.9934 79.6585L99.0251 79.5872L99.0212 79.5912ZM56.66 72.4788C57.0362 69.4137 57.2343 66.0437 59.2895 63.5686C60.4063 62.4321 61.2181 60.951 62.4497 59.965C66.5564 57.4107 70.9362 55.391 75.8823 55.1099C78.4604 54.9713 80.9235 55.3475 83.4699 55.3475C85.8301 55.4584 87.7428 56.5474 89.6793 57.7116C91.0732 58.5076 92.5187 59.4462 93.5958 60.6817C95.0571 62.4162 96.4827 64.3052 97.2154 66.4476C97.841 69.1722 97.1877 72.0155 96.455 74.6727C95.9284 76.8072 94.8947 78.7477 93.7978 80.6525C92.0751 83.6859 89.2397 85.5551 86.3607 87.3015C85.3667 87.9153 84.5787 88.7746 83.4936 89.2261C80.7928 90.426 78.298 91.6813 75.5537 91.4437C72.8291 91.3764 69.9501 91.7249 67.4989 90.7943C66.0297 90.1963 64.3664 89.9547 63.0952 88.9687C61.82 87.939 60.7865 86.5649 59.7173 85.2581C58.8658 84.2166 57.9391 83.2067 57.357 82.0266C55.7453 79.0882 56.4501 75.6786 56.66 72.558V72.4828V72.4788ZM41.4652 98.9441C40.6375 98.3263 40.6019 97.2769 40.5108 96.2829C40.0277 93.2416 41.2157 90.3468 42.1384 87.5074C44.0551 81.8326 44.5264 75.5875 47.5004 70.3048C48.2766 68.7801 48.7399 67.1565 49.326 65.5368C49.5992 64.8279 49.8685 63.9448 50.4783 63.4577C51.1436 62.9469 52.3594 63.0736 53.3296 63.0499C53.9434 63.0855 54.8265 62.939 55.2344 63.5013C55.373 63.7706 55.3294 63.929 55.278 64.2022C54.6879 66.1744 53.7533 67.9525 53.1158 69.9167C52.7712 71.3898 52.8307 72.9105 52.5495 74.3955C52.1773 76.6171 52.9455 78.7754 53.5316 80.7554C54.0227 82.4345 54.3395 84.3195 55.5631 85.8046C56.4304 86.6956 56.6601 87.9192 57.2303 88.9924C58.7906 91.3803 60.6201 93.6218 63.0596 95.186C64.5684 95.9384 65.0832 97.7917 66.3781 98.7501C67.4434 99.6649 68.7106 100.287 69.9976 100.833C72.9321 102.017 75.8269 103.32 78.9316 103.966C83.7431 104.932 88.5309 103.031 92.891 101.193C93.3226 101.023 93.7384 100.813 94.1067 100.532C95.3343 99.5263 96.6253 98.5283 97.8014 97.4472C100.736 94.5366 102.87 90.9131 104.787 87.254C106.716 83.4127 106.85 79.1714 107.424 75.0212C107.615 74.0114 107.48 73.1481 107.179 72.1264C107.032 71.6393 107.171 71.271 107.749 71.3938C110.446 71.9165 113.214 72.2214 115.919 72.7323C119.412 73.3461 122.766 74.4549 126.092 75.7103C128.064 76.4706 129.997 77.2943 131.965 78.1061C132.999 78.5378 134.009 79.1476 134.543 80.1535C135.208 81.5554 135.272 83.3572 135.185 84.9016C135.109 85.7372 134.646 86.5411 134.567 87.3292C134.5 87.9272 134.543 88.541 134.393 89.131C134.298 89.5231 134.131 89.8914 133.965 90.2557C132.912 92.4971 132.753 95.0632 131.589 97.2809C130.662 99.0273 130.583 101.083 129.724 102.865C128.615 105.169 127.736 107.577 126.797 109.953C125.768 112.496 125.128 114.983 123.435 117.489C123.435 117.489 123.023 118.349 122.188 118.59C121.312 118.63 117.677 118.84 114.062 118.531C110.509 117.858C106.05 116.479 101.595 115.101 96.9619 114.428C95.0017 114.064 93.1166 113.375 91.1722 112.903C85.7984 111.731 80.4285 110.583 75.1418 109.078C68.8294 107.557 62.4577 106.262 56.3116 104.128C52.5574 103.015 48.7518 101.982 45.0134 100.797C43.766 100.409 42.5859 99.7322 41.5444 98.9798L41.4889 98.9323L41.4652 98.9441ZM140.432 93.3525C140.103 95.0276 139.18 96.6235 139.458 98.3858C139.501 98.7145 139.521 99.055 139.442 99.3718C138.622 101.13 138.202 103.027 137.664 104.892C137.371 105.898 136.717 106.761 136.484 107.787C136.214 108.943 135.43 109.937 135.01 111.05C134.69 111.818 134.793 112.698 134.416 113.442C133.755 114.666 133.565 116.159 132.769 117.327C132.326 118.024 131.506 118.436 131.11 119.133C130.84 119.592 130.753 120.143 130.611 120.649C130.203 122.214 128.896 123.204 128.037 124.463C127.803 124.792 127.526 125.081 127.173 125.279C125.578 125.992 124.021 126.883 122.291 127.203C120.065 127.461 117.796 127.405 115.57 127.326C114.493 127.263 113.432 127.025 112.394 126.736C110.553 126.197 108.636 126.071 106.775 125.611C104.878 125.128 103.159 124.134 101.259 123.671C99.136 123.029 96.8867 122.824 94.7641 122.289C92.5108 121.687 90.2654 121.061 87.9685 120.649C85.7509 120.214 83.5729 119.275 81.3592 118.753C79.9771 118.42 78.4841 118.368 77.0862 117.957C73.3756 116.848 69.7838 115.208 65.9029 114.812C65.0594 114.828 64.4575 114.238 63.713 113.961C62.3349 113.668 60.9726 113.446 59.6974 112.903C56.3512 111.521 53.0128 109.993 49.7061 108.579C48.3082 108.044 47.0568 107.977 46.3876 106.294C46.2371 105.957 46.0035 105.621 46.0431 105.249C46.0985 105.161 46.1064 105.177 46.1539 105.154C46.9064 105.106 47.6746 105.427 48.3835 105.577C52.8267 106.983 57.4085 107.973 62.0299 108.682C64.1486 109.181 66.2395 110.135 68.3502 110.67C72.837 111.466 77.209 112.638 81.4463 114.333C89.8298 116.349 98.1697 118.717 106.577 120.638C108.292 120.982 109.915 121.667 111.63 122.024C112.755 122.356 113.978 122.008 115.099 122.328C116.909 123.315 118.944 123.16 120.901 122.891C124.469 122.657 126.678 121.077 127.732 117.557C128.508 115.196 129.407 112.919 130.322 110.615C132.658 104.956 134.218 99.0075 136.864 93.4792C137.133 92.9367 137.26 92.3506 137.244 91.7487C137.196 89.6498 138.282 87.7292 138.507 85.6937C138.586 84.573 139.458 84.3631 140.135 85.3254C141.422 87.7252 140.864 90.6913 140.46 93.2812L140.444 93.3564L140.432 93.3525Z"
                                fill="#F0EBE6"></path>
                            <path
                                d="M88.1112 40.8654C88.0122 42.7464 86.1628 44.2869 85.1252 42.0257C84.3095 39.7605 82.6146 37.5943 79.9969 37.6379C76.12 37.6894 72.1758 42.2475 68.4097 39.2814C67.095 37.5152 66.402 35.2975 65.5466 33.2778C65.1981 32.3551 65.0397 31.3849 64.8496 30.4147C64.5645 29.4564 64.4852 28.5218 64.4417 27.5436C64.2991 26.6447 63.8279 25.9398 63.2576 25.2032C62.8537 24.6765 62.5092 24.7636 62.224 25.3577C60.838 27.805 59.9787 30.189 59.5589 32.8739C58.9926 34.5055 58.157 36.0895 57.761 37.7924C56.371 43.0712 51.1912 47.6054 47.1163 41.6811C45.0966 38.9843 42.9265 36.3826 41.3781 33.361C40.8633 32.6086 39.9802 32.2086 39.3624 31.5513C38.614 30.779 38.016 29.8603 37.3626 29.0049C35.6875 26.712 34.341 24.1776 32.361 22.0906C31.7947 21.3342 31.363 20.4511 30.7413 19.7423C29.7909 18.6691 28.6583 17.7741 27.5534 16.8237C27.3594 16.6573 27.1456 16.5068 26.8961 16.491C26.3021 16.4752 26.2625 17.2434 26.31 17.7464C26.3971 19.2274 26.2902 20.7283 26.5001 22.2015C26.6783 23.342 27.0545 24.4349 27.2802 25.5675C28.9395 32.1175 31.0819 38.4814 33.4421 44.8017C33.6758 45.5264 34.2539 46.0254 34.6183 46.6709C35.6677 49.1301 36.4834 51.7081 37.3705 54.2307C38.0081 56.0603 37.3903 58.2145 35.6518 59.2046C31.7591 61.9687 27.098 62.1232 22.6548 63.129C22.0291 63.3033 21.4074 63.5726 20.8094 63.8339C19.3481 64.4834 17.768 64.7487 16.184 65.1764C12.5882 65.9843 15.792 68.4434 17.4314 69.4414C21.645 71.6472 25.708 74.0628 29.5968 76.8151C30.175 77.2269 30.7295 77.7457 31.0661 78.3595C31.5928 79.3693 32.3848 81.9157 30.8918 82.3236C30.0404 82.4859 28.8048 82.6206 28.4563 81.5474C27.3435 78.9971 26.3535 78.0467 23.8151 77.0844C20.3738 74.9895 16.6077 73.4332 13.3644 71.0136C6.83424 65.517 15.3524 61.1411 20.4292 59.8144C22.8211 59.1293 25.3754 59.1254 27.799 58.5433C29.1058 58.2304 30.3453 57.5413 31.569 56.9948C32.3451 56.5592 34.0044 56.3414 33.5609 55.1059C33.0619 53.3991 32.5788 51.617 32.0244 49.8627C31.5808 48.8767 31.3947 47.9064 31.1888 46.8768C29.6048 44.081 28.0801 41.2297 27.4386 38.0458C27.3356 37.6181 27.1891 37.2142 27.003 36.8142C25.0665 32.7472 24.6309 28.1733 23.035 23.9716C22.3974 21.849 22.7578 19.5403 22.9162 17.4058C22.9043 16.3999 22.7895 15.3663 23.13 14.3922C23.7438 12.5468 25.6249 11.5171 27.4742 12.2022C28.7019 12.7289 29.7592 13.5962 30.7691 14.4436C31.6878 15.1921 32.2224 16.3405 32.8441 17.2751C33.454 18.0513 34.2975 18.7166 34.8954 19.5403C37.2081 22.5935 39.608 25.6032 41.7821 28.7515C42.3642 29.6821 42.6849 30.7949 43.2948 31.7096C43.5324 32.0304 43.8849 32.264 44.2136 32.4977C46.4589 34.058 47.6469 36.5964 49.5042 38.4893C51.2744 40.3743 52.9535 41.1624 53.9277 38.1131C54.7435 36.1014 55.785 34.153 55.8602 31.9235C55.876 31.3968 55.9275 30.8661 56.1691 30.3949C57.2343 28.7 57.464 26.6685 58.3194 24.8943C58.9689 23.6192 59.7727 22.4114 60.636 21.2708C61.1588 20.5422 61.9587 19.9917 62.8735 19.9284C63.82 19.8214 64.4575 20.3838 65.0911 21.0095C65.8198 21.7104 66.5168 22.4747 66.9405 23.3182C68.279 26.4665 68.1642 30.086 69.2097 33.3531C69.4235 34.0342 69.5304 34.7549 69.9225 35.341C71.1778 36.9528 73.6766 36.4934 75.13 35.3965C76.3932 34.5807 77.8664 34.4421 79.2326 34.2797C83.5491 33.5392 87.7904 36.0063 88.0993 40.7941V40.8694L88.1112 40.8654Z"
                                fill="#F0EBE6"></path>
                            <path
                                d="M126.861 83.6542C125.447 81.1712 123.15 79.31 120.299 78.9417C117.147 77.8249 114.83 77.2349 112.695 80.4743C110.47 83.3929 111.571 86.1055 112.901 89.1746C113.178 89.7607 113.784 90.0537 114.311 90.4062C116.549 91.8556 118.952 92.5328 121.118 92.4338C122.821 92.4575 124.71 91.6972 125.708 90.2913C126.168 89.5746 126.16 88.6915 126.354 87.7688C126.445 87.25 126.54 86.7312 126.671 86.2203C126.869 85.357 127.344 84.5254 126.896 83.7176L126.865 83.6503L126.861 83.6542ZM123.225 86.3907C122.992 87.3886 122.128 89.6498 120.817 89.3291C119.095 88.6638 117.436 87.9945 115.804 87.2619C115.234 86.9846 114.569 86.6362 114.374 85.9946C114.184 84.9373 114.711 82.8622 115.721 82.3117C117.451 81.5356 119.919 82.0029 121.495 83.1315C122.794 83.8522 123.736 84.7314 123.245 86.3075L123.225 86.3907Z"
                                fill="#F0EBE6"></path>
                            <path
                                d="M93.0416 69.3662C92.9822 66.4951 90.9031 64.127 88.9983 62.1786C85.5055 58.4244 80.8445 57.478 76.0448 57.8225C74.3737 57.9215 72.7105 58.2106 71.1502 58.8244C69.9028 59.2521 68.8296 60.1352 67.6455 60.7332C65.7169 61.4579 64.4338 63.0934 62.9171 64.3923C62.438 64.7804 62.038 65.2516 61.8321 65.8377C61.3252 67.3228 60.1372 68.6177 59.8679 70.1859C59.7293 70.7957 59.9431 71.4769 59.8679 72.0749C59.8085 72.558 59.5035 72.9738 59.4164 73.449C59.2026 75.6429 59.8164 77.8407 60.9371 79.7376C62.834 83.4562 66.2753 86.0342 70.3463 86.8737C71.9699 87.2064 73.653 87.5311 75.3162 87.4638C77.3755 87.0836 79.2485 86.0263 81.3276 85.7689C82.8879 85.5788 84.3293 84.8898 85.5847 83.9393C87.1173 82.8701 88.535 81.6504 89.6992 80.1733C91.509 77.7972 92.9148 75.2865 93.2237 72.3996C93.3307 71.4373 92.9861 70.3958 93.0337 69.4296V69.3701L93.0416 69.3662ZM87.3153 66.1862C84.7095 68.0752 82.6661 70.5383 80.7098 73.057C78.8644 75.3419 77.0309 77.6348 75.2212 79.9436C74.4569 80.894 73.8391 81.8998 73.1263 82.9017C72.9045 83.1869 72.7144 83.3413 72.3897 83.3809C71.4155 83.3809 70.3423 83.4166 69.479 82.8345C68.1603 81.6662 66.2397 81.5434 65.2576 80.0822C65.0675 79.8881 64.8378 79.5159 64.8734 79.2426C64.9645 78.811 65.3605 78.5259 65.6061 78.1734C66.5327 76.9814 67.4396 75.73 68.3068 74.5499C70.3146 72.3996 72.2432 70.1582 74.1242 67.901C74.94 66.9545 75.9894 66.2654 76.9834 65.5209C78.2744 64.5468 79.1892 63.529 80.397 62.3093C80.7217 61.9608 81.1494 61.7074 81.6246 61.8539C83.569 62.5311 85.8342 62.8479 87.2876 64.721C87.6123 65.1289 87.7707 65.7466 87.3548 66.1347L87.3034 66.1862H87.3153Z"
                                fill="#F0EBE6"></path>
                        </svg>