<svg xmlns="http://www.w3.org/2000/svg" class="marquee-blob" viewBox="0 0 404 474" fill="none">
                    <path
                        d="M404 184.722V184.884C403.091 209.438 394.748 233.366 380.75 253.538C372.609 266.421 363.762 279.183 352.147 289.178C347.359 295.499 341.4 300.587 334.896 305.11C331.078 307.473 327.543 310.138 323.826 312.642C318.978 315.368 313.908 317.791 308.757 319.891C301.707 322.698 293.728 322.799 286.375 324.132C285.588 324.293 284.598 324.515 284.093 325.061C283.204 325.929 283.608 327.342 283.972 328.413C285.224 331.845 286.456 335.197 287.81 338.428C291.244 345.637 293.264 353.29 294.132 361.266C295.728 374.734 292.981 388.142 288.092 400.621C282.113 414.958 270.862 426.387 259.105 436.18C244.481 446.337 228.785 455.02 212.12 461.239C205.979 464.026 199.515 465.964 192.95 467.418C189.072 468.872 185.315 470.164 181.174 470.548C172.367 471.578 163.782 474.142 154.793 474.001C143.218 474.041 131.361 472.486 120.735 467.681C118.291 466.731 116.11 465.298 114.231 463.48C110.514 460.028 106.252 456.999 103.525 452.617C96.7983 441.188 95.9701 426.831 98.3739 414.09C99.7677 406.538 100.354 398.723 102.798 391.373C105.383 384.487 108.292 377.783 110.979 370.898C112.615 367.142 109.686 367.748 107.323 368.697C98.0911 372.008 88.9001 375.744 79.2243 377.42C70.9423 379.318 62.4381 378.369 54.1763 377.42C50.2575 377.218 46.3185 376.713 42.6017 375.502C32.3603 372.352 23.3915 365.607 15.9983 357.974C9.19094 349.069 4.60555 338.711 2.44414 327.746C-0.606055 317.307 -0.424255 306.12 0.787745 295.377C0.706945 269.41 14.8873 237.728 31.6331 218.08C36.9255 210.246 44.2985 203.946 52.0351 198.595C57.8729 195.586 63.3673 191.628 69.9727 190.134C78.6991 188.761 87.6073 187.549 96.3741 188.7C107.787 191.022 119.2 194.495 129.421 200.129C141.178 208.428 134.532 194.354 132.734 188.842C128.129 176.181 125.523 162.914 122.048 149.91C120.291 141.712 119.362 133.373 118.614 125.033C117.463 119.076 117.059 113.059 116.675 107.021C116.11 95.2895 117.968 83.6383 118.816 72.0074C121.422 60.4775 124.412 49.0687 129.603 38.3061C142.794 10.1375 175.215 -19.6264 198.707 16.9827C205.232 29.6838 210.221 43.6369 212.443 57.7717C212.868 63.7487 214.282 69.6247 214.827 75.6017C214.989 80.6902 214.908 85.7788 215.191 90.8673C215.271 101.428 214.948 112.049 214.908 122.63C215.009 124.407 211.817 139.309 216.645 132.282C223.715 119.985 228.684 106.416 237.148 94.9058C241.915 88.5451 246.965 82.3258 252.338 76.47C255.389 73.8248 258.196 71.7853 260.843 68.6353C271.145 61.366 282.396 52.4005 295.809 56.4188C318.009 65.6468 285.992 116.613 278.417 130.162C275.71 135.008 272.942 139.895 269.569 144.317C267.468 147.225 269.064 147.184 271.367 145.791C282.032 139.612 293.304 134.18 305.303 131.131C323.826 123.862 344.471 121.822 364.044 125.518C372.124 128.345 379.861 132.181 386.527 137.633C391.557 141.45 394.243 147.083 396.93 152.636C399.718 156.473 400.667 161.097 401.616 165.741C402.849 171.92 404.02 178.523 403.899 184.742L404 184.722Z"
                        fill="#82A0FF" />
                </svg>