<svg xmlns="http://www.w3.org/2000/svg" width="100%" viewBox="0 0 132 114" fill="none">
                        <path
                            d="M131.884 65.9083C131.892 68.7278 131.647 71.5197 131.409 74.3195C131.14 77.3727 130.811 80.6952 129.71 83.8554C128.158 88.2036 125.271 92.4924 123.354 96.8168C121.628 100.416 120.566 104.365 118.266 107.652C115.323 111.853 110.215 113.956 105.086 113.758C99.1463 113.679 93.8358 110.764 88.3788 108.745C84.1851 107.161 79.7419 106.416 75.3065 105.905C71.5722 105.434 68.4516 105.153 65.1925 106.258C62.4283 107.176 60.1156 108.954 57.5059 110.257C53.6646 112.392 48.968 112.253 45.0316 110.443C42.8496 109.568 40.7666 108.598 38.4698 108.222C36.8937 107.949 35.2898 107.968 33.6939 108.091C31.2901 108.265 28.6289 108.685 26.1064 108.111C19.3465 106.483 17.5248 101.814 15.4616 95.9258C14.1786 92.2072 11.2758 89.6252 8.39683 87.0749C3.76352 82.9604 2.49629 78.1291 3.88232 72.1612C6.56726 60.3324 5.29608 53.6557 1.44687 42.4566C-0.774747 35.1463 2.45669 32.3584 4.25061 25.9549C5.41884 21.4364 3.31603 17.1872 3.55759 12.5183C3.73184 9.5205 4.93571 6.57816 6.97119 4.36446C12.1391 -1.38955 19.1683 0.467731 25.9678 0.946902C31.4089 1.36271 37.5629 1.00234 41.6972 5.2238C43.9743 7.27513 45.3128 10.5937 46.6078 12.8391C47.277 13.9756 48.1007 15.0726 49.2927 15.6626C51.5579 16.7794 54.5873 16.2329 57.1416 15.92C59.2642 15.619 61.466 15.4448 63.6203 15.4131C70.8831 15.2666 78.237 16.0982 85.4919 16.0903C91.737 16.1655 98.18 15.1636 104.286 16.9259C111.446 18.9376 115.656 23.864 119.157 30.1407C122.083 35.1185 124.95 40.2548 126.633 45.791C127.425 48.2383 128.194 50.6936 129.033 53.1251C130.479 57.2832 131.991 61.4294 131.88 65.833V65.9083H131.884Z"
                            fill="#E6FAB9"></path>
                        <path
                            d="M119.751 65.0132C119.945 62.1303 117.949 59.1325 115.613 57.6158C114.227 56.8198 112.821 55.8654 111.237 55.5684C110.753 55.414 109.74 55.5526 109.451 55.1288C109.364 54.919 109.708 54.6219 109.87 54.4477C111.399 52.9587 113.502 51.7786 114.155 49.6322C115.07 46.8087 113.13 43.7911 110.769 42.4843C109.49 41.7437 107.97 41.3873 106.587 40.92C105.859 40.7022 105.574 40.1082 105.807 39.4073C106.31 37.5658 107.68 35.566 107.003 33.6968C105.744 30.9445 102.96 28.8219 100.014 28.2438C97.7367 27.7686 95.3567 28.0616 93.0756 28.4616C90.6956 28.8774 88.3394 29.0833 85.9277 28.9962C81.631 28.6319 77.3224 28.1646 72.9821 28.3507C70.3764 28.4537 67.8697 27.4676 65.256 27.824C62.7374 27.9903 60.2148 27.6933 57.6645 28.121C53.3401 28.7744 49.9304 31.3406 46.794 34.1364C44.2675 36.2273 43.0557 35.3561 40.3272 34.7225C38.9135 34.5482 37.4522 34.6116 36.0345 34.4294C35.2345 34.3384 34.4306 34.2116 33.6228 34.2433C32.213 34.2829 30.8349 34.8017 29.433 34.7502C28.9103 34.7383 28.3875 34.7066 27.8767 34.8215C26.6293 35.1937 25.3066 36.0135 23.8968 35.7996C21.0574 35.3719 18.2022 35.7877 15.3826 35.9541C13.8659 35.8788 12.0205 36.8213 12.3927 38.5796C13.1451 40.6587 15.1886 39.9102 16.8716 39.6528C18.317 39.4904 19.7664 39.6449 21.2 39.5182C22.2296 39.4627 23.8414 39.1221 24.1621 40.4725C24.4274 41.7081 23.5404 42.6783 22.7444 43.6525C22.1266 44.397 21.2198 44.8722 20.6654 45.6207C16.8082 50.65 16.3845 57.695 19.0813 63.35C19.909 65.3815 21.1723 67.017 22.9107 68.3833C23.7186 69.199 25.0056 69.8841 25.0967 71.1039C25.1165 72.1493 24.7641 73.4086 24.0314 74.1927C23.3186 74.9253 21.9564 74.9055 20.7446 74.8501C19.5922 74.7986 18.4833 74.7947 17.3587 74.8659C16.6934 74.9214 15.9845 75.0164 15.4658 75.4639C14.8401 75.9787 14.7292 77.0004 15.2519 77.6063C15.834 78.3073 16.935 78.4736 17.9171 78.6518C18.7843 78.7943 19.6674 78.8815 20.5426 78.7468C21.889 78.4934 23.1365 77.8677 24.5225 77.9627C27.3856 77.8994 30.2092 78.1528 33.0486 78.3865C35.983 78.3865 38.9214 78.1805 41.8162 77.8083C45.3565 77.8083 48.9206 80.6041 51.5699 82.7465C53.744 84.5642 56.3775 85.7205 58.6426 87.4155C61.189 89.2133 64.068 90.441 66.9074 91.6449C68.0914 92.0329 69.4181 92.1359 70.614 92.4685C71.8179 92.7774 72.9505 93.3239 74.1702 93.4546C75.4255 93.5576 76.6809 93.1457 77.9204 93.4388C80.3519 93.8863 82.8824 93.708 85.3416 93.8625C86.0861 93.9219 86.7949 94.1476 87.4761 94.4526C89.6145 95.4663 92.0658 95.8663 94.0181 97.2642C96.5843 99.2086 99.788 99.8343 102.707 101.161C104.778 102.206 108.643 102.23 109.059 99.3314C109.253 98.0681 109.134 96.785 109.431 95.5574C109.645 94.6466 109.954 93.7397 109.91 92.7933C109.843 91.5696 109.581 90.3776 109.423 89.15C109.367 88.7263 109.387 88.2075 109.653 87.9144C109.95 87.5343 110.595 87.4194 111.074 87.2689C112.749 86.7779 114.25 85.8988 115.399 84.5642C118.016 81.4595 120.127 77.6974 117.204 73.9749C116.781 73.27 115.327 72.68 115.533 71.8246C115.921 71.0405 116.892 70.5653 117.458 69.8921C118.745 68.6248 119.608 66.7755 119.747 65.0845V65.0132H119.751ZM43.6458 66.1419C41.4756 67.5675 39.1234 68.807 36.474 69.1713C30.0429 70.1217 23.4889 66.0587 21.7504 59.7938C20.4396 55.9961 21.3505 51.4578 23.6077 48.2304C27.1005 42.8248 34.4267 41.0705 40.1807 43.5337C42.4221 44.4405 44.1249 46.2939 45.5387 48.2343C46.6871 49.6005 47.5029 51.2519 47.7841 53.0498C48.5484 57.093 47.0435 63.6351 43.7091 66.1023L43.6497 66.1458L43.6458 66.1419ZM100.311 96.0326C98.9999 95.6723 97.7446 94.9674 96.5011 94.2823C96.2992 94.1635 96.0338 94.0169 95.9586 93.8031C95.8834 93.4665 96.3744 93.3002 96.6437 93.1932C97.6773 92.8249 98.6198 92.8764 99.5425 93.3912C99.9385 93.6011 100.319 93.8506 100.742 94.0011C101.162 94.1555 101.618 94.2229 102.053 94.3298C103.166 94.5832 103.93 95.2921 104.659 96.1752C105.217 96.793 105.087 97.3157 104.2 97.3078C102.821 97.3236 101.614 96.389 100.386 96.0524L100.315 96.0287L100.311 96.0326ZM115.411 66.1379C113.858 68.6209 110.742 69.2466 108.053 69.801C106.92 70.0386 105.479 70.3752 105.043 71.583C104.528 73.0047 106.013 73.8918 107.221 74.0937C109.308 74.5689 111.454 75.1035 113.308 76.2995C114.575 77.1945 115.323 79.3092 113.961 80.4774C112.702 81.5387 111.522 82.7782 110.06 83.5544C109.415 83.8672 108.682 83.9662 107.942 83.9979C106.378 84.0494 104.801 84.0573 103.233 84.0217C99.6692 83.9583 96.1368 83.3801 92.5846 83.2495C90.7075 83.1227 88.8225 83.4039 86.9494 83.4039C83.2665 83.0118 79.5163 82.8495 75.8413 82.2713C73.695 82.006 67.2242 80.4417 66.1312 82.7307C65.9807 83.4158 66.6539 84.0019 67.2954 84.4494C69.3785 85.7443 71.9486 85.7007 74.3246 86.0096C77.069 86.2512 79.7895 86.4888 82.4903 86.7224C86.7316 87.2452 90.9966 87.4788 95.2695 87.4273C97.3288 87.4273 99.3841 87.5541 101.435 87.7125C101.986 87.764 102.513 87.8709 102.948 88.1085C103.835 88.6035 104.441 89.6292 105.047 90.5162C105.498 91.2647 104.837 91.2132 104.227 91.031C99.9108 89.8153 95.816 89.0906 91.6302 90.9043C90.7313 91.3082 89.7452 91.3003 88.8621 90.8607C87.6186 90.3182 86.3593 89.9024 85.0129 89.8232C82.8428 89.7361 80.6885 90.14 78.5183 90.0569C75.0295 90.0331 71.5367 89.1381 68.3013 87.8748C65.9451 87.2412 63.8224 86.2195 61.7988 84.8612C57.2883 82.204 53.1619 78.8973 48.9365 75.856C48.0613 75.2738 47.0673 74.9491 46.0971 74.5966C45.4239 74.359 44.8655 73.8799 44.7348 73.1354C44.0497 68.8743 45.9466 68.3001 48.4771 65.4845C51.1739 62.0986 52.2629 57.4019 51.4472 53.1646C50.7343 49.2679 49.1107 45.5098 46.0258 42.8723C45.3684 42.2467 44.4655 41.7754 43.9665 41.0388C43.5626 40.3458 44.3071 39.7003 44.8813 39.3756C45.6615 38.8727 46.4614 38.3222 47.2574 37.6846C48.4335 36.7619 49.6612 35.9145 50.9323 35.1581C53.2688 33.7839 55.7835 32.6514 58.4288 31.994C60.3692 31.5346 62.4206 31.5584 64.4125 31.4554C70.6615 30.8614 76.7799 32.4137 83.017 32.5286C85.2109 32.5642 87.3652 33.1345 89.5512 33.2097C90.1175 33.1899 90.6679 33.0434 91.2104 32.8771C92.4262 32.4573 93.7489 32.4533 95.0201 32.1999C96.1328 31.9821 97.2654 31.7999 98.3941 31.9583C100.695 32.1603 103.554 33.5978 103.194 36.2471C103.039 37.1461 102.156 37.8034 101.392 38.4133C100.03 39.6409 98.1802 40.3696 96.8496 41.6645C95.9824 42.611 96.4259 44.1871 97.6773 44.5039C98.7267 44.8207 99.8949 44.6544 100.984 44.5593C103.633 44.2505 106.445 44.4762 108.758 45.9375C110.979 47.1374 110.429 49.7748 108.591 51.042C106.861 52.1746 104.299 52.0875 102.544 53.3626C101.796 53.8339 101.071 54.5031 101.028 55.2239C101.031 56.3129 102.01 57.3108 102.897 57.8296C103.558 58.1741 104.35 58.1741 105.087 58.2256C107.942 58.3999 110.496 59.5879 113.046 60.764C115.256 61.5798 116.781 63.8252 115.45 66.0627L115.411 66.13V66.1379Z"
                            fill="#F5693C"></path>
                        <path
                            d="M53.0111 98.484C52.9874 100.23 51.134 100.67 49.946 99.5651C48.5798 98.2583 47.9778 96.3535 46.5839 95.0466C45.8552 94.3536 45.3048 93.5299 44.8494 92.6428C44.0336 91.1895 42.707 90.0648 41.9347 88.5758C41.6932 88.1402 41.4437 87.7165 41.1229 87.3403C40.5844 86.6987 39.8082 86.0691 39.5072 85.2533C38.9488 83.9386 40.4101 82.7387 41.6694 82.9327C42.8258 83.0911 43.499 84.188 44.0336 85.1266C45.0949 87.0076 46.4294 88.6669 48.0016 90.1282C48.5362 90.6351 49.0352 91.1697 49.451 91.7835C50.3024 93.0626 51.1301 94.3813 51.934 95.7159C52.3973 96.5515 52.9557 97.4464 53.0072 98.4166V98.4879L53.0111 98.484Z"
                            fill="#F5693C"></path>
                        <path
                            d="M26.6884 28.9883C25.7459 29.8318 24.5817 28.9764 24.0035 28.1052C22.665 26.3073 21.3582 24.4857 20.1345 22.6165C18.8118 20.4979 17.3783 18.3792 16.0279 16.2487C15.2042 15.132 14.8359 13.6786 15.7546 12.4787C16.3011 11.8372 17.1961 12.0471 17.8574 12.4193C18.7207 12.9183 19.2831 13.841 19.8098 14.6766C20.9305 16.518 22.1621 18.2644 23.362 20.0464C24.6094 21.9196 25.837 23.8085 26.9142 25.7688C27.5795 26.7667 27.7339 28.0617 26.7399 28.9368L26.6845 28.9844L26.6884 28.9883Z"
                            fill="#F5693C"></path>
                        <path
                            d="M35.4836 22.3433C35.3846 23.266 34.8223 24.2916 33.8164 24.3748C33.0046 24.4065 32.0225 23.9629 31.6185 23.2976C31.2344 22.6482 31.3255 21.1433 31.3176 20.2325C31.3295 18.9257 31.3334 17.6783 31.3295 16.3912C31.3374 15.5715 31.3057 14.5498 31.8522 13.9162C32.4937 13.1796 33.9986 13.1479 34.5688 13.9677C34.9371 14.4548 35.0678 15.1913 35.2103 15.8408C35.6024 17.9515 35.6064 20.1494 35.4955 22.272L35.4876 22.3472L35.4836 22.3433Z"
                            fill="#F5693C"></path>
                        <path
                            d="M32.6526 88.3025C32.3239 90.3816 31.813 92.5794 31.1794 94.5912C30.8824 95.8426 29.8924 97.3395 28.5064 96.5672C27.3658 95.6604 27.9599 93.5893 28.0747 92.3181C28.4073 90.4529 28.5895 88.4095 29.5439 86.8056C29.9043 86.1958 30.3953 85.3325 31.2269 85.6849C32.3872 86.1601 32.9298 86.9046 32.6605 88.2233L32.6486 88.3025H32.6526Z"
                            fill="#F5693C"></path>
                        <path
                            d="M92.7586 77.4202C90.7034 78.1924 90.2519 75.551 89.4361 74.2917C88.85 73.4403 87.7372 72.9057 87.2937 71.9474C86.8343 71.0049 86.7749 69.9119 86.6759 68.8783C86.1215 61.762 84.9731 54.6893 83.9356 47.6245C83.6425 46.2543 82.5376 44.9989 82.704 43.5218C82.7871 42.7258 83.2346 41.7635 84.086 41.5853C85.8681 41.3834 86.8106 43.4822 87.0957 44.9752C87.9511 49.1491 89.0164 53.3112 89.2342 57.5405C89.4678 60.6928 90.5806 63.7183 90.5885 66.8864C90.6004 67.8447 90.5687 68.807 90.8697 69.7257C91.2538 71.0603 92.4418 71.9711 93.0913 73.1393C93.8912 74.3749 94.3308 76.6005 92.818 77.3885L92.7547 77.4162L92.7586 77.4202Z"
                            fill="#F5693C"></path>
                        <path
                            d="M42.5248 55.4734C39.6339 56.8832 34.965 58.4118 31.9118 56.9386C29.9634 55.9051 27.9477 54.5111 27.5042 52.2657C27.2309 50.5827 29.1199 50.2619 30.4228 50.7728C31.4801 51.153 32.28 51.941 33.1196 52.6657C33.7136 53.1805 34.3037 53.8498 35.0006 53.8933C35.3095 53.925 35.6382 53.8537 35.9392 53.7468C37.3965 53.2003 38.8142 52.6301 40.2913 52.0677C40.8734 51.8578 41.515 51.6598 42.1367 51.6876C44.2672 51.7945 44.2276 54.5586 42.5882 55.4259L42.5208 55.4655L42.5248 55.4734Z"
                            fill="#F5693C"></path>
                    </svg>