<svg xmlns="http://www.w3.org/2000/svg" width="100%" viewBox="0 0 142 162" fill="none">
                        <path
                            d="M140.825 122.145C139.32 130.754 136.43 139.684 130.775 146.543C125.848 152.162 119.385 156.903 112.356 159.322C104.499 162.094 97.3594 161.488 89.5145 158.99C85.6019 157.802 81.519 156.427 77.7727 154.634C75.4244 153.513 73.2107 152.111 70.7832 151.176C68.5695 150.297 66.1578 149.838 63.8055 149.418C59.3702 148.602 55.0774 147.256 50.8401 145.846C43.3833 143.486 36.5561 137.577 33.5742 130.259C32.7149 128.212 31.9585 126.141 30.7823 124.256C28.9211 121.191 26.1489 118.589 24.4857 115.353C22.6165 111.837 22.0186 108.099 20.4544 104.566C19.1396 101.683 17.9001 98.3963 16.8349 95.5133C15.4528 91.9057 11.9204 90.4959 8.96216 88.1C7.67513 87.0585 6.44354 85.8705 5.3466 84.5359C1.90528 80.4214 0.0995156 74.8971 0.883614 69.5589C1.24002 66.8383 2.4122 64.3355 2.70921 61.8723C2.95078 60.1418 2.76067 58.4151 2.3409 56.7123C0.776664 51.5563 -0.272779 46.2181 1.43006 40.9314C2.85965 36.0763 6.20201 31.7796 10.7284 29.4827C16.1577 26.774 22.4899 26.8097 28.4261 26.0018C33.2336 25.4593 33.8276 23.6931 32.8376 19.2261C30.5368 9.40902 38.7659 -0.0278735 48.9116 2.49867C51.6797 3.06892 54.2419 5.46082 56.9822 5.64298C59.1326 5.78158 61.3146 3.82926 63.2946 2.75212C71.1633 -1.99999 81.5626 2.44324 83.4357 11.4722C84.0178 14.379 84.4613 17.2738 86.1721 19.7488C86.9482 20.9646 87.8987 22.1288 88.6788 23.3644C90.6826 26.4849 91.3043 30.4925 90.3222 34.0725C89.5817 37.3475 86.8334 40.4957 87.7363 43.9529C88.3145 46.2973 90.849 48.6377 92.73 50.7801C94.4962 52.7403 96.0763 54.9659 98.1158 56.6371C100.143 58.3479 102.773 59.1913 105.375 59.6903C109.731 60.5021 114.249 61.9476 118.079 64.3909C129.016 71.0043 135.139 81.946 138.572 93.8184C141.704 104.031 142.631 111.417 140.833 122.074L140.821 122.149L140.825 122.145Z"
                            fill="#E6FAB9"></path>
                        <path
                            d="M129.769 110.114C129.694 107.524 129.345 104.725 128.339 102.293C127.797 100.99 127.785 99.5606 127.361 98.222C126.478 95.6916 126.114 92.9433 124.712 90.6068C124.173 89.7079 123.738 88.7614 123.397 87.7714C120.855 81.1461 115.002 75.8752 108.753 72.7072C107.493 72.1686 106.111 72.1607 104.792 71.8082C102.563 71.2776 100.333 70.8855 98.0603 70.5172C96.3931 70.2677 94.8131 69.8004 93.4033 68.9966C89.1976 66.5888 86.8889 62.0466 83.7248 58.5776C82.7902 57.5123 81.7725 56.5262 80.7587 55.5402C79.3093 54.1145 77.947 52.5662 76.0937 51.7029C75.3809 51.3583 74.6087 51.1049 74.0028 50.5821C73.286 49.9841 72.7633 49.002 71.9237 48.5466C69.6388 47.323 67.0766 48.7605 65.4846 50.4554C64.5698 51.287 63.4412 52.5978 62.4393 51.1128C61.5483 49.8931 60.6414 48.614 59.7504 47.3349C56.4556 42.3135 53.3588 36.8921 46.6148 36.7218C44.8565 36.7852 43.1101 37.0941 41.336 37.1297C33.5108 37.5732 25.6897 38.4524 17.9002 39.4384C14.6648 39.8305 12.6293 43.0936 12.3758 46.1468C12.2135 47.818 12.558 49.5169 13.1006 51.1009C14.4074 54.8392 15.9676 58.5102 18.1496 61.8288C18.6724 62.8901 21.2187 65.8245 18.9852 66.3275C17.7299 66.569 16.4389 66.3354 15.2786 66.9453C12.2293 68.5847 11.7937 72.6478 13.2748 75.499C16.5656 81.0907 24.4938 82.7302 30.0141 85.3082C34.0336 86.8645 25.0442 90.8998 30.8457 98.0082C31.7803 99.0933 32.8733 100 33.9227 100.958C34.291 101.295 34.5959 101.644 34.7345 102.028C34.885 102.432 34.8533 102.879 34.7108 103.358C33.6376 106.162 33.4554 108.055 35.3444 110.558C36.8413 112.724 38.8134 114.415 41.0509 115.722C42.0092 116.351 43.6843 116.577 43.7952 117.955C43.7595 119.642 43.1696 121.428 43.6725 123.056C44.1517 125.008 45.1575 127.606 46.5158 129.166C47.09 129.808 47.7909 130.279 48.4324 130.857C49.1334 131.475 49.7749 132.192 50.5472 132.722C52.2975 134.013 54.5429 134.1 56.5744 134.793C61.5166 136.793 66.7043 138.009 72.0425 138.152C73.4009 138.263 74.8978 138.152 76.0225 139.035C77.3649 140.227 78.751 141.359 80.2875 142.302C81.3765 143.023 82.4932 143.787 83.7367 144.171C84.6515 144.468 85.594 144.686 86.485 145.046C88.762 146.163 91.1817 146.868 93.6409 147.493C96.9357 148.317 100.31 149.782 103.739 148.982C106.911 148.262 110.23 147.68 113.061 145.81C114.309 145.007 115.421 144.032 116.582 143.122C118.134 141.941 119.778 140.92 121.053 139.407C123.805 136.714 125.041 133.011 126.434 129.515C127.187 128.034 127.456 126.473 127.888 124.889C128.597 123.472 128.636 121.959 128.787 120.391C129.484 117.048 129.864 113.619 129.753 110.189V110.114H129.769ZM27.3014 80.8412C25.7174 79.9541 24.1809 78.7542 22.7196 77.6533C21.2068 76.4574 19.5674 75.1308 19.31 73.2854C19.1952 72.5092 19.2862 71.5469 19.8604 70.9608C20.5693 70.2599 21.9632 69.9034 22.8146 70.5569C23.2265 70.8657 23.5393 71.3409 23.8126 71.7884C25.2778 74.3229 26.743 76.8415 28.1766 79.3839C28.7785 80.362 28.8736 81.5817 27.3687 80.8729L27.3014 80.8412ZM31.3922 72.6596C30.2003 70.9726 29.1152 69.155 28.1331 67.3175C26.3194 64.486 24.3829 61.6863 22.5612 58.8825C21.6425 57.1916 20.9218 55.3224 19.805 53.7027C19.3575 52.9265 19.005 52.1068 18.4546 51.4059C18.0229 50.8277 17.52 50.2851 17.227 49.6198C16.633 47.9566 16.1419 45.9369 17.5516 44.5311C19.0446 42.6857 21.2662 42.8362 23.4126 42.6778C24.3313 42.5907 25.2422 42.4521 26.153 42.3016C31.0715 41.3591 36.0968 41.1571 41.0548 40.5156C42.3933 40.3176 43.7121 40.0245 45.0585 40.2701C46.3614 40.4681 47.7316 40.4522 49.0028 40.9155C51.4778 41.6957 53.0301 43.8539 54.2934 45.9964C55.6596 48.1586 57.5367 49.9841 58.7406 52.2533C59.786 54.1304 60.8038 56.0312 61.8215 57.9162C62.3443 58.8231 63.1917 59.5201 63.6274 60.4547C64.0234 61.314 64.1461 62.2723 64.3402 63.199C64.8471 65.9077 66.1737 68.3313 67.5756 70.6519C68.3359 71.9072 69.3021 73.024 70.3238 74.0695C73.0246 76.79 75.4522 79.8274 78.7945 81.8352C79.3569 82.1956 79.9429 82.5836 80.3508 83.1064C81.0557 83.9855 81.1032 85.3042 81.6378 86.3457C82.4813 87.9813 83.9229 89.2485 84.9366 90.7375C88.2908 96.3608 91.9776 101.774 95.5694 107.259C96.3614 108.498 97.3238 109.663 97.9099 111.017C98.6188 112.902 98.7613 115.543 97.0545 116.922C96.2149 117.567 95.0864 117.86 94.2587 118.478C93.538 118.997 92.7935 119.464 91.9737 119.812C90.7342 120.315 89.6373 121.187 88.4136 121.741C86.8573 122.303 85.2653 122.723 83.7486 123.404C81.8636 124.093 79.8836 124.501 78.0184 125.25C76.6007 125.867 75.3136 126.679 73.7494 126.572C70.9377 126.564 65.9677 126.164 64.1976 123.65C63.9679 122.897 64.8075 122.588 65.6431 122.355C69.5121 121.337 73.9553 120.577 76.5808 117.302C79.1113 113.936 78.0698 109.754 74.7037 107.429C73.4959 106.637 72.1059 106.301 70.7357 105.94C69.9793 105.738 69.0527 105.643 68.7993 105.247C68.4429 104.76 69.2428 103.948 69.5556 103.485C70.9179 101.537 72.3672 98.6933 71.2069 96.3093C70.0308 94.2698 68.1261 92.5789 65.845 91.9572C65.3461 91.8186 64.7481 91.6404 64.4273 91.284C63.8966 90.7216 63.9718 89.8069 63.9798 89.0584C63.9956 88.3495 64.059 87.6367 63.9917 86.9279C63.8095 84.8647 62.0631 83.2608 60.5543 81.9183C58.3802 79.9898 55.3666 79.273 52.4559 79.4512C50.3135 79.471 48.1592 79.6017 46.0603 80.2155C45.0941 80.4888 44.1358 80.7739 43.1497 80.9758C41.5142 81.253 39.7282 81.8154 38.0808 81.3639C36.5086 80.9164 35.6335 79.3641 34.7623 78.0375C33.6376 76.299 32.5367 74.4298 31.4357 72.719L31.3962 72.6557L31.3922 72.6596ZM65.5441 111.437C67.338 110.546 72.0228 110.249 73.4405 111.762C74.1889 112.672 74.0384 114.058 73.0959 114.771C72.296 115.472 71.0327 115.5 69.9318 115.694C68.3596 115.912 66.8152 116.292 65.2312 115.932C61.8651 115.345 62.9501 112.577 65.4688 111.473L65.5441 111.437ZM58.503 100.626C57.3427 100.626 55.5923 100.028 55.7903 98.5785C55.9052 97.7904 56.6774 97.4063 57.3308 97.1132C58.8872 96.4281 60.594 95.7747 62.3839 95.9569C64.3046 96.2064 67.9122 95.8935 67.4924 98.7606C67.4013 99.6754 66.6727 100.262 65.7381 100.265C63.3502 100.38 60.9266 100.57 58.5743 100.63H58.4991L58.503 100.626ZM58.8792 86.2982C57.6753 88.1911 53.4024 87.9258 51.2877 87.8941C49.6443 87.8466 46.789 87.415 46.595 85.4112C46.6504 84.8964 47.2444 84.5557 47.7394 84.3775C51.9213 82.9994 55.8141 83.3994 58.3842 85.4508C58.6376 85.6488 58.9307 85.9458 58.8871 86.2507L58.8792 86.2982ZM34.8691 97.038C33.3168 95.5054 32.8733 93.4145 32.9089 91.3275C33.0119 88.4366 38.6867 86.0685 41.1182 85.1617C42.0211 84.7855 42.8448 84.9755 43.0745 86.0368C43.324 86.9635 43.5694 87.9377 44.1793 88.6505C44.7971 89.4148 45.7317 89.8583 46.6267 90.2306C48.3771 90.9553 50.1472 91.6879 52.0679 91.4582C54.1826 91.1533 56.2022 90.686 58.3683 90.3771C58.8594 90.2979 59.4614 90.3098 59.691 90.7771C60.1108 92.1314 58.0674 92.3176 57.1249 92.5274C53.4856 93.2601 49.8621 93.965 46.2426 94.7609C44.1913 95.1886 42.3775 96.1945 40.7737 97.5528C38.9481 99.2279 36.6116 98.927 34.9286 97.0895L34.8691 97.0301V97.038ZM46.195 112.902C43.3517 112.538 40.6826 111.1 38.7976 108.898C36.9799 106.768 37.7838 104.123 39.9144 102.578C42.8132 100.17 46.0644 98.3606 49.676 97.2241C50.3175 97.0221 51.3154 96.7211 51.5293 97.5963C51.7193 99.9961 52.2896 101.921 54.5904 103.152C55.624 103.707 56.7882 103.94 57.9446 104.075C58.7326 104.23 63.2907 104.214 60.4157 105.208C56.9625 106.055 53.343 105.703 49.8541 105.132C48.5988 104.915 46.892 104.526 46.2466 105.972C45.4268 108.289 48.6147 108.78 50.1749 109.279C50.8561 109.5 51.0342 110.007 50.5353 110.562C49.3948 111.75 47.977 113.064 46.2702 112.914H46.1911L46.195 112.902ZM125.242 119.836C123.999 126.822 121.468 133.839 116.356 138.944C114.241 140.92 111.548 142.369 108.879 143.533C105.581 144.987 101.993 145.878 98.4603 144.638C95.5774 143.553 92.4885 143.225 89.4907 142.563C88.5324 142.373 87.6492 141.973 86.8453 141.431C84.4534 139.799 81.6735 138.698 79.4519 136.75C78.0342 135.376 76.169 134.568 74.2166 134.354C72.4306 134.136 70.5813 134.306 68.7953 134.021C62.9225 132.992 57.0813 131.182 51.953 128.038C50.2621 127.004 48.2979 125.883 47.7355 123.852C47.4504 122.842 47.5929 121.658 47.8899 120.64C48.8839 117.139 51.1768 114.514 54.3805 113.041C55.5606 112.478 56.7645 112.003 58.012 111.516C58.3169 111.405 58.8475 111.235 59.097 111.425C59.4495 111.686 59.3148 112.324 59.299 112.74C59.1089 114.498 59.4375 116.019 60.2137 117.425C60.4157 117.848 60.7642 118.367 60.4236 118.783C60.1068 119.179 59.1049 119.405 58.5901 119.971C56.9229 121.753 59.1564 124.268 59.9207 126.018C61.2354 128.279 63.0729 130.418 65.6153 131.241C67.5043 131.717 69.512 131.958 71.4287 132.132C72.9811 132.156 74.5295 131.8 76.0699 131.416C81.4794 130.041 86.5444 127.705 91.7994 125.887C96.1713 124.371 101.181 122.592 102.785 117.781C104.044 114.328 103.759 111.401 101.446 108.542C97.8465 103.43 94.4408 98.2181 91.0431 92.9591C90.4411 91.9532 89.6491 90.9671 89.0234 90.0207C88.6353 89.3791 88.8136 88.694 89.4076 88.2901C90.4966 87.5219 92.0014 87.2764 92.8845 86.3061C94.6071 84.2548 93.3321 82.8014 90.9996 82.5005C89.5106 82.2708 88.271 81.3877 86.9206 80.7858C84.4495 80.0254 82.018 79.1938 79.9667 77.5781C76.9531 75.3961 74.4463 72.7507 72.2485 69.8361C70.0427 67.0719 68.3478 63.8801 68.0626 60.3161C67.9518 59.4488 67.7617 58.5379 67.8251 57.7063C67.9677 56.0035 69.623 54.5977 71.2981 54.5462C72.9376 54.5185 74.3829 55.4807 75.761 56.2648C76.8461 56.9262 77.9827 57.5163 78.7549 58.4706C79.3687 59.2191 79.9073 60.0309 80.5607 60.7477C81.2933 61.5793 82.0734 62.3673 82.814 63.191C84.9445 65.5592 86.5286 68.3471 88.8175 70.545C89.5977 71.337 90.3936 72.1527 91.3678 72.7111C93.6766 73.8754 96.3932 73.9308 98.8801 74.5288C104.072 75.5149 109.561 77.0672 113.465 80.8808C117.619 85.0151 120.364 90.4365 122.173 95.9687C122.625 97.2478 123.163 98.4794 123.686 99.7269C124.91 102.602 125.171 105.616 125.468 108.59C125.951 112.28 126.042 116.082 125.246 119.741L125.231 119.816L125.242 119.836Z"
                            fill="#A0325A"></path>
                        <path
                            d="M78.6479 32.231C76.9846 33.7636 76.0026 35.7357 75.5115 37.9375C75.2026 39.0424 74.9532 40.3611 74.1374 41.2046C72.981 42.2817 71.5633 41.066 71.3059 39.6324C70.799 37.7712 71.6068 35.9575 72.2959 34.3101C72.7355 33.2131 71.7099 32.7973 70.7753 32.6508C66.1855 31.7281 62.5422 28.9045 62.6135 24.6435C62.661 23.3842 62.2492 23.1228 61.0929 23.5268C57.5367 24.5405 52.7331 24.9722 49.2482 23.6772C46.7058 22.509 44.2466 18.7469 44.0763 15.955C43.9575 14.6878 45.1178 13.4364 46.389 14.0225C48.2819 14.9967 48.1789 17.7767 49.7313 19.0835C52.2697 21.321 56.0556 21.1428 59.0138 19.8795C61.5285 18.9093 64.0431 17.7331 66.0786 15.8798C67.1399 14.969 67.9675 13.7612 69.1437 12.9969C70.795 11.8366 72.779 13.48 72.1058 15.2937C70.8505 17.9826 68.7437 20.1884 67.4448 22.8971C66.6369 24.3346 66.6409 26.18 67.8012 27.4314C69.4764 29.3243 72.3276 28.7224 74.5928 28.8253C75.6937 28.8253 76.9847 28.564 77.9826 28.9838C79.3568 29.5184 79.7251 31.1697 78.6994 32.1716L78.6479 32.231Z"
                            fill="#A0325A"></path>
                        <path
                            d="M43.5773 45.2201C44.1436 46.2576 43.2485 47.212 42.211 47.3664C39.1855 48.1149 36.1481 48.9782 33.0553 49.3346C32.1603 49.4257 31.2138 49.6395 30.3664 49.2435C28.9328 48.6059 28.814 46.7883 29.9743 45.7824C30.4377 45.3666 31.0475 45.2082 31.6574 45.1329C34.7423 44.828 37.8708 44.6063 40.9715 44.4202C41.8348 44.3885 43.0268 44.3885 43.5416 45.1647L43.5733 45.2201H43.5773Z"
                            fill="#A0325A"></path>
                    </svg>