<svg xmlns="http://www.w3.org/2000/svg" width="100%" viewBox="0 0 162 129" fill="none">
                        <path
                            d="M10.1528 57.7842C13.8476 61.4711 17.7562 64.9797 21.1302 68.9873C28.2623 77.7035 33.945 87.869 41.4336 96.4189C46.2886 102.22 51.7853 107.456 57.5868 112.299C67.9266 120.916 79.9851 129.046 93.889 128.721C101.009 128.511 108.074 126.856 115.036 125.656C123.594 124.072 132.239 122.504 139.779 117.989C152.475 110.323 157.92 95.7536 159.151 81.5289C159.769 75.2878 160.268 68.9754 160.925 62.663C162.264 51.4758 161.472 39.453 156.181 29.6557C149.402 16.623 134.789 7.87516 120.049 7.73656C112.842 7.66924 105.868 9.61364 98.748 10.2314C88.0479 11.3086 77.1853 8.84143 66.596 6.99999C59.7569 5.76444 53.3297 4.14081 46.7322 2.44985C42.0474 1.30538 37.0221 0.255956 32.266 1.0757C27.9376 1.78059 24.2349 4.39426 21.0668 7.33265C15.2019 12.8609 9.83999 19.803 5.38489 26.7133C-2.62242 38.8946 -0.0404305 47.7256 10.0934 57.7248L10.1449 57.7763L10.1528 57.7842Z"
                            fill="#FFF"></path>
                        <path
                            d="M148.447 48.6324C148.922 42.2646 145.247 36.5581 141.929 31.4179C137.359 24.8045 125.142 19.296 117.21 20.0088C109.599 20.6068 102.637 23.8818 97.3698 29.3745C96.0352 30.5506 94.2334 33.5524 92.3682 33.188C91.5168 33.0296 90.3446 31.8337 89.6278 31.0971C88.2814 29.6952 86.9944 28.1706 85.4658 26.9152C80.1513 22.8601 73.534 20.0128 66.8058 19.89C63.8674 19.9534 60.9845 20.9236 58.1807 21.783C56.4066 22.4285 54.4701 22.7651 52.89 23.7987C50.6882 25.6718 47.9281 25.6401 46.1104 23.3116C43.9482 20.3732 43.3422 16.5675 40.9385 13.74C39.9564 12.2708 38.4318 12.0134 36.618 11.9105C35.1528 11.7798 33.541 11.9738 32.3768 12.7896C29.3988 14.9281 29.8067 19.601 29.0503 22.8562C28.7652 24.4442 28.6385 26.1945 27.5098 27.4142C25.6961 29.3824 23.2488 30.6377 20.9083 31.8931C18.6947 32.598 16.8572 33.8969 15.091 35.4215C13.0951 36.9858 11.7447 39.3935 11.3407 41.8884C11.2932 42.8823 12.0536 44.0545 12.6317 44.7911C13.2218 45.599 14.0138 46.0702 14.9999 46.2247C17.3482 46.6682 19.7678 46.8662 21.9023 48.0107C24.2507 49.0126 26.599 50.2758 28.0325 52.4064C28.8681 53.535 29.6522 54.7428 30.1551 56.0655C30.5947 57.2812 30.9908 58.5089 31.6759 59.6137C32.9629 61.772 34.3172 63.9223 36.618 65.1698C37.4457 65.6133 38.3447 66.0449 38.8555 66.8607C41.2553 71.5772 42.6215 76.9114 46.0787 81.0537C47.3776 82.6338 48.1775 84.5821 49.5596 86.0711C50.2803 86.8354 51.3139 87.271 52.0188 88.0155C53.6702 89.8174 55.2503 91.738 56.9887 93.4646C58.7629 95.211 60.7152 96.7396 62.5923 98.3751C64.8178 100.32 67.0236 102.292 69.368 104.093C73.0667 106.913 76.9041 109.586 80.777 112.184C84.2144 114.667 88.3289 116.1 92.5741 116.057C102.835 116.275 109.951 107.713 117.954 102.628C118.513 102.418 118.988 103.111 119.293 103.69C120.208 105.202 121.027 106.786 122.18 108.153C127.451 113.534 133.759 108.43 135.208 102.391C135.438 101.547 135.866 100.854 136.563 100.351C139.062 98.6127 141.988 97.3138 144.036 95.013C144.641 94.1972 144.907 93.2072 145.291 92.2766C147.916 87.0809 143.616 85.7503 140.25 82.9228C139.909 82.6535 139.569 82.2892 139.565 81.8378C139.541 81.4814 139.727 81.0576 139.897 80.7091C141.857 76.5748 144.008 72.9434 145.727 68.8091C147.176 63.8233 148.103 58.5801 148.459 53.4281C148.506 51.8717 148.297 50.2917 148.439 48.7393L148.447 48.6443V48.6324ZM56.862 37.5956C53.8642 39.5004 50.7595 41.2191 47.6825 42.9932C45.651 44.2565 44.6531 46.486 43.8492 48.7195C42.8116 51.7252 41.786 54.7309 40.4712 57.602C39.6515 59.3167 39.4733 62.1126 37.4101 59.2217C37.1131 58.8138 36.8833 58.3742 36.6418 57.9267C35.4973 55.721 33.5371 53.9231 32.8005 51.4876C32.4916 49.7848 31.2125 48.668 30.0284 47.5236C28.5355 45.9989 26.9752 44.4228 24.9001 43.7377C22.7933 42.9616 20.7183 42.6051 18.4848 42.1141C17.7957 41.9596 17.2611 41.5914 17.2532 41.0092C17.2413 39.9954 18.3501 39.2668 19.1659 38.7876C21.5657 37.3659 23.6686 35.6116 26.2307 34.3325C27.4148 33.7187 28.5949 32.9979 29.5968 32.1346C34.4123 28.0558 34.3964 23.2918 35.43 17.4031C35.9092 14.9122 37.3506 16.2428 38.0714 17.7595C38.9822 19.5772 39.7822 21.486 40.6296 23.3433C41.5563 25.6401 42.8987 27.83 45.2748 28.7646C47.334 29.8933 61.8121 34.3444 56.9491 37.5243L56.866 37.5837L56.862 37.5956ZM140.836 90.8509C140.8 91.1638 140.63 91.4608 140.428 91.7142C139.359 92.9735 138.111 94.1576 136.539 94.9021C135.68 95.3298 134.729 95.6545 133.997 96.2881C133.173 97.0326 132.733 98.2761 131.89 99.0761C130.421 100.656 129.843 102.842 128.54 104.557C127.506 106.173 125.764 105.206 124.861 104.034C124.061 103.076 123.716 101.789 123.202 100.648C121.023 95.7139 116.509 95.2506 112.05 93.524C109.547 92.3083 115.075 88.4868 116.252 87.7621C118.303 86.4948 120.453 85.3068 121.835 83.2792C122.429 82.4476 123.023 81.5764 123.415 80.6379C123.938 79.3786 123.811 77.7787 124.473 76.5431C124.865 75.8026 125.494 74.571 126.251 74.4007C128.294 74.575 130.104 80.5349 131.526 82.1387C133.838 85.4217 138.333 86.0513 140.464 89.6431C140.677 89.9758 140.867 90.3955 140.844 90.7678L140.836 90.8509Z"
                            fill="#A0325A"></path>
                    </svg>