<svg xmlns="http://www.w3.org/2000/svg" width="100%" viewBox="0 0 527 526" fill="none">
    <path d="M526.774 229.982V230.166C525.509 236.241 524.719 242.552 521.399 248.101C517.447 254.229 512.335 259.251 507.197 264.353C500.847 270.533 493.127 274.951 485.644 279.475C481.006 281.894 476.053 283.787 471.389 286.233C459.269 292.729 445.963 296.069 433.21 300.829C427.756 303.169 421.748 303.511 416.189 305.536C409.022 307.85 401.512 308.955 394.108 310.348C388.786 311.348 383.569 312.663 378.22 313.373C373.135 314.004 368.155 315.345 363.043 315.739C357.905 315.739 352.899 316.765 347.761 317.291C344.889 317.554 341.964 317.659 339.118 317.975C337.959 318.106 336.931 318.369 336.457 318.79C335.456 319.5 336.879 320.973 337.643 321.604C340.568 323.997 343.334 326.653 346.127 329.23C356.561 338.408 365.046 349.48 372.634 361.077C376.613 367.31 380.776 373.49 383.015 380.669C386.098 387.664 389.234 394.686 391.104 402.181C392.343 407.966 393.107 413.831 393.502 419.748C393.792 424.508 392.554 429.215 392.317 433.922C392.185 435.947 392.132 438.025 392 440.05C391.869 442.943 391.078 445.73 390.103 448.439C388.601 453.567 387.574 458.984 385.123 463.823C377.798 480.181 367.233 495.065 352.293 505.058C344.625 511.685 335.614 516.156 326.26 519.654C319.594 522.152 312.585 524.282 305.471 524.887C301.203 525.124 297.066 525.387 292.929 525.466C289.451 525.597 285.894 526.228 282.416 525.913C277.357 525.597 272.377 523.888 267.318 523.257C264.472 522.888 261.627 522.415 258.886 521.521C251.72 519.049 244.474 516.445 237.518 513.474C234.856 512.133 232.511 510.081 229.771 508.635C224.738 505.874 219.311 503.77 214.989 499.904C204.529 490.752 194.964 480.522 186.454 469.451C181.342 462.324 177.469 454.277 174.57 445.993C173.411 442.259 172.094 438.603 170.671 435.001C166.376 423.167 165.401 410.622 164.163 398.236C163.767 389.847 162.661 381.405 162.951 373.043C163.056 369.887 163.293 366.731 163.399 363.549C163.767 360.341 162.845 356.107 158.946 358.789C157.417 359.946 156.311 361.787 154.862 363.26C152.938 365.259 150.672 366.836 148.591 368.677C139.737 376.54 130.41 383.93 121.083 391.162C116.919 394.239 112.177 396.606 107.987 399.656C104.852 401.786 102.138 404.521 98.8178 406.388C93.3373 409.045 88.8843 413.436 83.3774 416.092C80.1892 417.697 77.5807 420.3 74.4979 422.115C70.9145 424.166 67.0939 425.796 63.247 427.322C57.4503 429.636 51.2847 430.609 45.2508 432.003C42.5632 432.686 39.6912 433.028 37.0036 432.082C24.7778 428.426 17.0576 417.065 20.5093 404.337C21.4579 399.84 22.0112 395.159 23.6712 390.873C25.3311 386.402 27.7025 382.221 29.8895 378.013C33.8154 370.387 37.5833 362.471 43.907 356.422C45.6197 354.792 47.306 353.135 48.5707 351.084C51.1266 346.508 54.5782 342.59 58.3198 338.961C62.5356 334.332 67.4628 330.545 72.3373 326.706C75.0776 324.523 77.1328 321.63 79.7677 319.342C85.7752 314.635 92.257 310.585 98.2645 305.904C99.74 304.8 105.695 300.46 100.847 300.013C98.9232 300.013 97.0524 300.802 94.9972 300.96C86.6447 301.065 78.3185 301.67 69.9396 301.249C64.2219 301.092 58.4515 300.46 52.8392 299.777C43.7489 299.33 34.6586 298.988 26.227 294.964C20.4566 292.098 14.0539 290.599 8.70507 286.891C2.80295 282.736 -1.72903 274.925 0.642356 267.693C2.90835 262.539 6.04385 257.595 10.7339 254.544C14.4491 252.467 18.4278 250.889 21.9585 248.469C28.3876 244.788 35.6598 243.368 42.4578 240.685C49.8882 238.161 57.8455 237.503 65.5657 236.188C69.0964 235.741 72.469 234.531 75.9471 234.032C83.1403 233.348 90.4126 233.742 97.5794 232.98C100.451 232.717 103.323 232.428 106.222 232.454C116.076 232.796 125.957 233.585 135.653 234.321C137.445 234.452 139.289 234.637 141.108 234.742C143.558 234.873 143.874 233.9 142.557 231.98C138.367 226.011 133.545 220.225 129.119 214.282C128.091 212.862 127.195 211.363 126.326 209.838C122.637 203.079 117.578 197.188 113.573 190.64C108.251 181.541 103.692 172.021 98.7388 162.712C95.8667 156.137 92.5995 149.615 89.991 142.988C87.1453 135.046 85.3536 126.71 83.6409 118.347C82.3762 112.588 82.6397 106.592 83.1666 100.806C83.3247 96.9142 84.8793 93.2325 88.2783 90.9446C94.1277 86.7632 100.583 89.3667 106.011 92.8644C113.125 96.9931 119.343 102.647 124.929 108.669C130.515 115.007 136.707 120.504 142.135 126.894C145.824 131.496 149.012 136.519 152.648 141.174C159.156 150.457 165.322 159.845 171.224 169.365C172.805 172.1 173.675 175.151 175.308 177.886C176.942 180.726 178.971 183.434 180.657 186.38C182.317 189.378 183.266 188.457 183.819 185.617C184.451 182.514 184.688 179.174 185.347 175.966C186.322 170.785 187.666 165.71 188.799 160.555C191.355 148.458 193.094 136.098 197.388 124.422C198.68 120.556 200.155 116.743 201.42 112.877C202.553 109.353 203.396 105.698 204.845 102.332C205.794 100.096 206.531 97.8084 207.19 95.4678C209.483 87.5259 213.409 80.215 216.439 72.5623C218.467 67.1187 221.84 62.3587 224.897 57.4936C225.792 55.8894 226.557 54.1538 227.347 52.497C229.982 46.9481 233.697 42.1093 236.991 36.9812C238.413 34.7722 239.889 32.5895 241.549 30.5645C245.317 25.8835 249.691 21.7547 253.801 17.3892C255.487 15.6273 257.226 13.9442 259.176 12.4715C263.339 9.26318 268.109 6.94896 272.746 4.34546C276.988 1.68937 281.836 0.00629909 286.869 0.00629909C293.403 -0.0988927 300.386 1.08452 305.155 5.73925C309.819 10.2362 312.243 17.1263 314.245 23.28C316.3 29.9071 317.223 36.9286 317.012 43.8713C316.696 53.2596 316.538 62.5954 314.614 71.7734C312.717 82.0033 311.926 92.6277 308.765 102.542C306.262 109.879 304.733 117.479 302.863 124.974C301.545 129.944 299.885 134.81 298.41 139.727C296.908 144.645 295.88 149.694 294.167 154.559C291.164 163.027 289.108 171.837 285.709 180.147C283.944 184.592 282.864 188.878 281.863 193.664C281.573 194.822 281.441 196.61 282.258 196.741C284.129 196.873 286.842 194.953 288.792 194.374C296.881 190.982 305.129 188.01 313.455 185.302C321.07 182.672 328.526 179.569 336.431 177.965C340.014 177.202 343.624 176.466 347.181 175.598C354.691 173.678 362.042 171.022 369.788 170.18C372.845 169.812 375.849 169.049 378.905 168.655C383.279 168.208 387.706 168.076 392.132 167.735C399.22 167.051 406.229 166.052 413.369 166.446C424.725 166.814 436.266 165.736 447.412 168.629C458.557 171.495 470.098 173.205 480.796 177.623C485.828 179.674 490.308 182.882 495.287 185.091C503.798 188.563 510.095 195.716 516.419 202.159C518.132 203.999 519.897 205.814 521.267 207.944C523.902 212.047 524.851 216.885 526.036 221.645C526.722 224.354 527.275 227.168 526.853 229.956L526.774 229.982Z" fill="#82A0FF" />
    <path d="M179.357 393.575C163.514 398.162 149.246 406.731 138.473 418.141" stroke="black" stroke-width="3" stroke-linecap="round" stroke-linejoin="round" />
    <path d="M184.996 406.788C177.064 413.679 170.854 422.221 166.918 431.654" stroke="black" stroke-width="3" stroke-linecap="round" stroke-linejoin="round" />
</svg>
