<svg id="root" viewBox="0 0 166 170" fill="none" xmlns="http://www.w3.org/2000/svg">
    <path d="M149.641 82.9312C147.433 95.9844 149.259 108.779 153.675 121.766C153.924 122.483 154.339 123.751 153.915 124.134L153.874 124.176C153.542 124.518 152.762 124.476 151.824 124.293C148.188 123.617 144.885 122.791 141.249 122.299C130.476 121.34 119.562 122.875 109.693 127.612C101.194 131.449 95.4749 136.262 90.0467 143.81C83.8715 150.858 81.174 157.889 80.4685 167.306C80.2776 170.684 78.7504 170.934 77.2232 167.706C74.1356 161.409 71.546 154.636 67.3462 149.015C63.2211 143.752 58.7972 138.455 53.535 134.393C50.6383 132.241 47.9574 129.789 44.8864 127.879C43.3094 126.887 41.5083 126.303 39.9147 125.385C34.3786 121.54 27.971 119.213 21.5468 117.328C15.1807 115.21 8.54073 114.042 1.83433 113.567C0.489727 113.533 -0.647373 113.425 0.423327 111.957C1.41933 110.689 2.43193 109.488 3.32003 108.128C5.68553 104.575 7.90163 100.839 8.83123 96.5683C9.37903 93.7992 10.2671 91.0718 10.375 88.2443C10.3252 81.6217 8.64863 74.8324 4.74763 69.4276C2.16633 65.8995 3.43623 65.0988 7.43683 65.1656C14.3922 65.1656 21.1318 63.364 27.722 61.2121C34.196 59.2687 40.919 57.6589 46.4302 53.547C52.9706 49.093 59.3118 44.172 64.3167 37.9999C65.5119 36.5153 66.2672 34.7304 67.313 33.1456C69.0643 30.7268 71.0978 28.4832 72.293 25.6974C73.9364 22.261 74.7581 18.391 75.7209 14.7044C76.3434 12.1354 77.0655 9.5665 77.3477 6.93084C77.7544 5.36279 76.7252 -0.275515 78.4682 -0.000271801C79.4559 0.216586 80.7175 2.25172 81.4728 3.35269C83.2739 5.99669 85.1165 8.624 86.7848 11.3598C88.8432 14.9713 92.1549 17.5068 95.1927 20.1842C96.9606 21.7523 98.4878 23.704 100.413 25.1469C102.314 26.5982 104.456 27.6575 106.531 28.8252C112.897 32.9038 120.043 35.1641 127.106 37.6997C129.903 38.784 132.833 39.4429 135.796 39.8432C144.586 41.0526 153.351 42.971 162.232 42.9543C164.257 43.0127 167.735 42.579 164.954 45.7818C156.115 56.8666 151.948 69.5027 149.632 82.9229L149.641 82.9312Z" fill="#e6fab9" />
</svg>
