<svg xmlns="http://www.w3.org/2000/svg" width="100%" viewBox="0 0 112 112" fill="none">
    <path d="M111.541 62.9592C108.403 88.6502 88.0773 108.436 62.6077 111.616C42.0425 114.101 20.5472 104.358 9.16949 86.9346C1.7695 75.4933 -1.43764 61.4177 0.603254 47.9337C2.43243 35.7929 7.97202 24.5046 16.7153 15.84C22.5499 9.914 29.8769 5.72439 37.6449 2.94407C46.2978 0.160279 55.5548 -0.706177 64.5653 0.588288C70.5144 1.52782 76.1998 3.52519 81.6005 6.24983C93.1621 12.0401 102.332 22.1557 107.459 33.9416C111.263 43.0899 112.856 53.0941 111.551 62.8896L111.541 62.9592Z" fill="#82A0FF" />
    <path d="M101.146 61.0873C100.333 64.0799 100.392 67.2986 99.1533 70.1729C98.4696 71.9302 98.2092 73.8684 97.0257 75.3995C96.7653 75.7335 96.5605 76.0989 96.446 76.506C95.9254 78.6426 94.5786 80.3477 93.3187 82.0667C92.1594 83.6917 91.014 85.4003 89.3792 86.639C86.5747 89.9344 83.4127 92.8678 79.5149 94.8512C70.4384 100.412 59.3593 102.841 48.8389 100.864C44.8092 100.207 40.8558 99.0443 37.076 97.4785C33.1018 95.5472 29.3324 93.0801 25.9517 90.2406C24.3169 88.6538 22.5294 87.1784 21.1098 85.3863C19.5236 83.3507 17.6528 81.416 16.7503 78.9349C16.5907 78.5347 16.3442 78.1868 16.0735 77.8492C14.7893 76.2242 14.3346 74.2094 13.6334 72.3199C12.1236 68.7044 11.1379 64.9428 10.9435 61.0142C10.9053 59.5771 10.5062 58.1956 10.4298 56.755C10.2042 53.8494 10.8359 51.0795 11.3704 48.261C11.6342 44.555 13.0746 41.1762 14.3311 37.7382C15.1051 35.6504 16.4587 33.8513 17.2536 31.7913C17.4723 31.2241 17.7013 30.65 18.1283 30.2046C20.4572 28.1759 22.0226 30.0201 20.5753 32.4838C19.5826 33.7748 18.5101 34.9892 18.0415 36.5864C17.8679 37.0875 17.6528 37.5712 17.3543 38.0131C15.5529 40.4942 15.2127 43.5598 14.2235 46.3749C12.9844 50.0147 13.4009 53.8251 13.2308 57.5832C13.1649 59.0864 13.2239 60.6036 13.4252 62.0929C14.338 67.403 16.0353 72.6714 18.7843 77.3133C20.3809 80.212 22.4496 82.7661 24.4696 85.3689C26.7917 87.7317 29.4574 89.7221 32.0362 91.7821C33.7196 93.0035 35.6876 93.7412 37.5237 94.7086C41.8763 96.8034 46.4544 98.505 51.3068 98.8042C52.2404 98.8321 53.1429 99.1 54.0731 99.1C54.8471 99.107 55.628 98.9121 56.3639 98.8947C60.0708 99.2844 63.625 98.4493 67.1341 97.4506C71.386 96.438 75.6379 94.8652 79.1157 92.2275C81.5974 90.425 84.0792 88.5459 86.2762 86.3607C88.1401 84.4294 89.6049 82.2302 91.3125 80.2224C92.3642 78.6983 93.4784 76.4782 94.5127 74.7836C95.3492 73.1098 95.7692 71.2621 96.4495 69.5292C97.1228 67.5944 97.9072 65.684 98.3932 63.7006C98.7021 61.7345 98.5737 59.7093 98.5598 57.7398C98.5389 56.8142 98.5598 55.899 98.6639 54.9769C99.0422 51.5389 98.2162 48.254 97.3311 45.0352C96.6091 42.3524 95.7067 39.7043 94.4849 37.2058C92.4197 33.2041 89.7506 29.5399 86.8559 26.1472C83.739 23.6174 80.6915 20.9658 77.3108 18.8119C72.6216 15.9063 67.0716 15.0572 61.8618 13.5157C56.4819 13.0077 51.0013 13.2408 45.7186 14.6223C42.9037 15.4783 40.297 16.8075 37.4717 17.5766C36.7462 17.768 36.0417 17.9593 35.3891 18.3491C34.563 18.791 33.9348 19.5913 33.2372 20.1411C32.4666 20.7292 31.5885 21.1816 30.8284 21.7836C28.4855 23.5513 26.3682 25.6357 23.9386 27.2433C23.6158 27.3895 23.2722 27.2259 22.998 27.031C22.4357 26.6761 21.9255 26.1715 22.1858 25.6705C23.4353 23.3982 25.3513 21.5191 27.7011 20.3778C27.9579 20.1899 28.1592 19.9289 28.3605 19.6818C29.6691 18.0533 31.6232 17.3365 33.5044 16.557C35.1982 15.8297 36.5241 14.4518 38.2561 13.7837C43.0737 11.581 48.3842 11.1251 53.5906 10.6066C62.5907 9.65668 71.6255 12.4579 79.3552 16.985C83.7112 19.052 87.0607 22.5282 90.011 26.2516C91.4201 27.8349 93.1174 29.1363 94.0789 31.0467C96.8278 35.7861 99.49 40.7343 100.295 46.2427C101.114 51.0935 102.201 56.1043 101.16 61.0177L101.146 61.0803V61.0873Z" fill="#E6FAB9" />
    <path d="M94.1962 63.5751C93.4673 64.5599 92.0685 64.2397 91.1522 63.6865C89.9165 63.0705 88.6497 62.312 87.296 61.877C87.1259 61.8735 86.9802 61.9466 86.8552 62.0893C86.5463 62.4929 86.3831 62.9905 86.2408 63.4707C85.859 65.402 84.5991 66.9052 83.4954 68.4955C82.527 69.9222 81.7322 71.4985 80.5867 72.7686C80.1078 73.3149 79.5837 73.8195 79.2921 74.5015C78.473 76.2866 76.5015 77.0174 75.4324 78.5798C73.7421 81.0156 71.2257 82.5641 68.6225 83.8516C65.6132 85.4905 62.3193 86.4231 58.8588 86.6876C53.4546 87.0599 45.4715 85.2504 41.06 82.1013C38.9219 80.4867 36.8046 78.8616 34.9997 76.8469C33.4968 75.1696 31.7301 73.6768 30.7513 71.6064C30.13 70.2945 29.7274 68.8852 28.936 67.6603C27.926 66.0249 27.0236 64.3372 26.4023 62.5173C25.9788 61.1915 25.6977 59.9214 25.0556 58.707C24.7918 58.1258 24.5106 57.2803 23.7054 57.59C22.4107 58.004 21.3521 58.8809 20.1338 59.3959C19.5715 59.6778 19.0058 60.1998 18.3497 59.991C17.3119 59.6326 17.1037 58.0806 17.9714 57.3916C19.3147 56.379 20.5885 55.262 22.1851 54.6113C22.8099 54.3642 23.4242 54.1172 24.0282 53.8249C25.6873 53.0315 27.3221 52.1163 29.1408 51.9284C30.1092 51.9249 32.6534 51.2429 32.8339 52.6278C32.8408 53.3412 32.223 53.9293 31.6052 54.2007C30.5257 54.6774 29.3838 55.0811 28.3078 55.5369C28.0683 55.6552 27.8983 55.8431 27.8705 56.1215C28.0614 58.9575 29.3595 61.4803 30.1787 64.0623C30.5743 65.0958 30.9041 66.178 31.3692 67.1732C32.0182 68.0466 32.8131 68.8191 33.3684 69.7656C34.5728 71.6133 35.5481 73.642 37.1829 75.1661C37.957 75.9421 38.9358 76.485 39.6195 77.341C40.6296 78.618 42.1776 79.1609 43.5139 79.9856C46.4503 81.9064 49.6574 83.2913 53.111 83.9629C54.0134 84.1717 54.9332 84.0847 55.8495 84.0534C58.1056 84.0221 60.4034 84.0221 62.5657 83.4584C64.6205 82.926 66.5017 81.8612 68.324 80.7233C70.4482 79.3488 72.7321 78.023 74.5196 76.1857C76.6403 73.9169 78.6361 71.4602 80.4063 68.8713C81.7183 67.034 82.2285 64.7513 83.7453 63.0706C84.0264 62.7574 84.3041 62.4512 84.4672 62.0719C85.0156 60.8574 84.9809 60.593 83.6273 60.1162C82.1487 59.4133 80.08 59.3681 79.2643 57.6839C79.0595 57.2315 79.2018 56.6957 79.476 56.299C80.198 55.0184 81.6454 55.3699 82.7491 55.9127C85.689 57.1793 88.7052 58.2372 91.4264 59.9562C92.0303 60.3807 92.7523 60.5303 93.3875 60.8992C94.2205 61.3794 94.7307 62.82 94.2309 63.5368L94.1997 63.5856L94.1962 63.5751Z" fill="#E6FAB9" />
    <path d="M49.3772 44.0677C49.1203 45.8111 48.8184 47.5614 48.5199 49.3012C48.3671 50.2512 48.1832 51.149 47.5792 51.9006C46.7566 52.9271 45.5661 53.8632 44.2784 53.7936C43.3551 53.6161 42.1993 52.9097 42.0501 51.8763C41.4496 49.5448 40.8457 47.189 40.4083 44.8263C40.3458 44.4435 40.3319 44.0712 40.3805 43.6849C40.8456 40.6019 41.1511 37.4875 42.7512 34.7211C43.1191 34.0495 43.7092 33.5171 44.4311 33.3118C45.3717 33.0369 46.6108 32.9917 47.305 33.7538C49.155 36.3775 49.5507 40.835 49.3841 44.0051L49.3772 44.0712V44.0677Z" fill="#E6FAB9" />
    <path d="M70.7539 45.1604C70.4381 46.7263 70.0667 48.3026 69.6988 49.865C69.3795 50.9889 69.3031 52.4191 68.2237 53.0942C67.1616 53.7971 65.735 53.3239 64.7389 52.6662C63.531 51.9111 62.9583 50.5087 62.7396 49.1377C61.8719 44.882 61.4762 40.4697 62.7743 36.2662C63.2151 34.9926 63.4997 33.1309 65.0894 32.8943C66.7277 32.7203 68.2757 33.5728 68.8311 35.1074C69.5218 36.7255 70.334 38.3262 70.2923 40.0973C70.4242 41.7467 70.872 43.4344 70.7609 45.0943L70.7505 45.1569L70.7539 45.1604Z" fill="#E6FAB9" />
</svg>
