<svg xmlns="http://www.w3.org/2000/svg" width="100%" viewBox="0 0 104 134" fill="none" class="horizontal-words__sticker-svg" style="translate: none; rotate: none; scale: none; transform: translate(0px, 0px);"><path d="M102.369 108.557C98.1432 118.675 89.4469 121.518 79.9347 124.888C76.1885 126.151 72.4937 127.755 68.6287 128.523C65.5437 129.038 62.2688 128.781 59.1561 129.418C55.8217 130.012 52.7051 131.395 49.3985 132.088C44.2028 133.299 38.3854 133.485 33.075 132.369C20.5215 129.383 9.82922 119.744 4.43557 108.184C1.15662 101.052 0.115111 91.8055 1.24374 84.0279C1.84963 80.0559 3.31487 76.2661 4.58209 72.504C6.26513 67.4668 7.52444 62.1009 7.52048 56.7745C7.5086 52.9451 6.37602 49.3691 5.35431 45.5714C4.51873 42.5023 3.77028 39.4056 3.10498 36.3008C2.20604 32.214 1.64767 27.9649 2.76837 23.8701C4.34053 17.5934 9.59953 12.0532 16.205 11.3641C20.1453 10.8929 24.0697 12.3423 27.808 13.7402C30.4494 14.6431 33.2413 16.342 35.6411 17.3716C38.4488 18.5676 40.5199 17.328 41.8268 14.5401C43.1534 11.9304 43.9771 8.97225 45.7987 6.61995C49.8103 0.980782 57.9641 -1.39923 64.13 1.95497C67.0605 3.4598 69.4009 6.00615 72.1017 7.81591C74.2045 9.29302 76.4974 10.4969 78.4734 12.1443C84.271 16.7974 85.269 23.9454 82.5444 30.7884C80.996 35.3504 74.8579 42.1539 79.9981 46.011C80.7267 46.5733 81.59 47.0485 82.4058 47.5198C85.5264 49.2306 88.6311 51.967 90.4725 55.2182C92.3971 58.5724 92.9991 62.1761 94.8207 65.463C95.8107 67.4034 97.074 69.2567 97.8621 71.3081C99.1491 75.082 99.4659 79.1134 100.757 82.8992C102.008 86.5267 102.305 90.364 102.864 94.134C103.727 99.0762 104.559 103.563 102.396 108.481L102.361 108.565L102.369 108.557Z" fill="#E6FAB9"></path><path d="M89.4665 98.4901C84.7184 93.3499 88.4765 96.1496 89.0586 91.3461C89.1537 89.1997 88.5676 86.788 87.0628 85.2158C86.2747 84.3723 85.2292 83.8456 84.156 83.4377C83.1343 82.9269 84.0966 81.8022 84.354 81.0696C84.8213 80.0954 85.3124 79.1569 85.6094 78.1154C86.2945 75.771 85.356 74.1632 83.3838 73.0306C81.974 72.0485 80.485 71.0902 78.5882 70.813C77.8357 70.7298 77.7961 70.3457 78.1288 69.7635C82.3621 61.8473 78.3743 58.4377 70.9135 56.0814C67.2267 55.032 63.4606 55.2063 59.7144 55.5587C54.9939 55.8874 50.3646 56.8338 45.6758 57.4793C43.3592 57.6853 40.5515 57.2576 38.9872 55.3488C38.2942 54.4301 38.0091 53.2737 37.5378 52.2164C36.4845 49.9235 35.5499 47.5633 34.8925 45.1159C34.0569 41.7142 33.3679 38.2769 31.9264 35.0652C30.9166 32.9545 30.1642 30.6695 28.7662 28.7687C26.9961 26.4639 24.2993 25.165 21.3569 25.2442C20.153 25.3868 19.4838 24.2423 18.5809 23.6641C14.7871 21.0029 11.9952 26.9233 12.815 30.028C13.6822 33.9643 14.4901 37.8927 15.4841 41.7895C16.9295 46.4861 18.4106 51.3095 18.8224 56.228C18.8502 56.9329 18.7789 57.6378 18.6482 58.3347C17.8324 62.2552 18.0581 66.3539 16.581 70.1477C16.2127 70.9595 16.6048 71.8862 16.4345 72.7019C15.6346 75.0027 14.3634 77.157 13.6228 79.4895C12.7952 81.8379 11.9952 84.2694 11.5755 86.7563C11.3379 88.8037 11.5874 90.8708 11.7656 92.9341C11.9873 94.823 12.015 96.7397 12.4507 98.593C13.1833 101.638 14.5891 104.482 16.3078 107.198C19.0521 111.337 22.7509 114.695 26.8337 117.538C27.4158 117.867 28.1405 117.788 28.7346 118.096C29.7167 118.714 30.6433 119.542 31.7482 119.95C36.0488 121.554 42.2741 121.443 46.6777 120.049C48.7013 119.348 50.8279 118.932 52.7446 117.958C55.2038 116.552 57.5482 113.97 60.5064 115.994C61.7261 116.809 63.2943 116.889 64.712 116.964C65.3218 116.952 65.9475 116.782 66.5257 116.485C67.8959 115.748 69.1948 114.988 70.5531 114.287C71.6936 113.602 73.0916 114.196 74.3113 113.721C75.0122 113.515 75.6814 113.198 76.3388 112.885C78.2555 111.939 80.4296 111.297 82.477 110.493C85.8312 109.186 88.9438 107.476 90.2269 103.896C90.9555 102.094 91.0228 100.011 89.5299 98.5534L89.4784 98.494L89.4665 98.4901ZM81.8394 75.6443C82.0255 75.9056 82.0097 76.2383 82.0097 76.5472C82.0097 77.2521 82.1364 78.0956 81.8315 78.6738C81.5226 79.3193 80.79 79.6677 80.1405 79.9529C79.103 80.3924 78.1129 80.8716 77.1348 81.4221C75.8557 82.1151 74.6795 83.0259 73.3133 83.6001C71.7332 84.2931 70.0462 84.6891 68.379 85.1049C65.9317 85.6633 63.7853 87.0137 61.4885 87.9681C59.5956 88.7363 57.7422 89.4809 55.7265 90.3046C55.1325 90.5778 54.8038 90.4669 54.9345 89.7343C55.0573 88.5304 55.4573 87.2553 55.3939 86.0039C55.3147 84.7525 54.7088 83.9724 53.402 83.3704C53.0733 83.1843 52.1941 82.9903 52.3327 82.5863C52.408 82.4675 52.6377 82.3685 52.8872 82.2933C53.7544 82.0438 54.6296 81.8022 55.4969 81.5567C58.7323 80.6815 61.9162 79.6875 64.9377 78.25C67.8484 77.0937 70.7789 75.965 73.7489 74.9513C76.2834 74.0167 78.4773 74.0801 81.1147 75.1612C81.3642 75.2562 81.6295 75.3948 81.7919 75.5889L81.8354 75.6443H81.8394ZM17.6146 33.8534C16.589 31.7625 16.4147 29.5053 16.7988 27.6638C16.9929 27.1728 17.8562 27.945 18.0502 28.1707C19.1115 29.434 19.0482 31.0972 19.2105 32.6298C19.3056 33.3703 18.7353 33.8217 18.0106 33.9208C17.8997 33.9326 17.7651 33.9485 17.6701 33.8891L17.6186 33.8534H17.6146ZM55.4375 111.78C55.3226 111.958 55.1365 112.101 54.9147 112.22C53.1248 113.218 51.1249 113.974 49.3468 115.035C44.2898 118.584 37.6487 117.273 32.065 116.287C30.9166 116.136 29.9305 115.534 29.1583 114.691C28.5326 114.041 27.7683 113.554 27.0159 113.035C24.7111 111.321 22.4341 109.551 20.8659 107.095C19.5075 105.309 17.9591 103.579 17.076 101.527C16.2009 98.9732 15.1356 96.3833 15.2663 93.6389C15.3138 92.8786 15.5079 92.1183 15.5277 91.354C15.5554 89.9521 15.2425 88.4869 15.3653 87.0612C15.6029 82.8675 17.7097 79.1331 18.6403 75.0899C19.2224 73.2286 19.8442 71.3793 20.4104 69.5101C21.7727 65.1659 22.1846 60.6157 22.3034 56.129C22.3192 54.1053 21.8519 52.1293 21.4242 50.1373C20.6362 46.395 19.7451 42.6607 18.5492 39.0491C18.2601 38.1699 18.7868 37.3779 19.5115 36.9146C20.2718 36.3602 20.9094 35.8731 21.7133 35.184C23.9706 33.5129 23.0399 32.1348 22.3469 29.8458C22.24 29.5013 22.2558 29.2162 22.4935 29.1251C22.6281 29.0776 22.8023 29.0736 22.9568 29.1013C25.6853 29.6557 26.5961 32.5585 27.4752 34.8474C28.8138 38.7877 30.0097 42.7399 31.2057 46.7079C31.7799 48.8146 31.8868 50.9808 32.7936 52.9886C34.1638 56.5329 37.716 58.5248 40.698 60.5128C41.7474 61.1108 42.9275 61.1068 44.0878 60.9642C46.3847 60.7345 48.6736 60.3623 50.9626 60.0534C53.798 59.6495 56.6532 59.3366 59.5322 59.0951C63.9239 58.5129 68.3196 58.2278 72.4857 60.1405C76.4735 61.7602 77.3526 65.6609 74.3984 68.7775C72.8223 70.5793 71.0085 72.2743 68.6523 73.189C67.1474 73.6959 65.8367 74.6266 64.3437 75.1414C61.0093 76.2462 57.5838 77.1491 54.2415 78.2223C53.5049 78.4639 52.7684 78.7728 52.0516 79.0262C51.7942 79.1054 51.5407 79.1252 51.4021 79.0341C51.1328 78.8361 51.3546 78.4401 51.4932 78.2025C52.0239 77.4184 52.709 76.567 52.7525 75.6364C52.7406 73.8781 51.4972 72.5198 50.816 70.908C50.4121 70.116 51.2239 69.8031 51.9051 69.4349C52.511 69.1022 53.1723 68.9121 53.8534 68.821C57.3739 68.3142 60.6885 67.0707 64.0942 66.148C64.8387 65.95 65.7099 65.6886 66.0624 64.952C66.3832 64.3461 66.3673 63.3878 65.8327 62.9364C65.4565 62.5997 64.8823 62.5918 64.3437 62.6908C63.1834 62.9126 62.035 63.1858 60.8826 63.4512C56.3879 64.4135 52.0793 65.8708 47.6084 66.8964C43.5295 67.938 37.4745 71.5218 36.3775 75.7948C35.9578 78.2302 37.4626 80.6736 39.5535 81.8933C40.1832 82.4913 42.1434 82.6814 41.2881 83.8298C38.7536 86.9939 38.2111 91.7579 41.9771 94.0587C42.9156 94.6527 43.9532 95.0804 44.9828 95.5279C45.9649 95.9635 46.6421 96.2328 46.3451 97.4248C46.2421 97.9436 46.0916 98.4386 46.056 98.9336C45.9372 99.8919 46.4956 100.696 46.8916 101.527C47.351 102.636 47.7272 103.864 48.7766 104.577C50.1943 105.606 51.7665 106.101 53.3822 106.525C53.9801 106.691 54.788 106.683 54.9979 107.392C55.2513 108.485 55.4058 109.654 55.5721 110.723C55.6117 111.063 55.6473 111.424 55.4731 111.729L55.4414 111.784L55.4375 111.78ZM43.078 88.3483C43.2008 88.1859 43.4305 88.0711 43.6285 87.98C44.9432 87.4097 46.0045 86.7009 47.3312 86.289C48.6538 85.9207 50.1745 86.0791 51.5684 86.8989C52.1585 87.4058 51.6477 88.3443 51.1764 88.7601C49.2201 90.4273 46.9351 91.1956 44.3571 90.6451C43.8819 90.5144 43.2166 90.4709 43.0226 89.9679C42.9196 89.5997 42.8285 88.772 43.0384 88.3997L43.0741 88.3483H43.078ZM42.8602 79.5371C41.8702 79.6757 41.0702 79.0104 40.5594 78.2302C40.0129 77.4818 39.2842 76.464 39.6209 75.5294C39.704 75.3948 39.8466 75.2958 40.0169 75.2166C40.8247 74.8958 41.6405 74.5988 42.4484 74.2899C44.1789 73.6405 45.9808 72.7217 47.8143 73.7355C48.5033 74.08 49.137 74.7572 49.0261 75.5611C48.4479 77.7748 45.0541 79.2361 42.9394 79.5331L42.8602 79.541V79.5371ZM56.871 99.4247C55.8018 100.799 54.1346 101.595 52.404 101.88C50.7289 102.161 50.0399 101.71 49.6993 99.9434C49.624 99.5633 49.6755 99.1395 50.0042 98.9098C51.711 97.7772 53.6039 97.5832 55.4652 97.3852C56.8987 97.1911 57.6432 98.0426 56.9106 99.3732L56.871 99.4326V99.4247ZM64.7199 109.539C63.4844 110.683 60.3519 112.794 59.3896 110.533C59.1322 109.99 58.8709 109.349 58.8392 108.751C58.8511 108.664 58.8273 108.66 58.9065 108.501C58.9619 108.414 59.057 108.359 59.1797 108.319C60.6965 107.967 62.1617 107.614 63.6745 107.325C65.2862 106.961 65.7693 108.406 64.7714 109.487L64.7239 109.539H64.7199ZM60.3321 101.729C59.9401 101.737 60.1143 101.246 60.2173 100.989C61.837 97.7614 60.3084 95.9239 57.6274 93.4449C57.5205 93.3221 57.4809 93.2271 57.5363 93.0964C57.6036 92.9816 57.8016 92.8905 58.0551 92.8073C60.6133 91.9876 63.0884 91.1797 65.5753 90.2095C67.0801 89.6511 68.3513 88.5859 69.8878 88.0869C70.8383 87.7345 71.8837 87.576 72.7668 87.0573C73.1985 86.8236 73.6539 86.6137 74.1331 86.4949C75.226 86.2138 76.4259 86.2811 77.5506 86.087C81.3721 85.2673 82.5918 85.5445 84.9995 88.8037C85.946 89.8571 85.748 91.3738 84.8055 92.546C83.8155 93.7261 82.2631 94.1142 80.8929 94.6567C78.3307 95.5437 75.6617 96.1457 73.1945 97.2783C72.3035 97.6822 71.361 97.9357 70.4779 98.3554C67.2583 99.8523 63.7457 100.636 60.3876 101.725H60.3361L60.3321 101.729ZM86.4489 103.484C84.8411 105.468 82.6829 106.759 80.2197 107.499C79.1307 107.844 78.0931 108.311 77.0318 108.723C74.8657 109.59 72.3787 109.749 70.3868 111.087C69.8799 111.388 69.1156 111.661 68.5572 111.416C68.2563 111.198 68.3592 110.77 68.4028 110.43C68.5018 109.669 69.0364 108.953 69.0919 108.141C69.3176 106.418 67.7613 105.29 66.8306 104.098C66.6247 103.789 66.7792 103.507 67.1158 103.345C68.0068 102.906 68.8582 102.474 69.7136 102.121C72.1372 101.211 74.6637 100.561 77.1625 99.8563C79.1347 99.3138 81.1424 98.8029 83.1779 98.4465C83.8828 98.3079 84.5402 98.2802 85.2292 98.5772C87.4033 99.492 88.1755 101.607 86.4965 103.42L86.4489 103.48V103.484Z" fill="#A0325A"></path><path d="M70.5414 22.3058C69.8008 21.1732 68.7514 20.3099 67.3337 20.1198C65.9437 19.8782 64.5141 19.7753 63.1439 19.4228C62.3717 19.1575 61.9797 18.4091 61.6906 17.6962C61.3896 16.9597 60.9857 16.3142 60.5659 15.6409C60.1897 15.0113 59.8254 14.3777 59.2155 13.9856C58.9027 13.7639 58.5621 13.5698 58.277 13.3084C57.8532 12.9243 57.683 12.362 57.1365 12.2273C53.5367 11.6571 52.0953 16.5438 52.721 19.3555C52.9942 20.7693 53.3546 22.5671 52.0042 23.5215C50.3211 24.5432 48.5153 25.3907 47.0343 26.6975C45.5017 27.7509 44.5434 29.3072 45.0305 31.1922C45.276 32.3882 45.6086 33.7227 46.8085 34.285C48.5985 34.9187 50.4835 34.7286 52.3527 34.883C53.4734 34.8632 54.1822 35.7186 54.5426 36.7007C55.4257 38.7283 56.7365 40.3559 58.7601 41.536C61.9163 43.4249 65.1596 41.5518 64.8388 37.8175C64.827 36.6096 64.7121 35.378 64.6369 34.0752C64.6052 33.6237 64.7398 33.2 65.1081 32.9188C67.2664 31.4298 69.0405 29.3825 70.2523 26.8718C70.9928 25.4857 71.5552 23.7948 70.5889 22.3691L70.5493 22.3018L70.5414 22.3058ZM66.7714 26.0916C60.9579 32.3723 61.445 28.6617 60.95 37.7897C60.8946 38.5105 60.3917 38.7204 59.9323 38.1026C59.0294 36.7839 57.7384 35.6869 57.1998 34.0712C56.982 33.0099 56.2138 32.2456 55.2237 31.8377C54.309 31.3506 53.3823 31.5407 52.3685 31.5961C51.6359 31.608 50.9112 31.5169 50.1984 31.3467C48.3173 31.0932 48.7252 29.3943 50.0004 28.634C51.1052 27.9093 52.1467 27.1371 53.4655 26.7331C54.5307 26.4045 55.4811 25.7392 55.9326 24.6937C56.6613 22.6661 56.5306 20.5198 57.0652 18.3734C57.3067 17.6447 57.9681 18.2942 58.2809 18.8249C58.5661 19.3001 58.7245 19.7872 58.9977 20.3574C60.4392 23.8027 62.7202 23.0978 65.7734 23.4542C67.1832 23.6918 67.8644 24.8481 66.8189 26.0401L66.7674 26.1035L66.7714 26.0916Z" fill="#A0325A"></path></svg>
