<svg xmlns="http://www.w3.org/2000/svg" width="100%" viewBox="0 0 128 146" fill="none" class="horizontal-words__sticker-svg" style="translate: none; rotate: none; scale: none; transform: translate(0%, -5.8756%) translate3d(0px, 0px, 0px) rotate(-0.8404deg) scale(1.0382, 1.0382);"><path d="M127.168 110.106C125.804 117.892 123.183 125.968 118.056 132.171C113.59 137.254 107.731 141.541 101.358 143.729C94.2351 146.236 87.7619 145.688 80.6497 143.428C77.1025 142.354 73.4009 141.111 70.0046 139.488C67.8755 138.475 65.8686 137.207 63.6678 136.362C61.6609 135.567 59.4744 135.151 57.3418 134.772C53.3207 134.034 49.4289 132.816 45.5873 131.541C38.8269 129.406 32.6374 124.063 29.9339 117.444C29.1548 115.593 28.4691 113.719 27.4028 112.015C25.7154 109.242 23.2021 106.889 21.6942 103.963C19.9996 100.783 19.4575 97.4019 18.0394 94.2072C16.8474 91.5999 15.7237 88.6272 14.7579 86.0198C13.5049 82.7571 10.3024 81.482 7.6205 79.3152C6.45367 78.3732 5.3371 77.2988 4.3426 76.0918C1.22268 72.3706 -0.414432 67.3744 0.296436 62.5465C0.619558 60.086 1.68226 57.8224 1.95153 55.5947C2.17054 54.0296 1.99819 52.468 1.61762 50.928C0.199475 46.2648 -0.751957 41.4369 0.791847 36.6556C2.08792 32.2646 5.11813 28.3787 9.22177 26.3014C14.144 23.8516 19.8848 23.8839 25.2666 23.1532C29.6251 22.6626 30.1636 21.0652 29.2661 17.0252C27.1802 8.1466 34.6407 -0.38818 43.8389 1.89684C46.3485 2.41258 48.6713 4.57582 51.1558 4.74057C53.1053 4.86593 55.0835 3.10024 56.8786 2.12606C64.0124 -2.17178 73.4404 1.84671 75.1386 10.0126C75.6664 12.6414 76.0685 15.2595 77.6194 17.498C78.3231 18.5975 79.1848 19.6505 79.8921 20.7679C81.7088 23.5902 82.2724 27.2147 81.382 30.4524C80.7106 33.4143 78.219 36.2616 79.0376 39.3883C79.5617 41.5086 81.8595 43.6252 83.5649 45.5628C85.1662 47.3357 86.5987 49.3485 88.4477 50.8599C90.2859 52.4072 92.6697 53.17 95.0285 53.6213C98.9778 54.3555 103.074 55.6628 106.546 57.8726C116.462 63.8537 122.013 73.7495 125.126 84.4869C127.965 93.7237 128.806 100.403 127.176 110.041L127.165 110.109L127.168 110.106Z" fill="#E6FAB9"></path><path d="M117.145 99.2249C117.076 96.8826 116.76 94.3504 115.848 92.1514C115.357 90.9731 115.346 89.6801 114.962 88.4696C114.161 86.181 113.831 83.6954 112.56 81.5823C112.072 80.7693 111.677 79.9133 111.368 79.0179C109.063 73.026 103.757 68.259 98.0911 65.3937C96.9494 64.9067 95.6964 64.8995 94.5009 64.5807C92.4796 64.1008 90.4583 63.7462 88.3975 63.4132C86.886 63.1875 85.4535 62.7649 84.1753 62.0379C80.3625 59.8603 78.2694 55.7523 75.4008 52.6149C74.5535 51.6514 73.6308 50.7596 72.7117 49.8678C71.3977 48.5785 70.1626 47.1781 68.4824 46.3973C67.8362 46.0858 67.136 45.8565 66.5867 45.3837C65.9369 44.8429 65.463 43.9547 64.7019 43.5428C62.6303 42.4361 60.3074 43.7363 58.8641 45.2692C58.0348 46.0213 57.0116 47.2067 56.1032 45.8637C55.2954 44.7605 54.4733 43.6037 53.6655 42.4469C50.6784 37.9055 47.8708 33.0024 41.7566 32.8484C40.1626 32.9057 38.5793 33.1851 36.9708 33.2173C29.8765 33.6184 22.7858 34.4135 15.7238 35.3053C12.7906 35.6599 10.9452 38.6111 10.7154 41.3724C10.5682 42.8839 10.8806 44.4203 11.3724 45.8529C12.5572 49.2339 13.9717 52.554 15.9499 55.5553C16.4238 56.5151 18.7324 59.1691 16.7075 59.6239C15.5694 59.8424 14.3989 59.6311 13.347 60.1826C10.5825 61.6654 10.1876 65.34 11.5304 67.9187C14.5139 72.9759 21.7016 74.4586 26.7064 76.7902C30.3505 78.1977 22.2006 81.8473 27.4603 88.2761C28.3076 89.2575 29.2985 90.0777 30.2499 90.9444C30.5838 91.2488 30.8603 91.564 30.9859 91.9114C31.1223 92.2767 31.0936 92.6814 30.9644 93.1148C29.9914 95.6505 29.8263 97.3625 31.5388 99.626C32.8959 101.585 34.6838 103.114 36.7123 104.296C37.5812 104.866 39.0998 105.07 39.2003 106.316C39.168 107.842 38.6332 109.457 39.0891 110.929C39.5235 112.695 40.4354 115.045 41.6669 116.456C42.1875 117.036 42.8229 117.462 43.4045 117.985C44.04 118.544 44.6216 119.192 45.3217 119.672C46.9086 120.839 48.9443 120.918 50.7861 121.545C55.2667 123.354 59.9699 124.453 64.8096 124.582C66.041 124.682 67.3982 124.582 68.4178 125.381C69.6349 126.459 70.8915 127.483 72.2845 128.336C73.2718 128.987 74.2842 129.679 75.4116 130.026C76.2409 130.295 77.0954 130.492 77.9032 130.818C79.9676 131.828 82.1612 132.465 84.3908 133.031C87.3779 133.776 90.4368 135.101 93.5459 134.378C96.4217 133.726 99.4303 133.199 101.997 131.509C103.128 130.782 104.137 129.901 105.189 129.077C106.596 128.01 108.086 127.086 109.242 125.717C111.738 123.282 112.858 119.933 114.122 116.771C114.804 115.431 115.048 114.02 115.439 112.588C116.082 111.305 116.118 109.937 116.254 108.519C116.886 105.496 117.231 102.395 117.13 99.2929V99.2249H117.145ZM24.247 72.7502C22.8109 71.948 21.4179 70.8627 20.0931 69.8671C18.7216 68.7855 17.2353 67.5857 17.0019 65.9167C16.8978 65.2147 16.9804 64.3444 17.5009 63.8143C18.1436 63.1804 19.4073 62.858 20.1793 63.449C20.5526 63.7284 20.8363 64.1581 21.084 64.5629C22.4124 66.855 23.7408 69.1329 25.0405 71.4322C25.5862 72.3168 25.6723 73.42 24.308 72.7789L24.247 72.7502ZM27.9558 65.3508C26.8751 63.825 25.8914 62.1811 25.001 60.5193C23.3567 57.9585 21.601 55.4264 19.9495 52.8907C19.1166 51.3613 18.4632 49.6708 17.4507 48.206C17.045 47.504 16.7254 46.7627 16.2264 46.1287C15.8351 45.6058 15.3791 45.1152 15.1135 44.5135C14.5749 43.0092 14.1297 41.1826 15.4078 39.9112C16.7613 38.2422 18.7755 38.3783 20.7214 38.235C21.5543 38.1562 22.3801 38.0309 23.2059 37.8948C27.665 37.0424 32.2209 36.8597 36.7159 36.2795C37.9294 36.1004 39.125 35.8354 40.3457 36.0574C41.5269 36.2365 42.7691 36.2222 43.9216 36.6412C46.1655 37.3468 47.5728 39.2987 48.7181 41.2363C49.9567 43.1919 51.6585 44.8429 52.7499 46.8951C53.6977 48.5928 54.6204 50.3119 55.5431 52.0167C56.0171 52.8369 56.7854 53.4673 57.1803 54.3125C57.5393 55.0897 57.6507 55.9564 57.8266 56.7945C58.2861 59.2443 59.4888 61.4362 60.7598 63.535C61.4491 64.6703 62.3251 65.6803 63.2514 66.6258C65.6999 69.0863 67.9008 71.8334 70.931 73.6492C71.4408 73.9751 71.9721 74.3261 72.3419 74.7989C72.981 75.5939 73.0241 76.7866 73.5087 77.7286C74.2735 79.2077 75.5803 80.3538 76.4994 81.7005C79.5404 86.7862 82.8828 91.6822 86.1392 96.6426C86.8572 97.7636 87.7297 98.8166 88.2611 100.041C88.9037 101.746 89.0329 104.135 87.4855 105.382C86.7244 105.965 85.7012 106.23 84.9509 106.789C84.2975 107.258 83.6225 107.681 82.8793 107.996C81.7556 108.451 80.7611 109.239 79.6517 109.74C78.2407 110.249 76.7974 110.628 75.4224 111.244C73.7134 111.868 71.9183 112.237 70.2273 112.914C68.942 113.472 67.7751 114.206 66.357 114.11C63.8079 114.103 59.3021 113.741 57.6973 111.467C57.4891 110.786 58.2502 110.507 59.0078 110.295C62.5154 109.375 66.5437 108.687 68.924 105.725C71.2182 102.681 70.2739 98.899 67.2222 96.7966C66.1272 96.0803 64.867 95.7759 63.6248 95.45C62.939 95.2673 62.099 95.1813 61.8692 94.8232C61.5461 94.3827 62.2713 93.6484 62.5549 93.2294C63.7899 91.4673 65.1039 88.8957 64.052 86.7397C62.9857 84.8952 61.2589 83.3659 59.1909 82.8036C58.7385 82.6782 58.1964 82.5171 57.9056 82.1947C57.4245 81.6861 57.4926 80.8588 57.4998 80.1819C57.5142 79.5408 57.5716 78.8961 57.5106 78.255C57.3454 76.3891 55.7622 74.9385 54.3943 73.7244C52.4232 71.9802 49.6911 71.3319 47.0523 71.4931C45.1099 71.511 43.1568 71.6292 41.254 72.1844C40.3779 72.4315 39.5092 72.6893 38.6152 72.872C37.1324 73.1227 35.5132 73.6313 34.0197 73.223C32.5943 72.8183 31.8009 71.4143 31.0111 70.2145C29.9914 68.6422 28.9933 66.9517 27.9952 65.4045L27.9594 65.3472L27.9558 65.3508ZM58.918 100.421C60.5444 99.6153 64.7916 99.3466 66.077 100.715C66.7555 101.539 66.619 102.792 65.7646 103.437C65.0393 104.071 63.894 104.096 62.896 104.271C61.4706 104.468 60.0705 104.812 58.6344 104.486C55.5827 103.956 56.5663 101.453 58.8497 100.453L58.918 100.421ZM52.5346 90.6435C51.4826 90.6435 49.8957 90.1028 50.0752 88.7919C50.1793 88.0792 50.8795 87.7318 51.4719 87.4667C52.8828 86.8471 54.4302 86.2562 56.053 86.4209C57.7943 86.6466 61.065 86.3636 60.6844 88.9566C60.6018 89.784 59.9412 90.3141 59.0939 90.3176C56.929 90.4215 54.7318 90.5934 52.5992 90.6471H52.531L52.5346 90.6435ZM52.8756 77.6856C51.7842 79.3976 47.9103 79.1576 45.9931 79.1289C44.5032 79.0859 41.9146 78.6956 41.7387 76.8833C41.7889 76.4177 42.3274 76.1097 42.7762 75.9485C46.5675 74.7021 50.0968 75.0639 52.4268 76.9191C52.6566 77.0982 52.9223 77.3668 52.8828 77.6426L52.8756 77.6856ZM31.1079 87.3987C29.7006 86.0126 29.2985 84.1216 29.3308 82.2341C29.4241 79.6196 34.5689 77.4779 36.7733 76.6577C37.5919 76.3174 38.3388 76.4893 38.547 77.4492C38.7732 78.2873 38.9957 79.1683 39.5486 79.813C40.1087 80.5042 40.956 80.9054 41.7674 81.242C43.3543 81.8974 44.9591 82.56 46.7004 82.3523C48.6176 82.0765 50.4486 81.6539 52.4125 81.3745C52.8577 81.3029 53.4034 81.3137 53.6116 81.7363C53.9922 82.9612 52.1396 83.1295 51.2852 83.3193C47.9857 83.9819 44.7007 84.6194 41.4192 85.3393C39.5594 85.7261 37.9151 86.6358 36.461 87.8643C34.8059 89.3792 32.6877 89.1071 31.1618 87.4453L31.1079 87.3915V87.3987ZM41.3761 101.746C38.7983 101.417 36.3785 100.117 34.6695 98.1254C33.0216 96.1985 33.7504 93.806 35.682 92.4092C38.31 90.2317 41.2576 88.5949 44.5319 87.567C45.1135 87.3844 46.0182 87.1121 46.2121 87.9037C46.3844 90.0741 46.9014 91.8147 48.9874 92.9286C49.9244 93.43 50.9799 93.6413 52.0283 93.7631C52.7427 93.9028 56.8751 93.8884 54.2686 94.7874C51.1379 95.5538 47.8564 95.2351 44.6934 94.7193C43.5553 94.5223 42.008 94.1713 41.4228 95.4786C40.6796 97.5738 43.5697 98.0179 44.9843 98.4692C45.6018 98.6697 45.7633 99.1282 45.311 99.6296C44.277 100.704 42.9916 101.893 41.4443 101.757H41.3725L41.3761 101.746ZM113.041 108.018C111.914 114.335 109.619 120.682 104.984 125.298C103.067 127.086 100.626 128.396 98.206 129.449C95.2154 130.764 91.9626 131.57 88.7601 130.449C86.1464 129.467 83.346 129.17 80.6282 128.572C79.7594 128.4 78.9587 128.038 78.2299 127.548C76.0614 126.072 73.541 125.076 71.5269 123.314C70.2416 122.071 68.5506 121.341 66.7806 121.147C65.1614 120.95 63.4848 121.104 61.8656 120.847C56.5413 119.915 51.2457 118.279 46.5963 115.435C45.0633 114.5 43.2825 113.487 42.7727 111.649C42.5142 110.736 42.6434 109.665 42.9127 108.745C43.8138 105.579 45.8926 103.204 48.7971 101.872C49.867 101.363 50.9584 100.933 52.0894 100.493C52.3658 100.392 52.8469 100.238 53.0731 100.41C53.3926 100.647 53.2706 101.223 53.2562 101.599C53.0839 103.19 53.3818 104.565 54.0855 105.836C54.2686 106.22 54.5845 106.689 54.2758 107.065C53.9886 107.423 53.0803 107.627 52.6135 108.139C51.102 109.751 53.1269 112.025 53.8198 113.608C55.0118 115.653 56.6777 117.587 58.9826 118.332C60.6952 118.762 62.5154 118.981 64.2531 119.138C65.6605 119.16 67.0642 118.837 68.4608 118.49C73.3651 117.247 77.957 115.134 82.7213 113.49C86.6849 112.118 91.2265 110.51 92.6806 106.159C93.8223 103.036 93.5638 100.389 91.4671 97.803C88.2036 93.1793 85.116 88.466 82.0356 83.7097C81.4898 82.8 80.7718 81.9082 80.2045 81.0522C79.8527 80.472 80.0143 79.8524 80.5528 79.4871C81.5401 78.7922 82.9044 78.5702 83.705 77.6928C85.2667 75.8375 84.1108 74.5231 81.9961 74.2509C80.6462 74.0431 79.5224 73.2445 78.2981 72.7001C76.0578 72.0124 73.8534 71.2603 71.9937 69.799C69.2615 67.8256 66.9889 65.4331 64.9963 62.7971C62.9965 60.2972 61.4599 57.4105 61.2014 54.1872C61.1008 53.4028 60.9286 52.579 60.986 51.8269C61.1153 50.2869 62.616 49.0154 64.1347 48.9689C65.621 48.9438 66.9314 49.8141 68.1808 50.5232C69.1645 51.1213 70.1949 51.655 70.895 52.5182C71.4515 53.1951 71.9398 53.9293 72.5322 54.5775C73.1964 55.3297 73.9037 56.0424 74.575 56.7873C76.5066 58.9291 77.9427 61.4505 80.0179 63.4382C80.7252 64.1546 81.4468 64.8923 82.33 65.3973C84.4231 66.4503 86.886 66.5004 89.1407 67.0412C93.8475 67.933 98.8236 69.337 102.364 72.786C106.13 76.5252 108.618 81.4283 110.258 86.4317C110.668 87.5885 111.156 88.7023 111.63 89.8305C112.739 92.4307 112.976 95.1563 113.246 97.846C113.684 101.184 113.766 104.622 113.045 107.932L113.03 108L113.041 108.018Z" fill="#A0325A"></path><path d="M70.7979 28.7871C69.29 30.1731 68.3996 31.9567 67.9545 33.948C67.6744 34.9473 67.4482 36.1399 66.7086 36.9028C65.6603 37.877 64.3749 36.7774 64.1416 35.4809C63.682 33.7976 64.4144 32.1573 65.0391 30.6674C65.4377 29.6753 64.5078 29.2992 63.6605 29.1667C59.4994 28.3322 56.1964 25.7786 56.261 21.9248C56.3041 20.7859 55.9308 20.5495 54.8824 20.9149C51.6584 21.8317 47.3034 22.2221 44.1439 21.0509C41.839 19.9944 39.6094 16.5919 39.4551 14.067C39.3474 12.9209 40.3993 11.7891 41.5518 12.3192C43.2679 13.2002 43.1746 15.7145 44.5819 16.8964C46.8833 18.9199 50.3156 18.7588 52.9975 17.6163C55.2773 16.7388 57.5571 15.6751 59.4025 13.9989C60.3647 13.1752 61.115 12.0828 62.1813 11.3916C63.6784 10.3422 65.4771 11.8285 64.8668 13.4688C63.7287 15.9007 61.8187 17.8956 60.6411 20.3454C59.9087 21.6455 59.9123 23.3145 60.9643 24.4462C62.4829 26.1582 65.0679 25.6138 67.1215 25.7069C68.1196 25.7069 69.29 25.4706 70.1948 25.8502C71.4406 26.3337 71.7745 27.8272 70.8446 28.7333L70.7979 28.7871Z" fill="#A0325A"></path><path d="M39.003 40.5343C39.5164 41.4727 38.7049 42.3358 37.7643 42.4755C35.0213 43.1524 32.2677 43.9331 29.4637 44.2555C28.6523 44.3378 27.7942 44.5313 27.0259 44.1731C25.7262 43.5965 25.6185 41.9526 26.6705 41.0428C27.0905 40.6668 27.6434 40.5235 28.1963 40.4555C30.9931 40.1797 33.8294 39.9792 36.6406 39.8108C37.4232 39.7822 38.5039 39.7822 38.9706 40.4842L38.9994 40.5343H39.003Z" fill="#A0325A"></path></svg>
